<svg width="18" height="16" viewBox="0 0 18 16" fill="none" xmlns="http://www.w3.org/2000/svg">
<path fill-rule="evenodd" clip-rule="evenodd" d="M0.74519 0.979871C0.882339 0.68705 1.1765 0.5 1.49985 0.5H16.4998C16.8181 0.5 17.1086 0.681293 17.2484 0.967207C17.3883 1.25312 17.353 1.59372 17.1576 1.84495L11.6575 8.91655V13.4955C11.6575 13.8111 11.4792 14.0997 11.1969 14.2409L7.95361 15.8625C7.69528 15.9916 7.3885 15.9778 7.14282 15.826C6.89714 15.6742 6.7476 15.4059 6.7476 15.1171V8.93234L0.859663 1.86682C0.652661 1.61842 0.60804 1.27269 0.74519 0.979871ZM3.27905 2.16667L8.22111 8.09714C8.34592 8.24691 8.41426 8.43568 8.41426 8.63063V13.7688L9.99084 12.9805V8.63063C9.99084 8.44532 10.0526 8.26529 10.1664 8.11901L14.796 2.16667H3.27905Z" fill="#5979A7"/>
</svg>
