<svg width="14" height="13" viewBox="0 0 14 13" fill="none" xmlns="http://www.w3.org/2000/svg">
<path d="M6.04894 1.92705C6.3483 1.00574 7.6517 1.00574 7.95106 1.92705L8.5716 3.83688C8.70547 4.2489 9.08943 4.52786 9.52265 4.52786H11.5308C12.4995 4.52786 12.9023 5.76748 12.1186 6.33688L10.494 7.51722C10.1435 7.77187 9.99681 8.22323 10.1307 8.63526L10.7512 10.5451C11.0506 11.4664 9.9961 12.2325 9.21238 11.6631L7.58778 10.4828C7.2373 10.2281 6.7627 10.2281 6.41221 10.4828L4.78761 11.6631C4.0039 12.2325 2.94942 11.4664 3.24877 10.5451L3.86932 8.63526C4.00319 8.22323 3.85653 7.77186 3.50604 7.51722L1.88144 6.33688C1.09773 5.76748 1.50051 4.52786 2.46923 4.52786H4.47735C4.91057 4.52786 5.29453 4.2489 5.4284 3.83688L6.04894 1.92705Z" stroke="white" stroke-width="1.5" stroke-linejoin="round"/>
</svg>
