<svg width="24" height="16" viewBox="0 0 24 16" fill="none" xmlns="http://www.w3.org/2000/svg">
<path d="M23.8334 4.82019C23.7763 4.65411 23.5741 4.52494 23.4053 4.52494C22.6743 4.52494 21.9433 4.52494 21.2123 4.52494C21.0435 4.52494 20.8413 4.65411 20.7842 4.82019C20.7284 4.98275 20.6866 5.12779 20.6589 5.26419L19.194 1.21151C18.9524 0.543226 18.3125 0.0942383 17.602 0.0942383H6.39809C5.68749 0.0942383 5.04773 0.543226 4.80599 1.21163L3.34105 5.26468C3.31326 5.12815 3.27154 4.98293 3.21565 4.82019C3.15861 4.65411 2.95634 4.52494 2.78759 4.52494C2.0566 4.52494 1.32562 4.52494 0.594583 4.52494C0.425825 4.52494 0.223559 4.65411 0.166515 4.82019C-0.0555761 5.46682 -0.0554545 5.837 0.166576 6.48369C0.22362 6.64977 0.425886 6.77894 0.594644 6.77894C1.32569 6.77894 2.05667 6.77894 2.78765 6.77894C2.78971 6.77894 2.7919 6.77839 2.79403 6.77833L2.76095 6.86998C2.31379 7.01855 1.99093 7.4395 1.99093 7.93659V11.3303V11.61V15.3653C1.99093 15.6639 2.23284 15.9058 2.53138 15.9058H5.25139C5.54986 15.9058 5.79184 15.6639 5.79184 15.3653V12.7344H18.2082V15.3653C18.2082 15.6639 18.4501 15.9058 18.7486 15.9058H21.4686C21.7672 15.9058 22.0091 15.6639 22.0091 15.3653V11.61V11.3303V7.93659C22.0091 7.43962 21.6863 7.01873 21.2394 6.87004L21.2062 6.77833C21.2082 6.77839 21.2104 6.77888 21.2124 6.77888C21.9434 6.77888 22.6743 6.77888 23.4054 6.77888C23.5742 6.77888 23.7764 6.64971 23.8334 6.48363C24.0555 5.837 24.0553 5.46682 23.8334 4.82019ZM6.60504 2.08309H17.3935L19.1029 6.81208H4.89575L6.60504 2.08309ZM6.90595 10.1435H4.63042C4.14221 10.1435 3.7465 9.7478 3.7465 9.25959C3.7465 8.77144 4.14215 8.37566 4.63042 8.37566H6.90595C7.3941 8.37566 7.78988 8.77138 7.78988 9.25959C7.78994 9.7478 7.3941 10.1435 6.90595 10.1435ZM19.3694 10.1435H17.0939C16.6057 10.1435 16.21 9.7478 16.21 9.25959C16.21 8.77144 16.6057 8.37566 17.0939 8.37566H19.3694C19.8576 8.37566 20.2533 8.77138 20.2533 9.25959C20.2533 9.7478 19.8576 10.1435 19.3694 10.1435Z" fill="#16426B"/>
</svg>
