<svg width="24" height="24" viewBox="0 0 24 24" fill="none" xmlns="http://www.w3.org/2000/svg">
<g clip-path="url(#clip0_4488_21656)">
<path d="M2.20566 14.1562H0.705658C0.317017 14.1562 0.00253296 14.4707 0.00253296 14.8594V23.2969C0.00253296 23.6855 0.317017 24 0.705658 24H2.20566C3.36881 24 4.31503 23.0538 4.31503 21.8906V16.2656C4.31503 15.1025 3.36886 14.1562 2.20566 14.1562Z" fill="white"/>
<path d="M23.7916 15.5202C23.7072 15.3796 23.5948 15.2671 23.4682 15.1686C22.9505 14.7157 22.0782 14.7585 21.5698 15.3093L18.3776 18.9937L18.2791 19.1061C17.8854 19.5421 17.3229 19.7812 16.7323 19.7812H11.2761C10.8823 19.7812 10.5729 19.4718 10.5729 19.0781C10.5729 18.6843 10.8823 18.3749 11.2761 18.3749H15.5651C16.3386 18.3749 16.9714 17.7421 16.9714 16.9687V16.9546C16.9573 16.1812 16.3386 15.5624 15.5651 15.5624H13.0198C12.5981 15.5624 12.1462 15.4076 11.7823 15.0983C10.0667 13.5936 7.56356 13.4952 5.72137 14.7749V23.4233C7.11356 23.8031 8.54794 23.9999 9.99633 23.9999H16.2682C17.8151 23.9999 19.2776 23.2686 20.2057 22.0311L23.5808 17.5311C24.0731 16.8848 24.1102 15.9984 23.7916 15.5202Z" fill="white"/>
<path d="M18.8561 1.35914C18.0763 0.482672 16.9952 0 15.8121 0C14.4915 0 13.3468 0.624422 12.5017 1.80572C12.4383 1.89427 12.379 1.98286 12.3234 2.07052C12.2679 1.98281 12.2086 1.89427 12.1453 1.80572C11.3002 0.624422 10.1554 0 8.83486 0C7.65174 0 6.57066 0.482672 5.79085 1.35909C5.05078 2.19084 4.64316 3.30277 4.64316 4.49006C4.64316 5.7803 5.14383 6.97087 6.21867 8.23697C7.1566 9.34158 8.50186 10.477 10.0595 11.7918C10.6351 12.2776 11.2304 12.78 11.8629 13.3282C11.9951 13.4428 12.1592 13.5 12.3234 13.5C12.4876 13.5 12.6518 13.4428 12.7839 13.3282C13.4164 12.7801 14.0115 12.2778 14.5872 11.792C15.5876 10.9476 16.4515 10.2184 17.2013 9.51108C18.6569 8.13773 20.0038 6.57891 20.0038 4.49011C20.0038 3.30281 19.5962 2.19089 18.8561 1.35914Z" fill="white"/>
</g>
<defs>
<clipPath id="clip0_4488_21656">
<rect width="24" height="24" fill="white"/>
</clipPath>
</defs>
</svg>
