<svg width="24" height="24" viewBox="0 0 24 24" fill="none" xmlns="http://www.w3.org/2000/svg">
<path d="M12.4633 11.2067C11.6984 10.9507 10.8707 11.3639 10.6152 12.1286C10.3596 12.8936 10.772 13.7208 11.5371 13.9763C12.3021 14.2325 13.1295 13.8195 13.3854 13.0547C13.6411 12.2896 13.2282 11.4625 12.4633 11.2067Z" fill="#16426B"/>
<path d="M22.7018 2.56424C22.5745 2.07651 22.2476 1.69893 21.8344 1.56182C18.7107 0.525507 15.4021 0 12.0006 0C8.59888 0 5.28972 0.525507 2.16554 1.56182C1.75235 1.69881 1.42552 2.07639 1.29821 2.56412C1.17071 3.05179 1.25995 3.58322 1.5352 3.97496L2.05574 4.71636C2.59225 5.48053 3.12875 6.24452 3.66532 7.0084C3.95706 7.42375 4.41096 7.61657 4.85261 7.52464L7.81935 11.5285C7.7484 11.6631 7.72365 11.8225 7.76119 11.9822L8.39722 14.6803C8.44569 14.8813 8.58346 15.0626 8.78603 15.1552L8.8342 15.1773L10.1875 15.7982V18.8503L9.55468 19.6014L9.50519 19.66C9.37919 19.8099 9.30711 20.0058 9.31602 20.2171L9.44799 23.2493C9.46676 23.6521 9.79108 23.9833 10.2016 23.9994C10.6347 24.0161 10.9992 23.6786 11.016 23.2456L11.1185 20.604L11.9345 19.7831L12.7507 20.604L12.8531 23.2456C12.8699 23.6485 13.1929 23.9814 13.6033 23.9992C14.0363 24.0181 14.4027 23.6823 14.4215 23.2493L14.5531 20.2171C14.5612 20.0214 14.4993 19.8201 14.3629 19.6583L14.3146 19.6014L13.8131 19.0062V15.798L15.1663 15.1771L15.2178 15.1535C15.4051 15.0665 15.5522 14.8969 15.6033 14.6802L16.2392 11.9821C16.2758 11.8245 16.2514 11.6647 16.1805 11.5289L19.1473 7.52458C19.2196 7.53976 19.2926 7.54801 19.3648 7.54801C19.7338 7.54801 20.0909 7.35519 20.3348 7.00834L22.4647 3.97514C22.7399 3.58322 22.8292 3.05185 22.7018 2.56424ZM18.7035 7.39039L16.0219 11.0097L17.1246 6.96237C17.6569 7.08586 18.1834 7.22824 18.7035 7.39039ZM6.8755 6.96237L7.97816 11.0097L5.29647 7.39039C5.81666 7.22824 6.34306 7.08586 6.8755 6.96237ZM14.9793 11.6352L14.2621 13.9022L13.0979 14.3467H10.9025L9.73842 13.9022L9.02129 11.6352C8.94203 11.3875 8.72554 11.2153 8.47797 11.1839L7.30215 6.86806C8.82984 6.54619 10.4019 6.38277 12.0002 6.38277C13.5983 6.38277 15.1703 6.54619 16.6978 6.86806L15.522 11.1837C15.2766 11.2148 15.0588 11.3834 14.9793 11.6352Z" fill="black"/>
</svg>
