<svg width="24" height="18" viewBox="0 0 24 18" fill="none" xmlns="http://www.w3.org/2000/svg">
<path d="M14.2501 18H11.2501C10.9538 18 10.6853 17.826 10.5646 17.5545L7.56457 10.8045C7.39582 10.4257 7.56682 9.98248 7.94482 9.81448C8.32357 9.64573 13.0051 9.80023 13.4168 9.75448C13.8331 9.71398 14.1998 10.0057 14.2448 10.4175L14.9948 17.1675C15.0181 17.379 14.9498 17.5912 14.8081 17.7502C14.6663 17.9092 14.4631 18 14.2501 18Z" fill="white"/>
<path d="M14.4719 4.5L14.9924 0.8565C15.0232 0.64125 14.9587 0.423 14.8169 0.25875C14.6737 0.0944998 14.4674 0 14.2499 0H11.2499C10.9807 0 10.7324 0.144 10.5989 0.378L8.24316 4.5H14.4719Z" fill="white"/>
<path d="M22.5 2.25H21C20.7157 2.25 20.4562 2.4105 20.3288 2.66475L19.0365 5.25H5.25C4.21125 5.25 3.0765 5.871 2.20575 6.75H6C6.414 6.75 6.75 7.08525 6.75 7.5C6.75 7.91475 6.414 8.25 6 8.25H1.131C0.89175 8.74575 0.75 9.25875 0.75 9.75C0.75 12.75 3.57225 12.75 4.5 12.75H7.60875L6.87975 11.109C6.54375 10.3538 6.885 9.46575 7.64025 9.129C7.8345 9.04275 8.03925 8.9985 8.25 8.9985C8.8425 8.9985 12.5122 9.1005 13.3335 9.00825C13.395 9.00225 13.4445 9 13.494 9C14.2628 9 14.907 9.57375 14.991 10.3342L15.2145 12.3465L22.6823 10.4767C23.016 10.3935 23.25 10.0943 23.25 9.75V3C23.25 2.58525 22.9147 2.25 22.5 2.25ZM8.25 8.25C7.836 8.25 7.5 7.91475 7.5 7.5C7.5 7.08525 7.836 6.75 8.25 6.75C8.664 6.75 9 7.08525 9 7.5C9 7.91475 8.664 8.25 8.25 8.25ZM10.5 8.25C10.086 8.25 9.75 7.91475 9.75 7.5C9.75 7.08525 10.086 6.75 10.5 6.75C10.914 6.75 11.25 7.08525 11.25 7.5C11.25 7.91475 10.914 8.25 10.5 8.25ZM12.75 8.25C12.3352 8.25 12 7.91475 12 7.5C12 7.08525 12.3352 6.75 12.75 6.75C13.1648 6.75 13.5 7.08525 13.5 7.5C13.5 7.91475 13.1648 8.25 12.75 8.25ZM15 8.25C14.5852 8.25 14.25 7.91475 14.25 7.5C14.25 7.08525 14.5852 6.75 15 6.75C15.4148 6.75 15.75 7.08525 15.75 7.5C15.75 7.91475 15.4148 8.25 15 8.25ZM17.25 8.25C16.8353 8.25 16.5 7.91475 16.5 7.5C16.5 7.08525 16.8353 6.75 17.25 6.75C17.6647 6.75 18 7.08525 18 7.5C18 7.91475 17.6647 8.25 17.25 8.25Z" fill="white"/>
</svg>
