<svg width="24" height="18" viewBox="0 0 24 18" fill="none" xmlns="http://www.w3.org/2000/svg">
<path d="M9.8764 4.0686C9.53091 4.0686 9.15327 4.19271 8.8926 4.48681C8.55122 4.87194 8.44419 6.02286 8.45686 6.60368C9.03327 6.61763 10.1353 6.60235 10.5818 6.1584C11.0486 5.69414 11.1763 4.88291 10.6799 4.38922C10.4639 4.17435 10.1754 4.0686 9.8764 4.0686Z" fill="white"/>
<path d="M5.47666 4.0686C5.82215 4.0686 6.19979 4.19271 6.46046 4.48681C6.80184 4.87194 6.90887 6.02286 6.8962 6.60368C6.31979 6.61763 5.21769 6.60235 4.77128 6.1584C4.30446 5.69414 4.17671 4.88291 4.67312 4.38922C4.88918 4.17435 5.17764 4.0686 5.47666 4.0686Z" fill="white"/>
<path d="M11.7677 3.29929C12.6443 4.17088 12.7611 5.54463 12.1605 6.60365H24V2.73637C24 1.52257 23.0142 0.538574 21.7982 0.538574H8.44611V2.91155C9.52518 2.30268 10.8887 2.42519 11.7677 3.29929C12.2671 3.79586 10.8887 2.42519 11.7677 3.29929Z" fill="white"/>
<path d="M5.21636 10.9293L4.124 9.84399L5.82108 8.14209H0V15.2638C0 16.4776 0.985795 17.4616 2.20179 17.4616H6.90482V9.23604L5.21636 10.9293Z" fill="white"/>
<path d="M9.52308 8.14209L11.1975 9.82994L10.1024 10.9124L8.44611 9.24291V17.4616H21.7982C23.0142 17.4616 24 16.4776 24 15.2638V8.14209H9.52308Z" fill="white"/>
<path d="M3.19041 6.60365C2.58974 5.54447 2.70672 4.17083 3.58318 3.29929C4.46221 2.42519 5.82569 2.30273 6.90482 2.91155V0.538574H2.20179C0.985795 0.538574 0 1.52257 0 2.73637V6.60365H3.19041Z" fill="white"/>
</svg>
