<svg width="24" height="24" viewBox="0 0 24 24" fill="none" xmlns="http://www.w3.org/2000/svg">
<path d="M10.5 17.25H13.5V22.5H10.5V17.25Z" fill="white"/>
<path d="M21.75 21H20.25V6C20.25 5.55 19.95 5.25 19.5 5.25H18.75V2.25C18.75 1.8 18.45 1.5 18 1.5H6C5.55 1.5 5.25 1.8 5.25 2.25V5.25H4.5C4.05 5.25 3.75 5.55 3.75 6V21H2.25C1.8 21 1.5 21.3 1.5 21.75C1.5 22.2 1.8 22.5 2.25 22.5H9V16.5C9 16.05 9.3 15.75 9.75 15.75H14.25C14.7 15.75 15 16.05 15 16.5V22.5H21.75C22.2 22.5 22.5 22.2 22.5 21.75C22.5 21.3 22.2 21 21.75 21ZM16.5 7.5C16.95 7.5 17.25 7.8 17.25 8.25V9.75C17.25 10.2 16.95 10.5 16.5 10.5C16.05 10.5 15.75 10.2 15.75 9.75V8.25C15.75 7.8 16.05 7.5 16.5 7.5ZM7.5 18.75C7.5 19.2 7.2 19.5 6.75 19.5C6.3 19.5 6 19.2 6 18.75V17.25C6 16.8 6.3 16.5 6.75 16.5C7.2 16.5 7.5 16.8 7.5 17.25V18.75ZM8.25 14.25C8.25 14.7 7.95 15 7.5 15C7.05 15 6.75 14.7 6.75 14.25V12.75C6.75 12.3 7.05 12 7.5 12C7.95 12 8.25 12.3 8.25 12.75V14.25ZM8.25 9.75C8.25 10.2 7.95 10.5 7.5 10.5C7.05 10.5 6.75 10.2 6.75 9.75V8.25C6.75 7.8 7.05 7.5 7.5 7.5C7.95 7.5 8.25 7.8 8.25 8.25V9.75ZM9 6.75C8.55 6.75 8.25 6.45 8.25 6V4.5C8.25 4.05 8.55 3.75 9 3.75C9.45 3.75 9.75 4.05 9.75 4.5V6C9.75 6.45 9.45 6.75 9 6.75ZM11.25 14.25C11.25 14.7 10.95 15 10.5 15C10.05 15 9.75 14.7 9.75 14.25V12.75C9.75 12.3 10.05 12 10.5 12C10.95 12 11.25 12.3 11.25 12.75V14.25ZM11.25 9.75C11.25 10.2 10.95 10.5 10.5 10.5C10.05 10.5 9.75 10.2 9.75 9.75V8.25C9.75 7.8 10.05 7.5 10.5 7.5C10.95 7.5 11.25 7.8 11.25 8.25V9.75ZM12 6.75C11.55 6.75 11.25 6.45 11.25 6V4.5C11.25 4.05 11.55 3.75 12 3.75C12.45 3.75 12.75 4.05 12.75 4.5V6C12.75 6.45 12.45 6.75 12 6.75ZM14.25 14.25C14.25 14.7 13.95 15 13.5 15C13.05 15 12.75 14.7 12.75 14.25V12.75C12.75 12.3 13.05 12 13.5 12C13.95 12 14.25 12.3 14.25 12.75V14.25ZM14.25 9.75C14.25 10.2 13.95 10.5 13.5 10.5C13.05 10.5 12.75 10.2 12.75 9.75V8.25C12.75 7.8 13.05 7.5 13.5 7.5C13.95 7.5 14.25 7.8 14.25 8.25V9.75ZM15 6.75C14.55 6.75 14.25 6.45 14.25 6V4.5C14.25 4.05 14.55 3.75 15 3.75C15.45 3.75 15.75 4.05 15.75 4.5V6C15.75 6.45 15.45 6.75 15 6.75ZM15.75 14.25V12.75C15.75 12.3 16.05 12 16.5 12C16.95 12 17.25 12.3 17.25 12.75V14.25C17.25 14.7 16.95 15 16.5 15C16.05 15 15.75 14.7 15.75 14.25ZM18 18.75C18 19.2 17.7 19.5 17.25 19.5C16.8 19.5 16.5 19.2 16.5 18.75V17.25C16.5 16.8 16.8 16.5 17.25 16.5C17.7 16.5 18 16.8 18 17.25V18.75Z" fill="white"/>
</svg>
