<svg width="24" height="24" viewBox="0 0 24 24" fill="none" xmlns="http://www.w3.org/2000/svg">
<path fill-rule="evenodd" clip-rule="evenodd" d="M1.73663 14.5554H2.44444V15.2116H2.06475V17.8581H1.61906C1.54862 17.8581 1.47827 17.863 1.4085 17.8727V14.8835C1.4085 14.7965 1.44307 14.713 1.50461 14.6515C1.56614 14.59 1.6496 14.5554 1.73663 14.5554ZM1.61906 18.5143H22.381C22.6115 18.5143 22.8325 18.6058 22.9955 18.7688C23.1585 18.9318 23.25 19.1528 23.25 19.3833C23.25 19.6138 23.1585 19.8348 22.9955 19.9978C22.8325 20.1607 22.6115 20.2523 22.381 20.2523H1.61906C1.38859 20.2523 1.16755 20.1607 1.00458 19.9978C0.841605 19.8348 0.750048 19.6138 0.750048 19.3833C0.750048 19.1528 0.841605 18.9318 1.00458 18.7688C1.16755 18.6058 1.38859 18.5143 1.61906 18.5143ZM16.3728 12.3857H20.4308C20.5551 12.386 20.6742 12.4354 20.762 12.5233C20.8499 12.6111 20.8994 12.7302 20.8996 12.8545V16.9125C20.8994 17.0367 20.8499 17.1558 20.762 17.2437C20.6742 17.3316 20.5551 17.381 20.4308 17.3812H16.3728C16.2486 17.381 16.1295 17.3316 16.0416 17.2437C15.9538 17.1558 15.9043 17.0367 15.9041 16.9125V12.8545C15.9043 12.7302 15.9538 12.6111 16.0416 12.5233C16.1295 12.4354 16.2486 12.386 16.3728 12.3857ZM3.5692 12.3857H7.62727C7.75151 12.386 7.87061 12.4354 7.95846 12.5233C8.04632 12.6111 8.09578 12.7302 8.09602 12.8545V16.9125C8.09578 17.0367 8.04632 17.1558 7.95846 17.2437C7.87061 17.3316 7.75151 17.381 7.62727 17.3812H3.5692C3.44496 17.381 3.32586 17.3316 3.23801 17.2437C3.15015 17.1558 3.10069 17.0367 3.10045 16.9125V12.8545C3.10069 12.7302 3.15015 12.6111 3.23801 12.5233C3.32586 12.4354 3.44496 12.386 3.5692 12.3857ZM9.97102 12.3857H14.029C14.1533 12.386 14.2724 12.4354 14.3602 12.5233C14.4481 12.6111 14.4975 12.7302 14.4978 12.8545V16.9125C14.4975 17.0367 14.4481 17.1558 14.3602 17.2437C14.2724 17.3316 14.1533 17.381 14.029 17.3812H9.97102C9.84677 17.381 9.72768 17.3316 9.63982 17.2437C9.55196 17.1558 9.5025 17.0367 9.50227 16.9125V12.8545C9.5025 12.7302 9.55196 12.6111 9.63982 12.5233C9.72768 12.4354 9.84677 12.386 9.97102 12.3857ZM21.5558 14.5554H22.2637C22.3507 14.5554 22.4341 14.59 22.4957 14.6515C22.5572 14.713 22.5918 14.7965 22.5918 14.8835V17.8727C22.522 17.863 22.4517 17.8581 22.3812 17.8581H21.9355V15.2116H21.5558V14.5554ZM4.50375 20.9085V22.7578H5.25075C5.33778 22.7578 5.42124 22.7924 5.48277 22.8539C5.54431 22.9155 5.57888 22.9989 5.57888 23.0859C5.57888 23.173 5.54431 23.2564 5.48277 23.318C5.42124 23.3795 5.33778 23.4141 5.25075 23.4141H3.1005C3.01348 23.4141 2.93002 23.3795 2.86848 23.318C2.80695 23.2564 2.77238 23.173 2.77238 23.0859C2.77238 22.9989 2.80695 22.9155 2.86848 22.8539C2.93002 22.7924 3.01348 22.7578 3.1005 22.7578H3.8475V20.9085H4.50375ZM20.1526 20.9085V22.7578H20.8996C20.9866 22.7578 21.0701 22.7924 21.1316 22.8539C21.1931 22.9155 21.2277 22.9989 21.2277 23.0859C21.2277 23.173 21.1931 23.2564 21.1316 23.318C21.0701 23.3795 20.9866 23.4141 20.8996 23.4141H18.7493C18.6623 23.4141 18.5789 23.3795 18.5173 23.318C18.4558 23.2564 18.4212 23.173 18.4212 23.0859C18.4212 22.9989 18.4558 22.9155 18.5173 22.8539C18.5789 22.7924 18.6623 22.7578 18.7493 22.7578H19.4963V20.9085H20.1526ZM11.3746 7.47187L9.12127 5.63437C9.09272 5.61121 9.07004 5.58165 9.05506 5.54807C9.04008 5.5145 9.03322 5.47787 9.03505 5.44116C9.03687 5.40444 9.04733 5.36867 9.06557 5.33676C9.08381 5.30484 9.10931 5.27767 9.14002 5.25745L9.68925 4.89328C9.71949 4.87259 9.75428 4.8595 9.79066 4.85512C9.82703 4.85074 9.86393 4.85519 9.89822 4.86811L11.8224 5.56158C11.9503 5.60985 12.0875 5.62862 12.2237 5.61649C12.3599 5.60437 12.4916 5.56166 12.609 5.49155L20.6358 0.85725C22.0291 0.0528282 24.7912 1.14923 22.1471 2.676L20.5533 3.59611C20.448 3.65486 20.3556 3.73405 20.2813 3.82903C20.2071 3.92402 20.1525 4.03288 20.121 4.14923L18.4647 9.91758C18.4568 9.94666 18.4432 9.97387 18.4246 9.99762C18.4061 10.0214 18.3829 10.0412 18.3566 10.0559L17.6006 10.4923C17.5647 10.5132 17.524 10.5241 17.4825 10.524C17.4409 10.5239 17.4002 10.5128 17.3644 10.4917C17.3287 10.4707 17.2991 10.4405 17.2788 10.4043C17.2586 10.3681 17.2483 10.3271 17.2491 10.2856L17.3198 5.83355C17.3205 5.79283 17.3106 5.75262 17.2911 5.7169C17.2715 5.68118 17.243 5.65119 17.2083 5.62988C17.1736 5.60857 17.1339 5.5967 17.0932 5.59542C17.0525 5.59415 17.0122 5.60352 16.9762 5.62261C15.8213 6.23227 12.1601 8.08284 11.3746 7.47211L11.3746 7.47187ZM17.0974 2.14219L13.4517 1.23478C13.4225 1.22708 13.3922 1.22527 13.3623 1.22947C13.3325 1.23366 13.3038 1.24377 13.2779 1.2592L12.5219 1.6957C12.4861 1.71649 12.4564 1.74639 12.4358 1.78237C12.4153 1.81835 12.4047 1.85912 12.405 1.90055C12.4053 1.94198 12.4166 1.98258 12.4377 2.01823C12.4588 2.05387 12.489 2.0833 12.5251 2.10352L14.8879 3.41808L17.0974 2.14219ZM4.16902 2.05411C3.78318 2.05409 3.40601 2.16849 3.08519 2.38283C2.76437 2.59718 2.51431 2.90184 2.36665 3.2583C2.21898 3.61476 2.18034 4.00701 2.2556 4.38543C2.33086 4.76385 2.51665 5.11146 2.78947 5.38429C3.06229 5.65713 3.40989 5.84293 3.78831 5.91821C4.16673 5.99349 4.55897 5.95486 4.91544 5.80722C5.27191 5.65957 5.57658 5.40953 5.79094 5.08872C6.00531 4.76791 6.11972 4.39074 6.11972 4.00491C6.11973 3.74873 6.06928 3.49506 5.97126 3.25838C5.87323 3.02169 5.72955 2.80664 5.54841 2.62549C5.36726 2.44434 5.15222 2.30064 4.91554 2.20261C4.67886 2.10457 4.42519 2.05411 4.16902 2.05411ZM4.16902 4.47366C4.12606 4.47369 4.0833 4.46782 4.04194 4.45622L3.49856 4.76995C3.46136 4.7915 3.42029 4.80551 3.37767 4.81117C3.33506 4.81684 3.29175 4.81407 3.25021 4.803C3.20867 4.79193 3.16972 4.77278 3.13558 4.74666C3.10144 4.72054 3.07278 4.68795 3.05124 4.65075C3.02969 4.61355 3.01568 4.57247 3.01001 4.52986C3.00434 4.48725 3.00712 4.44394 3.01819 4.4024C3.02926 4.36086 3.0484 4.32191 3.07453 4.28777C3.10065 4.25363 3.13324 4.22497 3.17044 4.20342L3.71466 3.88936C3.73583 3.80615 3.77949 3.73037 3.84084 3.67031V2.66438C3.84084 2.57735 3.87542 2.49389 3.93695 2.43236C3.99849 2.37082 4.08195 2.33625 4.16897 2.33625C4.25599 2.33625 4.33945 2.37082 4.40099 2.43236C4.46252 2.49389 4.49709 2.57735 4.49709 2.66438V3.67031C4.56358 3.73549 4.60915 3.81899 4.628 3.91017C4.64684 4.00135 4.63811 4.09607 4.60291 4.18227C4.56771 4.26846 4.50764 4.34222 4.43035 4.39414C4.35307 4.44606 4.26207 4.47379 4.16897 4.4738L4.16902 4.47366ZM4.16902 0.585938C3.49281 0.585928 2.83178 0.786439 2.26953 1.16211C1.70727 1.53779 1.26905 2.07176 1.01027 2.69649C0.751488 3.32123 0.683774 4.00867 0.81569 4.67189C0.947607 5.3351 1.27323 5.94431 1.75138 6.42247C2.22953 6.90062 2.83873 7.22625 3.50195 7.35818C4.16516 7.4901 4.8526 7.4224 5.47734 7.16363C6.10208 6.90485 6.63605 6.46664 7.01173 5.90439C7.38742 5.34214 7.58794 4.68112 7.58794 4.00491C7.58794 3.55592 7.49952 3.11134 7.3277 2.69653C7.15589 2.28172 6.90405 1.90481 6.58658 1.58733C6.2691 1.26985 5.8922 1.01801 5.47739 0.846192C5.06259 0.674372 4.618 0.585938 4.16902 0.585938ZM4.16902 6.61191C3.65339 6.61192 3.14933 6.45904 2.72059 6.17258C2.29185 5.88613 1.95768 5.47896 1.76035 5.00259C1.56301 4.52621 1.51138 4.00201 1.61196 3.49629C1.71255 2.99056 1.96084 2.52602 2.32545 2.16142C2.69005 1.79681 3.15458 1.5485 3.66031 1.44791C4.16603 1.34731 4.69023 1.39894 5.16661 1.59627C5.64299 1.79359 6.05015 2.12775 6.33662 2.55649C6.62308 2.98522 6.77598 3.48928 6.77597 4.00491C6.77593 4.69631 6.50126 5.35938 6.01237 5.84828C5.52348 6.33717 4.86042 6.61186 4.16902 6.61191Z" fill="white"/>
</svg>
