<svg width="24" height="24" viewBox="0 0 24 24" fill="none" xmlns="http://www.w3.org/2000/svg">
<path d="M17.9105 16.9317L17.6719 16.4482L17.4333 16.9317C17.3308 17.1392 17.1329 17.283 16.9039 17.3163L16.3703 17.3938L16.7563 17.7701C16.9221 17.9316 16.9977 18.1643 16.9586 18.3924L16.8674 18.9239L17.3446 18.673C17.5495 18.5653 17.7942 18.5653 17.999 18.673L18.4762 18.9239L18.3851 18.3924C18.346 18.1643 18.4216 17.9316 18.5873 17.7701L18.9733 17.3938L18.4398 17.3163C18.2108 17.283 18.0129 17.1392 17.9105 16.9317Z" fill="white"/>
<path d="M17.6719 11.3438C14.1825 11.3438 11.3438 14.1825 11.3438 17.6719C11.3438 21.1612 14.1825 24 17.6719 24C21.1612 24 24 21.1612 24 17.6719C24 14.1825 21.1612 11.3438 17.6719 11.3438ZM20.9752 17.4063L19.8336 18.519L20.1031 20.0902C20.2016 20.6646 19.5987 21.1026 19.0829 20.8314L17.6719 20.0896L16.2608 20.8314C15.745 21.1026 15.1421 20.6646 15.2407 20.0902L15.5101 18.519L14.3686 17.4062C13.9513 16.9995 14.1816 16.2907 14.7583 16.2069L16.3358 15.9777L17.0414 14.5482C17.2993 14.0256 18.0445 14.0256 18.3024 14.5482L19.0079 15.9777L20.5855 16.2069C21.1622 16.2907 21.3925 16.9995 20.9752 17.4063Z" fill="white"/>
<path d="M6.56671 5.72537L6.32811 5.24194L6.08952 5.72537C5.9871 5.93288 5.78914 6.07669 5.56011 6.10997L5.02658 6.18751L5.4126 6.56377C5.57835 6.7253 5.65396 6.95804 5.61482 7.18613L5.52369 7.71755L6.00088 7.46668C6.20572 7.35901 6.45041 7.35901 6.65525 7.46668L7.13244 7.71755L7.04132 7.18613C7.00222 6.95804 7.07783 6.7253 7.24353 6.56377L7.62955 6.18751L7.09602 6.10997C6.86708 6.07674 6.66913 5.93288 6.56671 5.72537Z" fill="white"/>
<path d="M12.6562 11.0156V1.64062C12.6562 0.735984 11.9203 0 11.0156 0H1.64062C0.735984 0 0 0.735984 0 1.64062V11.0156C0 11.9203 0.735984 12.6562 1.64062 12.6562H11.0156C11.9203 12.6562 12.6562 11.9203 12.6562 11.0156ZM9.63141 6.2002L8.48986 7.31292L8.75934 8.88412C8.85787 9.45853 8.25497 9.89653 7.73916 9.62536L6.32812 8.88352L4.91709 9.62531C4.40128 9.89648 3.79838 9.45848 3.89691 8.88408L4.16639 7.31287L3.02484 6.2002C2.60752 5.79342 2.83781 5.08467 3.41452 5.00091L4.99209 4.77169L5.69761 3.34214C5.95552 2.81953 6.70073 2.81953 6.95864 3.34214L7.66416 4.77169L9.24173 5.00091C9.81844 5.08467 10.0487 5.79342 9.63141 6.2002Z" fill="white"/>
<path d="M14.8125 2.39062H15.75C17.947 2.39062 19.7344 4.17802 19.7344 6.375V7.49002L19.0597 6.8153C18.7851 6.5407 18.3399 6.5407 18.0653 6.8153C17.7907 7.08989 17.7907 7.53506 18.0653 7.80966L19.9403 9.68466C20.2149 9.95925 20.6601 9.95925 20.9347 9.68466L22.8097 7.80966C23.0842 7.53506 23.0842 7.08989 22.8097 6.8153C22.5351 6.5407 22.0899 6.5407 21.8153 6.8153L21.1406 7.49002V6.375C21.1406 3.40261 18.7224 0.984375 15.75 0.984375H14.8125C14.4242 0.984375 14.1094 1.29919 14.1094 1.6875C14.1094 2.07581 14.4242 2.39062 14.8125 2.39062Z" fill="white"/>
<path d="M9.18751 21.6094H8.25001C6.05302 21.6094 4.26563 19.822 4.26563 17.625V16.51L4.94035 17.1847C5.21494 17.4593 5.66012 17.4593 5.93471 17.1847C6.2093 16.9101 6.2093 16.4649 5.93471 16.1903L4.05971 14.3153C3.78512 14.0407 3.33994 14.0407 3.06535 14.3153L1.19035 16.1903C0.915757 16.4649 0.915757 16.9101 1.19035 17.1847C1.46494 17.4593 1.91012 17.4593 2.18471 17.1847L2.85938 16.51V17.625C2.85938 20.5974 5.27762 23.0156 8.25001 23.0156H9.18751C9.57582 23.0156 9.89063 22.7008 9.89063 22.3125C9.89063 21.9242 9.57582 21.6094 9.18751 21.6094Z" fill="white"/>
</svg>
