<svg width="24" height="24" viewBox="0 0 24 24" fill="none" xmlns="http://www.w3.org/2000/svg">
<g clip-path="url(#clip0_115_32642)">
<path d="M16.2656 11.3438H0.703125C0.314484 11.3438 0 11.6582 0 12.0469V21.8906C0 23.0538 0.946219 24 2.10938 24H14.8594C16.0225 24 16.9688 23.0538 16.9688 21.8906V12.0469C16.9688 11.6582 16.6543 11.3438 16.2656 11.3438ZM12.6562 15.5625C12.6562 17.8889 10.7639 19.7812 8.4375 19.7812C6.11114 19.7812 4.21875 17.8889 4.21875 15.5625V14.8594C4.21875 14.4707 4.53323 14.1562 4.92188 14.1562C5.31052 14.1562 5.625 14.4707 5.625 14.8594V15.5625C5.625 17.1136 6.88636 18.375 8.4375 18.375C9.98864 18.375 11.25 17.1136 11.25 15.5625V14.8594C11.25 14.4707 11.5645 14.1562 11.9531 14.1562C12.3418 14.1562 12.6562 14.4707 12.6562 14.8594V15.5625Z" fill="white"/>
<path d="M23.2969 5.71875H19.6875V4.21875C19.6875 1.89239 17.7951 0 15.4688 0C13.1424 0 11.25 1.89239 11.25 4.21875V5.71875H7.64062C7.25198 5.71875 6.9375 6.03323 6.9375 6.42188V9.9375H16.2656C17.4288 9.9375 18.375 10.8837 18.375 12.0469V21.8906C18.375 22.6851 18.1001 23.4106 17.6539 24H21.8906C23.0538 24 24 23.0538 24 21.8906V6.42188C24 6.03323 23.6855 5.71875 23.2969 5.71875ZM18.2812 5.71875H12.6562V4.21875C12.6562 2.66761 13.9176 1.40625 15.4688 1.40625C17.0199 1.40625 18.2812 2.66761 18.2812 4.21875V5.71875Z" fill="white"/>
</g>
<defs>
<clipPath id="clip0_115_32642">
<rect width="24" height="24" fill="white"/>
</clipPath>
</defs>
</svg>
