<svg width="24" height="24" viewBox="0 0 24 24" fill="none" xmlns="http://www.w3.org/2000/svg">
<path d="M16 8V3.5C15.9988 3.10254 15.8404 2.7217 15.5594 2.44065C15.2783 2.1596 14.8975 2.00119 14.5 2H3.5C3.10254 2.00119 2.7217 2.1596 2.44065 2.44065C2.1596 2.7217 2.00119 3.10254 2 3.5V18.5H11.5C11.6326 18.5 11.7598 18.5527 11.8536 18.6464C11.9473 18.7402 12 18.8674 12 19C12 19.1326 11.9473 19.2598 11.8536 19.3536C11.7598 19.4473 11.6326 19.5 11.5 19.5H2V20.5C2.00119 20.8975 2.1596 21.2783 2.44065 21.5593C2.7217 21.8404 3.10254 21.9988 3.5 22H14.5C14.8975 21.9988 15.2783 21.8404 15.5594 21.5593C15.8404 21.2783 15.9988 20.8975 16 20.5V16H9.5V8H16ZM8 4.5C7.86739 4.5 7.74022 4.44732 7.64645 4.35355C7.55268 4.25979 7.5 4.13261 7.5 4C7.5 3.86739 7.55268 3.74021 7.64645 3.64645C7.74022 3.55268 7.86739 3.5 8 3.5H10C10.1326 3.5 10.2598 3.55268 10.3536 3.64645C10.4473 3.74021 10.5 3.86739 10.5 4C10.5 4.13261 10.4473 4.25979 10.3536 4.35355C10.2598 4.44732 10.1326 4.5 10 4.5H8Z" fill="#16426B"/>
<path d="M22.025 12C22.0244 11.7271 21.9688 11.4571 21.8614 11.2063C21.754 10.9554 21.597 10.7288 21.4 10.54C21.2847 10.4427 21.1916 10.3219 21.1269 10.1856C21.0622 10.0494 21.0275 9.90082 21.025 9.75C21.0179 9.58336 21.0596 9.41827 21.145 9.275C21.2821 9.04776 21.3565 8.78822 21.3605 8.52284C21.3646 8.25747 21.2982 7.99577 21.168 7.76447C21.0379 7.53316 20.8487 7.34052 20.6198 7.20622C20.3909 7.07192 20.1304 7.00076 19.865 7H9C8.86739 7 8.74021 7.05268 8.64645 7.14645C8.55268 7.24021 8.5 7.36739 8.5 7.5V16.5C8.5 16.6326 8.55268 16.7598 8.64645 16.8536C8.74021 16.9473 8.86739 17 9 17H19.865C20.1308 17.0001 20.3919 16.9296 20.6215 16.7957C20.8511 16.6617 21.041 16.4692 21.1718 16.2377C21.3025 16.0062 21.3694 15.7442 21.3656 15.4784C21.3617 15.2126 21.2873 14.9526 21.15 14.725C21.0609 14.5831 21.0173 14.4174 21.025 14.25C21.0269 14.0984 21.0614 13.9489 21.1261 13.8118C21.1908 13.6746 21.2842 13.5529 21.4 13.455C21.597 13.2673 21.754 13.0415 21.8614 12.7915C21.9688 12.5414 22.0245 12.2722 22.025 12ZM20.65 12.79C20.453 12.9788 20.296 13.2054 20.1886 13.4563C20.0812 13.7071 20.0256 13.9771 20.025 14.25C20.0199 14.6004 20.1134 14.9452 20.295 15.245C20.3417 15.3198 20.367 15.4061 20.3678 15.4943C20.3687 15.5825 20.3452 15.6693 20.3 15.745C20.2578 15.8232 20.1949 15.8884 20.1182 15.9333C20.0415 15.9783 19.9539 16.0013 19.865 16H9.5V8H19.865C19.9536 8.00015 20.0406 8.02384 20.117 8.06865C20.1934 8.11346 20.2566 8.17777 20.3 8.255C20.3429 8.33171 20.3646 8.41847 20.3629 8.50636C20.3611 8.59424 20.336 8.68007 20.29 8.755C20.1093 9.05491 20.0174 9.39994 20.025 9.75C20.0261 10.0221 20.082 10.2911 20.1894 10.5411C20.2968 10.7911 20.4534 11.0169 20.65 11.205C20.7672 11.3011 20.8616 11.4221 20.9265 11.5591C20.9913 11.6962 21.0249 11.8459 21.0249 11.9975C21.0249 12.1491 20.9913 12.2988 20.9265 12.4359C20.8616 12.5729 20.7672 12.6939 20.65 12.79Z" fill="black"/>
<path d="M14.5 8.5C13.8078 8.5 13.1311 8.70527 12.5555 9.08986C11.9799 9.47444 11.5313 10.0211 11.2664 10.6606C11.0015 11.3001 10.9322 12.0039 11.0673 12.6828C11.2023 13.3618 11.5356 13.9854 12.0251 14.4749C12.5146 14.9644 13.1382 15.2977 13.8172 15.4327C14.4961 15.5678 15.1999 15.4985 15.8394 15.2336C16.4789 14.9687 17.0256 14.5201 17.4101 13.9445C17.7947 13.3689 18 12.6922 18 12C17.9989 11.0721 17.6299 10.1824 16.9737 9.5263C16.3176 8.87015 15.4279 8.50106 14.5 8.5ZM16.355 11.355L14.355 13.355C14.2602 13.448 14.1328 13.5 14 13.5C13.8672 13.5 13.7398 13.448 13.645 13.355L12.645 12.355C12.5508 12.2608 12.498 12.1332 12.498 12C12.498 11.8668 12.5508 11.7392 12.645 11.645C12.7392 11.5508 12.8668 11.498 13 11.498C13.1332 11.498 13.2608 11.5508 13.355 11.645L14 12.295L15.645 10.645C15.7392 10.5508 15.8668 10.498 16 10.498C16.1332 10.498 16.2608 10.5508 16.355 10.645C16.4492 10.7392 16.502 10.8668 16.502 11C16.502 11.1332 16.4492 11.2608 16.355 11.355Z" fill="black"/>
<path d="M9 17.5C8.86739 17.5 8.74021 17.4473 8.64645 17.3536C8.55268 17.2598 8.5 17.1326 8.5 17V7C8.5 6.86739 8.55268 6.74021 8.64645 6.64645C8.74021 6.55268 8.86739 6.5 9 6.5C9.13261 6.5 9.25979 6.55268 9.35355 6.64645C9.44732 6.74021 9.5 6.86739 9.5 7V17C9.5 17.1326 9.44732 17.2598 9.35355 17.3536C9.25979 17.4473 9.13261 17.5 9 17.5Z" fill="black"/>
</svg>
