<svg width="158" height="20" viewBox="0 0 158 20" fill="none" xmlns="http://www.w3.org/2000/svg">
<path fill-rule="evenodd" clip-rule="evenodd" d="M20.2995 1.58192C18.3786 0.677966 15.5538 0 12.6159 0C5.72326 0 0.864502 4.0678 0.864502 10.0565C0.864502 15.8192 5.72326 20 12.5029 20C15.6668 20 19.2826 18.8701 20.7515 17.4011V9.37853H13.0679V12.9944H15.8928V15.2542C14.4238 15.8192 13.8589 15.9322 12.6159 15.9322C8.54812 15.9322 5.83625 13.6723 5.83625 10.1695C5.83625 7.34463 7.75716 4.0678 13.0679 4.0678C15.4408 4.0678 17.8137 4.63277 20.2995 5.87571V1.58192ZM28.6611 6.55367H24.5933V19.774H28.6611V6.55367ZM26.6272 0C25.3843 0 24.3673 1.01695 24.3673 2.25989C24.3673 3.50282 25.3843 4.51977 26.6272 4.51977C27.8702 4.51977 28.8871 3.50282 28.8871 2.25989C28.8871 1.01695 27.8702 0 26.6272 0ZM36.4577 6.55367H32.2769V19.774H36.4577V6.55367ZM34.4238 0C33.0679 0 32.0509 1.01695 32.0509 2.25989C32.0509 3.50282 33.0679 4.51977 34.4238 4.51977C35.6668 4.51977 36.6837 3.50282 36.6837 2.25989C36.6837 1.01695 35.6668 0 34.4238 0ZM44.7063 6.55367V5.76271C44.7063 3.9548 45.7233 3.38983 46.9662 3.38983C47.4182 3.38983 47.7572 3.50282 48.8871 3.61582V0.225989C48.2091 0.225989 47.1922 0 46.4012 0C43.0114 0 40.5255 2.0339 40.5255 5.87571V6.55367H38.7176V9.37853H40.5255V19.774H44.7063V9.37853H46.6272V6.55367H44.7063ZM58.0396 6.55367H53.2939V2.48588H52.7289L47.1922 8.58757V9.37853H49.1131V15.0282C49.1131 18.7571 51.486 20 54.1978 20C55.5538 20 56.5707 19.774 58.0396 19.209V16.1582C56.9097 16.7232 56.1187 16.9492 55.3278 16.9492C53.9718 16.9492 53.2939 16.1582 53.2939 14.8023V9.37853H58.0396V6.55367Z" fill="#035BFF"/>
<path fill-rule="evenodd" clip-rule="evenodd" d="M60.7515 0.226074V19.7741H63.4634V11.2995H64.7063C66.0623 11.2995 67.3052 11.7515 69.9041 15.7063L72.3899 19.7741H75.7798C74.4238 17.8532 73.9719 17.2882 73.0679 15.9323C71.599 13.4464 70.582 11.6385 68.7741 10.5086C70.808 9.7176 72.051 8.02268 72.051 5.7628C72.051 2.37297 69.5651 0.226074 65.6103 0.226074H60.7515ZM63.4634 2.71195H65.2713C67.9832 2.71195 69.1131 3.7289 69.1131 5.6498C69.1131 7.23172 68.3221 8.81364 65.2713 8.81364H63.4634V2.71195ZM88.3221 16.0453C86.8532 17.0622 85.3843 17.6272 83.8024 17.6272C81.3165 17.6272 79.8476 16.2713 79.5086 13.6724H88.5481C88.5481 8.92664 86.4012 6.66675 82.8984 6.66675C79.3956 6.66675 76.9097 9.26562 76.9097 13.2204C76.9097 16.7232 79.1696 20.0001 83.1244 20.0001C85.3843 20.0001 86.7402 19.5481 88.3221 18.5312V16.0453ZM79.5086 12.0905C79.8476 10.0566 81.0905 8.81364 83.0114 8.81364C84.8193 8.81364 85.9493 10.0566 85.9493 12.0905H79.5086ZM100.3 6.89274H98.3786L95.1018 14.6894L91.712 6.89274H89.0001L94.7628 20.0001H95.5538L99.2826 11.0735L103.124 20.0001H103.915L109.565 6.89274H106.853L103.576 14.6894L100.3 6.89274ZM121.317 17.5142C120.752 17.8532 120.3 18.1922 119.961 18.1922C119.735 18.1922 119.509 17.9662 119.509 17.5142V10.8475C119.509 8.02268 117.475 6.66675 114.876 6.66675C112.955 6.66675 111.599 7.23172 110.582 8.36167V11.1865C111.825 9.7176 113.294 9.03963 114.65 9.03963C116.232 9.03963 117.023 9.7176 117.023 11.2995V11.9775L114.763 12.7684C112.616 13.5594 110.356 14.3504 110.356 16.8362C110.356 18.5312 111.599 20.0001 113.52 20.0001C114.65 20.0001 115.78 19.5481 116.91 18.6442C117.136 19.6611 117.814 20.0001 118.831 20.0001C119.735 20.0001 120.187 19.7741 121.317 18.9831V17.5142ZM117.023 17.1752C116.232 17.8532 115.554 18.1922 114.763 18.1922C113.633 18.1922 112.955 17.5142 112.955 16.3843C112.955 14.9153 114.763 14.1244 117.023 13.4464V17.1752ZM123.802 6.89274V19.7741H126.288V12.9944C126.288 10.8475 127.644 9.03963 129.452 9.03963C130.017 9.03963 131.034 9.60461 131.825 10.3956L133.181 8.13568C132.051 7.11873 131.147 6.66675 130.13 6.66675C128.887 6.66675 127.644 7.57071 126.401 9.83059H126.288V6.89274H123.802ZM145.61 0.226074H143.011V7.23172C141.994 6.77975 141.204 6.66675 140.3 6.66675C136.571 6.66675 133.972 9.26562 133.972 12.9944C133.972 17.1752 136.345 19.7741 140.187 19.7741H145.61V0.226074ZM143.011 17.6272H140.413C137.475 17.6272 136.571 15.8193 136.571 13.4464C136.571 10.7345 138.266 8.92664 140.639 8.92664C141.542 8.92664 142.22 9.03963 143.011 9.37862V17.6272ZM156.571 7.6837C155.215 7.00574 153.972 6.66675 152.729 6.66675C150.243 6.66675 148.548 8.02268 148.548 10.1696C148.548 13.6724 154.537 14.5764 154.537 16.3843C154.537 17.2882 153.633 17.7402 152.616 17.7402C151.599 17.7402 150.13 17.2882 148.435 16.1583V18.8701C150.13 19.6611 151.373 20.0001 152.955 20.0001C155.328 20.0001 157.136 18.5312 157.136 16.2713C157.136 14.9153 156.345 14.0114 154.198 12.6555C151.938 11.2995 151.147 10.6216 151.147 10.0566C151.147 9.37862 151.825 8.92664 152.842 8.92664C153.746 8.92664 155.102 9.26562 156.571 10.2826V7.6837Z" fill="black"/>
</svg>
