<svg width="18" height="18" viewBox="0 0 18 18" fill="none" xmlns="http://www.w3.org/2000/svg">
<path d="M8.58333 9.20329C11.1146 9.20329 13.1667 7.15126 13.1667 4.61995C13.1667 2.08865 11.1146 0.0366211 8.58333 0.0366211C6.05203 0.0366211 4 2.08865 4 4.61995C4 7.15126 6.05203 9.20329 8.58333 9.20329Z" fill="#5979A7"/>
<path fill-rule="evenodd" clip-rule="evenodd" d="M9.77079 17.13C8.90496 16.2 8.37496 14.9533 8.37496 13.5833C8.37496 12.1808 8.93079 10.9066 9.83413 9.96996C9.42579 9.9383 9.00829 9.92163 8.58329 9.92163C5.81496 9.92163 3.36413 10.6141 1.84246 11.6516C0.681626 12.4433 0.041626 13.4491 0.041626 14.505V15.7133C0.041626 16.0891 0.190793 16.45 0.456626 16.715C0.722459 16.9808 1.08246 17.13 1.45829 17.13H9.77079Z" fill="#5979A7"/>
<path fill-rule="evenodd" clip-rule="evenodd" d="M13.5833 9.20825C11.1683 9.20825 9.20825 11.1683 9.20825 13.5833C9.20825 15.9983 11.1683 17.9583 13.5833 17.9583C15.9983 17.9583 17.9583 15.9983 17.9583 13.5833C17.9583 11.1683 15.9983 9.20825 13.5833 9.20825ZM12.9583 13.5833V15.6666C12.9583 16.0116 13.2383 16.2916 13.5833 16.2916C13.9283 16.2916 14.2083 16.0116 14.2083 15.6666V13.5833C14.2083 13.2383 13.9283 12.9583 13.5833 12.9583C13.2383 12.9583 12.9583 13.2383 12.9583 13.5833ZM13.5833 10.8749C14.0433 10.8749 14.4166 11.2483 14.4166 11.7083C14.4166 12.1683 14.0433 12.5416 13.5833 12.5416C13.1233 12.5416 12.7499 12.1683 12.7499 11.7083C12.7499 11.2483 13.1233 10.8749 13.5833 10.8749Z" fill="#5979A7"/>
</svg>
