<svg width="17" height="20" viewBox="0 0 17 20" fill="none" xmlns="http://www.w3.org/2000/svg">
<path fill-rule="evenodd" clip-rule="evenodd" d="M16.279 1.6279V19.3022C16.279 19.5608 16.1357 19.798 15.9069 19.9189C15.678 20.0399 15.4018 20.0241 15.1878 19.878L12.8669 18.2938L10.6725 19.8687C10.4092 20.0585 10.0502 20.0408 9.80645 19.8269L8.13948 18.3692L6.47252 19.8269C6.2288 20.0408 5.86973 20.0585 5.60648 19.8687L3.41207 18.2938L1.09116 19.878C0.877204 20.0241 0.600927 20.0399 0.372091 19.9189C0.143255 19.798 0 19.5608 0 19.3022V1.6279C0 0.729298 0.728368 0 1.6279 0H14.6511C15.5506 0 16.279 0.729298 16.279 1.6279ZM4.41858 8.83715H11.8604C12.2455 8.83715 12.5581 8.5246 12.5581 8.13948C12.5581 7.75437 12.2455 7.44181 11.8604 7.44181H4.41858C4.03346 7.44181 3.72091 7.75437 3.72091 8.13948C3.72091 8.5246 4.03346 8.83715 4.41858 8.83715ZM4.41858 5.11625H11.8604C12.2455 5.11625 12.5581 4.80369 12.5581 4.41858C12.5581 4.03346 12.2455 3.72091 11.8604 3.72091H4.41858C4.03346 3.72091 3.72091 4.03346 3.72091 4.41858C3.72091 4.80369 4.03346 5.11625 4.41858 5.11625ZM4.41858 12.5581H8.13948C8.5246 12.5581 8.83715 12.2455 8.83715 11.8604C8.83715 11.4753 8.5246 11.1627 8.13948 11.1627H4.41858C4.03346 11.1627 3.72091 11.4753 3.72091 11.8604C3.72091 12.2455 4.03346 12.5581 4.41858 12.5581Z" fill="#5979A7"/>
</svg>
