<svg width="20" height="20" viewBox="0 0 20 20" fill="none" xmlns="http://www.w3.org/2000/svg">
<g clip-path="url(#clip0_4518_11696)">
<g clip-path="url(#clip1_4518_11696)">
<path d="M18.9333 3.05C19.0833 2.76665 19.1667 2.43335 19.1667 2.08335C19.1667 0.933346 18.2333 0 17.0833 0C15.9333 0 15 0.933346 15 2.08335C15 3.23335 15.9333 4.16669 17.0833 4.16669C17.4333 4.16669 17.7667 4.08335 18.05 3.93335L18.9333 4.81669C19.055 4.93921 19.215 5.00004 19.375 5.00004C19.535 5.00004 19.695 4.93921 19.8167 4.81669C20.0608 4.57252 20.0608 4.17669 19.8167 3.93252L18.9333 3.05ZM16.25 2.08335C16.25 1.625 16.625 1.25 17.0833 1.25C17.5417 1.25 17.9167 1.625 17.9167 2.08335C17.9167 2.54169 17.5417 2.91669 17.0833 2.91669C16.625 2.91665 16.25 2.54165 16.25 2.08335Z" fill="#5979A7"/>
<path d="M1.45835 5H11.875C12.675 5 13.3333 4.34165 13.3333 3.54165V1.45835C13.3333 0.658346 12.675 0 11.875 0H1.45835C0.658346 0 0 0.658346 0 1.45835V3.54169C0 4.34165 0.658346 5 1.45835 5Z" fill="#5979A7"/>
<path d="M18.5416 6.66675H8.12497C7.32497 6.66675 6.66663 7.32509 6.66663 8.12509V18.5417C6.66663 19.3417 7.32497 20.0001 8.12497 20.0001H18.5416C19.3416 20.0001 20 19.3417 20 18.5417V8.12509C20 7.32509 19.3416 6.66675 18.5416 6.66675ZM13.3333 10.0001C14.025 10.0001 14.5833 10.5584 14.5833 11.2501C14.5833 11.9417 14.025 12.5001 13.3333 12.5001C12.6417 12.5001 12.0833 11.9417 12.0833 11.2501C12.0833 10.5584 12.6416 10.0001 13.3333 10.0001ZM15.8333 15.2084C15.8333 15.5501 15.55 15.8334 15.2083 15.8334H11.4583C11.1167 15.8334 10.8333 15.5501 10.8333 15.2084V14.9001C10.8333 14.0334 11.6167 13.3334 12.5833 13.3334H14.0833C15.05 13.3334 15.8333 14.0334 15.8333 14.9001V15.2084Z" fill="#5979A7"/>
<path d="M2.5 19.5833C3.88071 19.5833 5 18.464 5 17.0833C5 15.7025 3.88071 14.5833 2.5 14.5833C1.11929 14.5833 0 15.7025 0 17.0833C0 18.464 1.11929 19.5833 2.5 19.5833Z" fill="#5979A7"/>
<path d="M0.625 10.4167H4.375C4.72 10.4167 5 10.1367 5 9.79175C5 9.44675 4.72 9.16675 4.375 9.16675H0.625C0.28 9.16675 0 9.44675 0 9.79175C0 10.1367 0.28 10.4167 0.625 10.4167Z" fill="#5979A7"/>
<path d="M0.625 12.9167H4.375C4.72 12.9167 5 12.6367 5 12.2917C5 11.9467 4.72 11.6667 4.375 11.6667H0.625C0.28 11.6667 0 11.9467 0 12.2917C0 12.6367 0.28 12.9167 0.625 12.9167Z" fill="#5979A7"/>
<path d="M0.625 7.91675H4.375C4.72 7.91675 5 7.63675 5 7.29175C5 6.94675 4.72 6.66675 4.375 6.66675H0.625C0.28 6.66675 0 6.94675 0 7.29175C0 7.63675 0.28 7.91675 0.625 7.91675Z" fill="#5979A7"/>
</g>
</g>
<defs>
<clipPath id="clip0_4518_11696">
<rect width="20" height="20" fill="white"/>
</clipPath>
<clipPath id="clip1_4518_11696">
<rect width="20" height="20" fill="white"/>
</clipPath>
</defs>
</svg>
