<svg width="20" height="20" viewBox="0 0 20 20" fill="none" xmlns="http://www.w3.org/2000/svg">
<path d="M4.14557 5.18202C4.29475 5.33569 4.36171 5.55124 4.32593 5.76238L4.01331 7.65711C3.9628 7.89208 4.05167 8.13516 4.24178 8.28216C4.4319 8.42915 4.68952 8.45396 4.90421 8.34591L6.56387 7.43852C6.74039 7.34133 6.95438 7.34133 7.1309 7.43852L8.79127 8.34591C9.00591 8.45396 9.26357 8.42915 9.45369 8.28216C9.64381 8.13516 9.73268 7.89208 9.68217 7.65711L9.36955 5.76238C9.33377 5.55124 9.40072 5.33569 9.5499 5.18202L10.8678 3.84623C11.0391 3.67369 11.1016 3.421 11.0306 3.1885C10.9596 2.95599 10.7666 2.78134 10.5282 2.73392L8.69095 2.45603C8.48759 2.42345 8.31376 2.29197 8.22708 2.10517L7.3986 0.35883C7.30204 0.140704 7.0859 0 6.84735 0C6.60879 0 6.39266 0.140704 6.29613 0.35883L5.46769 2.10517C5.38101 2.29197 5.20718 2.42349 5.00382 2.45603L3.16662 2.73357C2.92818 2.78099 2.73514 2.95564 2.66416 3.18814C2.59318 3.42064 2.65572 3.67334 2.82697 3.84588L4.14557 5.18202Z" fill="#5979A7"/>
<path d="M14.0428 3.72457C14.1298 3.81426 14.1689 3.94 14.1481 4.06316L13.9656 5.16879C13.9363 5.30582 13.9881 5.44754 14.099 5.53324C14.2098 5.61895 14.3601 5.63348 14.4853 5.57055L15.4537 5.04141C15.5568 4.98461 15.6818 4.98461 15.7849 5.04141L16.7534 5.57055C16.8786 5.63348 17.0288 5.61895 17.1397 5.53324C17.2505 5.44754 17.3024 5.30582 17.273 5.16879L17.0906 4.06316C17.0698 3.93996 17.1089 3.81426 17.1958 3.72457L17.9646 2.94738C18.064 2.84648 18.1001 2.69926 18.0588 2.56379C18.0174 2.42832 17.9052 2.32641 17.7663 2.29824L16.6948 2.13648C16.5759 2.11742 16.4744 2.04027 16.4243 1.93086L15.9407 0.912266C15.8848 0.784609 15.7587 0.702148 15.6193 0.702148C15.48 0.702148 15.3538 0.784609 15.2979 0.912266L14.8144 1.9298C14.7643 2.03922 14.6627 2.11637 14.5439 2.13543L13.4723 2.29719C13.3336 2.32535 13.2213 2.42727 13.1799 2.56273C13.1386 2.6982 13.1747 2.84543 13.2741 2.94633L14.0428 3.72457Z" fill="#5979A7"/>
<path d="M8.2649 10.431C8.10416 10.4571 7.97283 10.5735 7.92771 10.73C7.86681 10.9032 7.90904 11.096 8.03685 11.2279L9.68354 12.8987C9.94753 13.1709 10.0678 13.5516 10.0081 13.9261L9.93198 14.3788C10.0879 14.4629 10.2353 14.5619 10.3723 14.6742C10.4303 14.7181 10.5017 14.7407 10.5744 14.7381H14.1492C14.6268 14.7344 15.0767 14.9618 15.3569 15.3486L15.7917 14.9822L15.6162 13.9261C15.5557 13.551 15.6759 13.1693 15.9405 12.8966L17.5871 11.2278C17.7149 11.0961 17.7574 10.9036 17.697 10.7303C17.6519 10.5743 17.5211 10.4581 17.3609 10.4317L15.0651 10.0843C14.6972 10.0245 14.3818 9.78865 14.2205 9.45275L13.1833 7.26535C13.1221 7.11438 12.9755 7.01562 12.8126 7.01562C12.6497 7.01562 12.5031 7.11441 12.4419 7.26535L11.4064 9.44818C11.2453 9.78568 10.9292 10.0229 10.5601 10.0833L8.2649 10.431Z" fill="#5979A7"/>
<path d="M5.72695 20L6.77957 19.5769C7.2368 19.3926 7.7252 19.298 8.21817 19.2983H14.5568C14.815 19.2888 15.0597 19.1806 15.2403 18.9958L19.6193 14.5376C19.8711 14.2758 19.8871 13.8669 19.6565 13.5863C19.5363 13.4422 19.3637 13.3518 19.1767 13.3351C18.9898 13.3184 18.8039 13.3767 18.66 13.4972L15.6074 16.0527V16.0681C15.6272 16.4522 15.4885 16.8275 15.2238 17.1065C14.9591 17.3854 14.5915 17.5435 14.207 17.5439H10.3473C10.1535 17.5439 9.99646 17.3868 9.99646 17.193C9.99646 16.9993 10.1536 16.8422 10.3473 16.8422H14.207C14.3993 16.8424 14.5834 16.7637 14.7161 16.6244C14.8487 16.4851 14.9184 16.2974 14.9088 16.1053C14.907 16.0763 14.9035 16.0473 14.8983 16.0187C14.8927 16.0017 14.8886 15.9843 14.886 15.9667C14.783 15.6482 14.4838 15.4346 14.1491 15.4404H10.5744C10.3385 15.4431 10.1091 15.3637 9.92525 15.2158C9.55084 14.9048 9.07868 14.7358 8.59192 14.7386C7.30242 14.7386 5.27155 15.0544 2.53294 17.7937C1.93294 18.393 0.580666 19.4941 0.180664 19.8173V20.0001L5.72695 20Z" fill="#5979A7"/>
</svg>
