<svg width="20" height="20" viewBox="0 0 20 20" fill="none" xmlns="http://www.w3.org/2000/svg">
<path d="M13.125 4.375H1.875C1.37817 4.37645 0.902094 4.57446 0.550778 4.92578C0.199461 5.27709 0.00145101 5.75317 0 6.25L0 15.625C0.00102397 16.0126 0.121617 16.3905 0.345326 16.707C0.569034 17.0236 0.884961 17.2634 1.25 17.3938V19.375C1.2506 19.4927 1.28433 19.6079 1.34733 19.7074C1.41033 19.8069 1.50006 19.8866 1.60625 19.9375C1.68932 19.9801 1.78164 20.0016 1.875 20C2.01632 20.0012 2.15353 19.9525 2.2625 19.8625L5.21875 17.5H13.125C13.6218 17.4985 14.0979 17.3005 14.4492 16.9492C14.8005 16.5979 14.9985 16.1218 15 15.625V6.25C14.9985 5.75317 14.8005 5.27709 14.4492 4.92578C14.0979 4.57446 13.6218 4.37645 13.125 4.375ZM7.5 15C7.37639 15 7.25555 14.9633 7.15277 14.8947C7.04999 14.826 6.96988 14.7284 6.92257 14.6142C6.87527 14.5 6.86289 14.3743 6.88701 14.2531C6.91112 14.1318 6.97065 14.0205 7.05806 13.9331C7.14547 13.8456 7.25683 13.7861 7.37807 13.762C7.49931 13.7379 7.62497 13.7503 7.73918 13.7976C7.85338 13.8449 7.95099 13.925 8.01967 14.0278C8.08834 14.1305 8.125 14.2514 8.125 14.375C8.12452 14.5406 8.05852 14.6993 7.94141 14.8164C7.82431 14.9335 7.66561 14.9995 7.5 15ZM8.6625 11.375C8.48914 11.4729 8.34433 11.6143 8.24239 11.7853C8.14044 11.9563 8.0849 12.151 8.08125 12.35V12.4125C8.08125 12.5783 8.0154 12.7372 7.89819 12.8544C7.78098 12.9717 7.62201 13.0375 7.45625 13.0375C7.29049 13.0375 7.13152 12.9717 7.01431 12.8544C6.8971 12.7372 6.83125 12.5783 6.83125 12.4125V12.35C6.83373 11.9315 6.94655 11.521 7.15834 11.1599C7.37012 10.7989 7.67337 10.5001 8.0375 10.2937C8.19247 10.2053 8.32501 10.0824 8.42485 9.93453C8.52469 9.78666 8.58915 9.61778 8.61324 9.44099C8.63733 9.26419 8.6204 9.08423 8.56376 8.91503C8.50712 8.74583 8.41229 8.59194 8.28662 8.46528C8.16096 8.33862 8.00782 8.24258 7.83907 8.18461C7.67032 8.12664 7.4905 8.1083 7.31352 8.13099C7.13654 8.15369 6.96716 8.21681 6.8185 8.31549C6.66984 8.41416 6.54589 8.54573 6.45625 8.7C6.41197 8.7749 6.37633 8.85457 6.35 8.9375C6.30027 9.0958 6.1897 9.22786 6.0426 9.30464C5.8955 9.38141 5.72393 9.3966 5.56562 9.34688C5.40732 9.29715 5.27526 9.18657 5.19849 9.03947C5.12172 8.89237 5.10652 8.7208 5.15625 8.5625C5.21247 8.39301 5.28576 8.22967 5.375 8.075C5.63635 7.62785 6.03404 7.27616 6.5098 7.07146C6.98556 6.86676 7.51437 6.81981 8.01875 6.9375C8.45392 7.03874 8.85203 7.25985 9.16796 7.57578C9.4839 7.89172 9.70501 8.28983 9.80625 8.725C9.92548 9.23097 9.87863 9.76189 9.67264 10.2392C9.46665 10.7164 9.11246 11.1147 8.6625 11.375Z" fill="#5979A7"/>
<path d="M20 1.875V11.25C19.999 11.6376 19.8784 12.0155 19.6547 12.332C19.431 12.6486 19.115 12.8884 18.75 13.0188V15C18.7494 15.1177 18.7157 15.2329 18.6527 15.3324C18.5897 15.4319 18.4999 15.5116 18.3938 15.5625C18.3107 15.6051 18.2184 15.6266 18.125 15.625C17.9837 15.6262 17.8465 15.5775 17.7375 15.4875L16.25 14.3V6.25C16.2497 5.42129 15.9204 4.62661 15.3344 4.04062C14.7484 3.45463 13.9537 3.1253 13.125 3.125H5V1.875C5.00145 1.37817 5.19946 0.902094 5.55078 0.550778C5.90209 0.199461 6.37817 0.00145101 6.875 0L18.125 0C18.6218 0.00145101 19.0979 0.199461 19.4492 0.550778C19.8005 0.902094 19.9985 1.37817 20 1.875Z" fill="#5979A7"/>
</svg>
