<svg width="20" height="20" viewBox="0 0 20 20" fill="none" xmlns="http://www.w3.org/2000/svg">
<g clip-path="url(#clip0_4518_11710)">
<path d="M17.9192 16.4927L17.0261 5.23845C16.9707 4.51333 16.3572 3.94556 15.6301 3.94556H13.8659V6.5595C13.8659 6.88321 13.6039 7.14524 13.2802 7.14524C12.9569 7.14524 12.6944 6.88321 12.6944 6.5595V3.94556H7.30572V6.5595C7.30572 6.88321 7.0433 7.14524 6.71998 7.14524C6.39627 7.14524 6.13424 6.88321 6.13424 6.5595V3.94556H4.37002C3.64295 3.94556 3.02947 4.51333 2.97404 5.23689L2.08061 16.4943C2.0115 17.3959 2.32428 18.2933 2.9385 18.9563C3.55275 19.6193 4.42354 20 5.32752 20H14.6727C15.5767 20 16.4474 19.6193 17.0617 18.9563C17.6759 18.2932 17.9887 17.3959 17.9192 16.4927ZM12.639 10.7615L9.60959 13.7909C9.49518 13.9053 9.34522 13.9627 9.19529 13.9627C9.04533 13.9627 8.89541 13.9053 8.781 13.7909L7.36119 12.3711C7.13236 12.1423 7.13236 11.7717 7.36119 11.5429C7.59002 11.314 7.961 11.314 8.18943 11.5429L9.19533 12.5484L11.8108 9.9329C12.0392 9.70446 12.4102 9.70446 12.639 9.9329C12.8678 10.1617 12.8678 10.5327 12.639 10.7615Z" fill="#5979A7"/>
<path d="M10.0001 0C7.86842 0 6.13428 1.73453 6.13428 3.86621V3.94547H7.30576V3.86621C7.30576 2.38039 8.51432 1.17145 10.0001 1.17145C11.486 1.17145 12.6945 2.38039 12.6945 3.86621V3.94547H13.866V3.86621C13.8659 1.73453 12.1318 0 10.0001 0Z" fill="#5979A7"/>
</g>
<defs>
<clipPath id="clip0_4518_11710">
<rect width="20" height="20" fill="white"/>
</clipPath>
</defs>
</svg>
