<svg width="20" height="20" viewBox="0 0 20 20" fill="none" xmlns="http://www.w3.org/2000/svg">
<g clip-path="url(#clip0_4518_11790)">
<path d="M11.875 0H2.29167C1.025 0 0 1.025 0 2.29167V15.2083C0 16.475 1.025 17.5 2.29167 17.5H9.08333C8.38333 16.3917 7.91667 15.0833 7.91667 13.5833V11.55C7.79167 11.625 7.65 11.6667 7.5 11.6667H3.33333C2.875 11.6667 2.5 11.2917 2.5 10.8333C2.5 10.375 2.875 10 3.33333 10H7.5C7.65833 10 7.8 10.0417 7.925 10.1167C7.95833 9.40833 8.29167 8.75833 8.81667 8.33333H3.33333C2.875 8.33333 2.5 7.95833 2.5 7.5C2.5 7.04167 2.875 6.66667 3.33333 6.66667H10.8333C11.1833 6.66667 11.4833 6.88333 11.6083 7.19167L13.9833 6.38333C14.0417 6.35833 14.1 6.34167 14.1667 6.33333V2.29167C14.1667 1.025 13.1417 0 11.875 0ZM6.66667 5H3.33333C2.875 5 2.5 4.625 2.5 4.16667C2.5 3.70833 2.875 3.33333 3.33333 3.33333H6.66667C7.125 3.33333 7.5 3.70833 7.5 4.16667C7.5 4.625 7.125 5 6.66667 5Z" fill="#5979A7"/>
<path d="M19.435 9.44921L15.06 7.96088C14.8859 7.90171 14.6967 7.90171 14.5225 7.96088L10.1475 9.44921C9.81002 9.56421 9.58252 9.88171 9.58252 10.2384V13.5867C9.58252 17.8092 14.265 19.8492 14.4642 19.9342C14.5692 19.9784 14.6809 20 14.7917 20C14.9025 20 15.0142 19.9784 15.1184 19.9334C15.3175 19.8484 20 17.8092 20 13.5867V10.2384C20 9.88088 19.7734 9.56421 19.435 9.44921ZM17.75 12.5834L15.25 15.9167C15.105 16.11 14.8842 16.2309 14.6425 16.2475C14.6225 16.2492 14.6025 16.25 14.5834 16.25C14.3625 16.25 14.1509 16.1634 13.9942 16.0059L12.3275 14.3392C12.0017 14.0134 12.0017 13.4867 12.3275 13.1609C12.6534 12.835 13.18 12.835 13.5059 13.1609L14.4934 14.1484L16.4167 11.5834C16.6925 11.2159 17.215 11.14 17.5825 11.4167C17.9517 11.6925 18.0267 12.215 17.75 12.5834Z" fill="#5979A7"/>
</g>
<defs>
<clipPath id="clip0_4518_11790">
<rect width="20" height="20" fill="white"/>
</clipPath>
</defs>
</svg>
