<svg width="20" height="20" viewBox="0 0 20 20" fill="none" xmlns="http://www.w3.org/2000/svg">
<path d="M1.11672 13.1041H7.84991C7.98018 13.1046 8.0995 13.0313 8.15782 12.9148C8.42916 12.3714 9.19222 10.846 9.19222 10.846C9.24624 10.7391 9.24092 10.6118 9.17812 10.5098C9.11535 10.4078 9.00411 10.3457 8.88431 10.3457H2.15108C2.0205 10.3458 1.90118 10.4196 1.84282 10.5364L0.808462 12.6052C0.755068 12.7121 0.76077 12.8389 0.823577 12.9406C0.886345 13.0421 0.997234 13.1041 1.11672 13.1041Z" fill="#5979A7"/>
<path d="M2.41452 20H9.65525V11.4614L8.67982 13.4143C8.56323 13.6479 8.32404 13.795 8.06296 13.7936H2.0697V19.6552C2.0697 19.8456 2.22406 20 2.41452 20Z" fill="#5979A7"/>
<path d="M17.9304 19.6552V13.7936H11.9371C11.6756 13.7947 11.4362 13.6467 11.3203 13.4123L10.3448 11.4614V20H17.5856C17.776 19.9999 17.9304 19.8456 17.9304 19.6552Z" fill="#5979A7"/>
<path d="M17.849 10.3457H11.1158C10.9964 10.3458 10.8855 10.4077 10.8227 10.5093C10.7599 10.6109 10.7542 10.7378 10.8076 10.8446L11.842 12.9134C11.9003 13.0302 12.0197 13.1041 12.1502 13.1041H18.8834C19.0029 13.1041 19.1138 13.0422 19.1766 12.9406C19.2394 12.8389 19.2451 12.7121 19.1917 12.6052L18.1573 10.5364C18.0989 10.4196 17.9796 10.3458 17.849 10.3457Z" fill="#5979A7"/>
<path d="M7.21445 7.8718C7.16481 8.10268 7.25214 8.34156 7.43896 8.486C7.62578 8.63044 7.87896 8.65482 8.08988 8.54865L9.72146 7.65631C9.89492 7.56081 10.1052 7.56081 10.2786 7.65631L11.9102 8.54795C12.1212 8.65411 12.3743 8.62974 12.5611 8.4853C12.7479 8.34086 12.8353 8.10197 12.7856 7.8711L12.4784 6.00919C12.4432 5.80171 12.5091 5.58989 12.6557 5.43889L13.9507 4.12623C14.119 3.95671 14.1804 3.70838 14.1107 3.47992C14.0409 3.25146 13.8512 3.07984 13.6169 3.03324L11.8116 2.76018C11.6118 2.72819 11.4409 2.59894 11.3558 2.41536L10.5417 0.699305C10.4468 0.484949 10.2345 0.34668 10 0.34668C9.76559 0.34668 9.55323 0.48491 9.45835 0.699305L8.64429 2.41536C8.55914 2.59894 8.38829 2.72815 8.18847 2.76018L6.38312 3.03293C6.14884 3.07953 5.95913 3.25115 5.88937 3.47961C5.81961 3.70806 5.88109 3.9564 6.04936 4.12592L7.3451 5.43889C7.49169 5.58989 7.55751 5.80171 7.52231 6.00919L7.21445 7.8718Z" fill="#5979A7"/>
<path d="M2.12108 7.03055C2.19435 7.10593 2.22724 7.2117 2.2097 7.31537L2.05593 8.2463C2.03128 8.36172 2.07503 8.48105 2.16845 8.55319C2.26185 8.62533 2.38836 8.63752 2.49382 8.58455L3.31097 8.13908C3.39772 8.09147 3.50279 8.09147 3.58958 8.13908L4.40537 8.5849C4.51083 8.63791 4.63734 8.62572 4.73073 8.55358C4.82412 8.48144 4.86787 8.36211 4.84326 8.24669L4.68948 7.31576C4.67191 7.21213 4.70483 7.10632 4.77811 7.03094L5.42563 6.37584C5.50988 6.29112 5.5407 6.16691 5.50582 6.05263C5.47094 5.93834 5.37599 5.85253 5.25877 5.82933L4.35608 5.69141C4.25616 5.67543 4.17074 5.61083 4.12817 5.519L3.72129 4.66181C3.67395 4.5544 3.56763 4.48511 3.4503 4.48511C3.33292 4.48511 3.22664 4.5544 3.1793 4.66181L2.77106 5.51865C2.72848 5.61044 2.64306 5.67508 2.54315 5.69106L1.64045 5.82897C1.52324 5.85217 1.42829 5.93799 1.39341 6.05227C1.35853 6.16656 1.3893 6.29077 1.47359 6.37549L2.12108 7.03055Z" fill="#5979A7"/>
<path d="M16.2802 4.66059L15.8734 5.51844C15.8308 5.61023 15.7454 5.67488 15.6454 5.69085L14.7427 5.82877C14.6255 5.85197 14.5306 5.93778 14.4957 6.05207C14.4608 6.16636 14.4916 6.29056 14.5759 6.37528L15.2234 7.03038C15.2967 7.10577 15.3296 7.21154 15.312 7.3152L15.1583 8.24613C15.1336 8.36155 15.1774 8.48088 15.2708 8.55302C15.3642 8.62516 15.4907 8.63735 15.5962 8.58439L16.4133 8.13892C16.5001 8.0913 16.6051 8.0913 16.6919 8.13892L17.5077 8.58474C17.6132 8.63774 17.7397 8.62555 17.8331 8.55341C17.9265 8.48127 17.9702 8.36194 17.9456 8.24653L17.7918 7.31559C17.7742 7.21197 17.8072 7.10616 17.8804 7.03077L18.528 6.37567C18.6122 6.29096 18.643 6.16675 18.6082 6.05246C18.5733 5.93817 18.4783 5.85236 18.3611 5.82916L17.4584 5.69124C17.3585 5.67527 17.2731 5.61066 17.2305 5.51884L16.8236 4.66168C16.7769 4.55337 16.6702 4.48311 16.5523 4.48291C16.4343 4.48264 16.3274 4.55247 16.2802 4.66059Z" fill="#5979A7"/>
<path d="M7.58643 1.38085C7.70626 1.38151 7.81782 1.31991 7.88109 1.21817C7.94437 1.11642 7.9503 0.989123 7.89675 0.881945L7.55194 0.192357C7.46683 0.0219422 7.25966 -0.0472314 7.08921 0.0378783C6.91879 0.122988 6.84962 0.330157 6.93473 0.500611L7.27954 1.1902C7.3377 1.30656 7.45636 1.38026 7.58643 1.38085Z" fill="#5979A7"/>
<path d="M6.45101 1.96966C6.58561 1.83503 6.58561 1.61676 6.45101 1.48213L6.1062 1.13731C5.9709 1.00666 5.75584 1.0085 5.62284 1.14153C5.48985 1.27453 5.48797 1.48959 5.61862 1.62489L5.96344 1.9697C6.09811 2.10426 6.31637 2.10426 6.45101 1.96966Z" fill="#5979A7"/>
<path d="M12.4137 1.38096C12.545 1.38167 12.6653 1.30777 12.724 1.19028L13.0688 0.50069C13.154 0.329299 13.084 0.121388 12.9126 0.0362391C12.7413 -0.0488707 12.5333 0.0210451 12.4482 0.192436L12.1034 0.882024C12.0498 0.989202 12.0557 1.1165 12.119 1.21824C12.1823 1.32003 12.2939 1.38163 12.4137 1.38096Z" fill="#5979A7"/>
<path d="M14.0366 1.96964L14.3814 1.62482C14.471 1.53827 14.507 1.41004 14.4754 1.2895C14.4438 1.16896 14.3497 1.07479 14.2291 1.04323C14.1086 1.01167 13.9804 1.04761 13.8938 1.13725L13.549 1.48206C13.4594 1.56862 13.4234 1.69685 13.455 1.81738C13.4865 1.93792 13.5807 2.03209 13.7012 2.06365C13.8218 2.09521 13.95 2.05928 14.0366 1.96964Z" fill="#5979A7"/>
</svg>
