<svg width="18" height="18" viewBox="0 0 18 18" fill="none" xmlns="http://www.w3.org/2000/svg">
<path d="M13.1666 0.041748H1.49996C1.11375 0.0435886 0.743888 0.197825 0.470796 0.470918C0.197703 0.74401 0.0434665 1.11387 0.041626 1.50008V16.5001C0.0434665 16.8863 0.197703 17.2562 0.470796 17.5292C0.743888 17.8023 1.11375 17.9566 1.49996 17.9584H14C14.0915 17.9584 14.1833 17.9584 14.275 17.9501C14.2849 17.9402 14.2961 17.9317 14.3084 17.9251C14.4606 17.5084 14.5613 17.0746 14.6083 16.6334C14.4094 16.6835 14.2051 16.7086 14 16.7084C13.2817 16.7084 12.5928 16.4231 12.0849 15.9152C11.577 15.4073 11.2916 14.7184 11.2916 14.0001C11.2916 13.2818 11.577 12.5929 12.0849 12.085C12.5928 11.5771 13.2817 11.2917 14 11.2917C14.2106 11.291 14.4205 11.3162 14.625 11.3667V1.50008C14.6231 1.11387 14.4689 0.74401 14.1958 0.470918C13.9227 0.197825 13.5528 0.0435886 13.1666 0.041748ZM3.58329 3.37508H11.0833C11.2491 3.37508 11.408 3.44093 11.5252 3.55814C11.6424 3.67535 11.7083 3.83432 11.7083 4.00008C11.7083 4.16584 11.6424 4.32481 11.5252 4.44202C11.408 4.55923 11.2491 4.62508 11.0833 4.62508H3.58329C3.41753 4.62508 3.25856 4.55923 3.14135 4.44202C3.02414 4.32481 2.95829 4.16584 2.95829 4.00008C2.95829 3.83432 3.02414 3.67535 3.14135 3.55814C3.25856 3.44093 3.41753 3.37508 3.58329 3.37508ZM3.58329 6.70842H11.0833C11.2491 6.70842 11.408 6.77426 11.5252 6.89147C11.6424 7.00868 11.7083 7.16765 11.7083 7.33342C11.7083 7.49918 11.6424 7.65815 11.5252 7.77536C11.408 7.89257 11.2491 7.95842 11.0833 7.95842H3.58329C3.41753 7.95842 3.25856 7.89257 3.14135 7.77536C3.02414 7.65815 2.95829 7.49918 2.95829 7.33342C2.95829 7.16765 3.02414 7.00868 3.14135 6.89147C3.25856 6.77426 3.41753 6.70842 3.58329 6.70842ZM8.16663 14.6251H3.58329C3.41753 14.6251 3.25856 14.5592 3.14135 14.442C3.02414 14.3248 2.95829 14.1658 2.95829 14.0001C2.95829 13.8343 3.02414 13.6754 3.14135 13.5581C3.25856 13.4409 3.41753 13.3751 3.58329 13.3751H8.16663C8.33239 13.3751 8.49136 13.4409 8.60857 13.5581C8.72578 13.6754 8.79163 13.8343 8.79163 14.0001C8.79163 14.1658 8.72578 14.3248 8.60857 14.442C8.49136 14.5592 8.33239 14.6251 8.16663 14.6251ZM8.99996 11.2917H3.58329C3.41753 11.2917 3.25856 11.2259 3.14135 11.1087C3.02414 10.9915 2.95829 10.8325 2.95829 10.6667C2.95829 10.501 3.02414 10.342 3.14135 10.2248C3.25856 10.1076 3.41753 10.0417 3.58329 10.0417H8.99996C9.16572 10.0417 9.32469 10.1076 9.4419 10.2248C9.55911 10.342 9.62496 10.501 9.62496 10.6667C9.62496 10.8325 9.55911 10.9915 9.4419 11.1087C9.32469 11.2259 9.16572 11.2917 8.99996 11.2917Z" fill="#5979A7"/>
<path d="M14.625 10.0917C14.1074 10.0089 13.5785 10.0297 13.069 10.153C12.5596 10.2762 12.0796 10.4994 11.6571 10.8096C11.2346 11.1198 10.8778 11.5108 10.6076 11.9599C10.3374 12.409 10.159 12.9074 10.0829 13.426C10.0067 13.9446 10.0344 14.4731 10.1641 14.981C10.2939 15.4888 10.5232 15.9659 10.8387 16.3844C11.1543 16.8029 11.5499 17.1546 12.0024 17.4191C12.455 17.6836 12.9555 17.8555 13.4751 17.925C13.649 17.9485 13.8245 17.9597 14 17.9583C14.0915 17.9583 14.1833 17.9583 14.2751 17.95C15.2446 17.8824 16.1553 17.4605 16.8338 16.7647C17.5123 16.0689 17.9112 15.1478 17.9544 14.1769C17.9977 13.206 17.6823 12.2531 17.0683 11.4997C16.4543 10.7464 15.5846 10.2452 14.625 10.0917ZM14.6083 16.6333C14.4094 16.6834 14.2051 16.7086 14 16.7083C13.2817 16.7083 12.5928 16.423 12.0849 15.9151C11.577 15.4072 11.2917 14.7183 11.2917 14C11.2917 13.2817 11.577 12.5928 12.0849 12.0849C12.5928 11.577 13.2817 11.2917 14 11.2917C14.2106 11.2909 14.4205 11.3161 14.625 11.3667C15.2194 11.5067 15.7489 11.8439 16.1272 12.3232C16.5055 12.8026 16.7104 13.3959 16.7084 14.0066C16.7065 14.6173 16.4979 15.2093 16.1165 15.6863C15.7352 16.1632 15.2036 16.497 14.6083 16.6333Z" fill="#5979A7"/>
<path d="M13.5833 15.4584C13.5012 15.4585 13.4199 15.4424 13.3441 15.411C13.2682 15.3796 13.1994 15.3335 13.1414 15.2753L12.3081 14.442C12.2497 14.3841 12.2033 14.3151 12.1716 14.2392C12.14 14.1633 12.1236 14.0819 12.1234 13.9996C12.1233 13.9174 12.1394 13.8359 12.1708 13.7599C12.2022 13.6839 12.2483 13.6148 12.3065 13.5566C12.3646 13.4984 12.4337 13.4523 12.5097 13.4209C12.5857 13.3895 12.6672 13.3734 12.7495 13.3736C12.8317 13.3737 12.9132 13.3901 12.9891 13.4218C13.065 13.4535 13.1339 13.4998 13.1918 13.5582L13.5833 13.9497L14.8081 12.7249C14.9254 12.6084 15.0841 12.5432 15.2495 12.5435C15.4148 12.5438 15.5733 12.6096 15.6902 12.7265C15.8072 12.8434 15.873 13.0019 15.8733 13.1673C15.8736 13.3326 15.8083 13.4913 15.6918 13.6087L14.0252 15.2753C13.9672 15.3335 13.8983 15.3796 13.8225 15.411C13.7467 15.4424 13.6654 15.4585 13.5833 15.4584Z" fill="#5979A7"/>
</svg>
