<svg width="20" height="16" viewBox="0 0 20 16" fill="none" xmlns="http://www.w3.org/2000/svg">
<path d="M18.5422 2.30467H13.2482L12.1792 0.508754C12.0746 0.333165 11.8854 0.225586 11.681 0.225586H8.31882C8.11446 0.225586 7.92521 0.333165 7.82069 0.508754L6.75166 2.30467H5.01445V1.90885C5.01445 1.58871 4.7549 1.32917 4.43477 1.32917H2.28988C1.96968 1.32917 1.71021 1.58871 1.71021 1.90885V2.30467H1.45769C0.65257 2.30467 0 2.95731 0 3.7623V14.3163C0 15.1213 0.65257 15.774 1.45763 15.774H18.5422C19.3473 15.774 19.9999 15.1213 19.9999 14.3163V3.7623C20 2.95731 19.3473 2.30467 18.5422 2.30467ZM9.99993 13.1884C7.70842 13.1884 5.85081 11.3308 5.85081 9.03922C5.85081 6.74777 7.70842 4.89009 9.99993 4.89009C12.2914 4.89009 14.1491 6.74777 14.1491 9.03922C14.1491 11.3308 12.2914 13.1884 9.99993 13.1884ZM17.6328 5.30987H15.8164C15.4962 5.30987 15.2367 5.05032 15.2367 4.73012C15.2367 4.40992 15.4962 4.15038 15.8164 4.15038H17.6328C17.9531 4.15038 18.2125 4.40992 18.2125 4.73012C18.2125 5.05032 17.953 5.30987 17.6328 5.30987Z" fill="#035BFF"/>
<path d="M9.99991 11.9378C11.6008 11.9378 12.8985 10.6401 12.8985 9.03922C12.8985 7.43837 11.6008 6.14062 9.99991 6.14062C8.39906 6.14062 7.10132 7.43837 7.10132 9.03922C7.10132 10.6401 8.39906 11.9378 9.99991 11.9378Z" fill="#035BFF"/>
</svg>
