<svg width="20" height="18" viewBox="0 0 20 18" fill="none" xmlns="http://www.w3.org/2000/svg">
<path d="M7.61719 0.210938H1.75781C0.788555 0.210938 0 0.999492 0 1.96875V14.8594C0 15.6232 0.489883 16.2745 1.17188 16.5164V17.2031C1.17188 17.5267 1.43422 17.7891 1.75781 17.7891C2.08141 17.7891 2.34375 17.5267 2.34375 17.2031V16.6172H7.03125V17.2031C7.03125 17.5267 7.29359 17.7891 7.61719 17.7891C7.94078 17.7891 8.20312 17.5267 8.20312 17.2031V16.5164C8.88512 16.2745 9.375 15.6232 9.375 14.8594V1.96875C9.375 0.999492 8.58644 0.210938 7.61719 0.210938ZM1.75781 1.38281H7.61719C7.94027 1.38281 8.20312 1.64566 8.20312 1.96875V6.07031H1.17188V1.96875C1.17188 1.64566 1.43473 1.38281 1.75781 1.38281ZM7.61719 15.4453H1.75781C1.43473 15.4453 1.17188 15.1825 1.17188 14.8594V7.24219H8.20312V14.8594C8.20312 15.1825 7.94027 15.4453 7.61719 15.4453Z" fill="#035BFF"/>
<path d="M2.92969 8.41406C2.60609 8.41406 2.34375 8.67641 2.34375 9V10.1719C2.34375 10.4955 2.60609 10.7578 2.92969 10.7578C3.25328 10.7578 3.51562 10.4955 3.51562 10.1719V9C3.51562 8.67641 3.25328 8.41406 2.92969 8.41406Z" fill="#035BFF"/>
<path d="M2.92969 4.89844C3.25328 4.89844 3.51562 4.63609 3.51562 4.3125V3.14062C3.51562 2.81703 3.25328 2.55469 2.92969 2.55469C2.60609 2.55469 2.34375 2.81703 2.34375 3.14062V4.3125C2.34375 4.63609 2.60609 4.89844 2.92969 4.89844Z" fill="#035BFF"/>
<path d="M18.2422 6.07031H12.3828C11.4136 6.07031 10.625 6.85887 10.625 7.82812V16.0312C10.625 17.0005 11.4136 17.7891 12.3828 17.7891H18.2422C19.2114 17.7891 20 17.0005 20 16.0312V7.82812C20 6.85887 19.2114 6.07031 18.2422 6.07031ZM18.8281 7.82812V8.41406H17.6562V7.24219H18.2422C18.5653 7.24219 18.8281 7.50504 18.8281 7.82812ZM12.3828 7.24219H16.4844V8.41406H11.7969V7.82812C11.7969 7.50504 12.0597 7.24219 12.3828 7.24219ZM18.2422 16.6172H12.3828C12.0597 16.6172 11.7969 16.3543 11.7969 16.0312V9.58594H18.8281V16.0312C18.8281 16.3543 18.5653 16.6172 18.2422 16.6172Z" fill="#035BFF"/>
<path d="M15.3125 10.7578C14.0202 10.7578 12.9688 11.8092 12.9688 13.1016C12.9688 14.3939 14.0202 15.4453 15.3125 15.4453C16.6048 15.4453 17.6562 14.3939 17.6562 13.1016C17.6562 11.8092 16.6048 10.7578 15.3125 10.7578ZM15.3125 14.2734C14.6663 14.2734 14.1406 13.7477 14.1406 13.1016C14.1406 12.4554 14.6663 11.9297 15.3125 11.9297C15.9587 11.9297 16.4844 12.4554 16.4844 13.1016C16.4844 13.7477 15.9587 14.2734 15.3125 14.2734Z" fill="#035BFF"/>
</svg>
