<svg width="20" height="20" viewBox="0 0 20 20" fill="none" xmlns="http://www.w3.org/2000/svg">
<path d="M14.6029 10.3877H11.1653C10.6312 10.3877 10.1413 10.1512 9.81352 9.75684L9.05145 11.0448H10.6128C11.7213 11.0448 12.553 12.0552 12.3429 13.1419L12.2575 13.5828C12.4655 13.5965 12.6746 13.6032 12.8841 13.6032C14.2833 13.6032 16.2824 13.0357 17.5481 12.4507L15.9547 9.75684C15.6269 10.1512 15.137 10.3877 14.6029 10.3877Z" fill="#035BFF"/>
<path d="M17.9457 14.107L17.9517 14.1171C16.539 14.8981 14.4368 15.6079 12.8841 15.6079C12.7148 15.6079 12.5464 15.6033 12.3788 15.5941L12.4415 15.2703C12.5886 15.276 12.7362 15.279 12.8841 15.279C14.4751 15.279 16.5259 14.7132 17.9457 14.107Z" fill="#035BFF" stroke="#035BFF" stroke-width="1.00251"/>
<path d="M19.9123 16.4476L19.2368 15.3057C17.6163 16.316 14.9432 17.2844 12.8841 17.2844C12.4373 17.2844 11.9944 17.2574 11.557 17.2034C11.0473 19.8358 11.0851 19.6479 11.0671 19.7167C14.4904 20.3016 17.9107 19.1365 19.8249 17.1756C20.0106 16.9945 20.0628 16.6893 19.9123 16.4476Z" fill="#035BFF"/>
<path d="M8.57174 3.7068C8.58576 3.81884 8.46311 3.48668 10.6206 8.84467C10.7099 9.0671 10.9257 9.21278 11.1653 9.21278H14.6029C14.8425 9.21278 15.0583 9.0671 15.1476 8.84467C17.149 3.87445 17.1593 3.84947 17.1608 3.84543C17.2145 3.70735 17.213 3.56238 17.1698 3.44012C17.0705 3.13291 16.552 2.70261 16.2214 2.52102V0.719244C16.2214 0.394995 15.9586 0.131836 15.634 0.131836C15.3097 0.131836 15.0465 0.394995 15.0465 0.719244V2.19638C14.1798 2.16599 13.3858 2.55376 12.8841 3.18088C12.3785 2.54894 11.5824 2.16623 10.7217 2.19638V0.719244C10.7217 0.394995 10.4585 0.131836 10.1342 0.131836C9.8096 0.131836 9.54684 0.394995 9.54684 0.719244V2.52102C9.18722 2.71855 8.6911 3.15327 8.59837 3.44012C8.5677 3.52698 8.56003 3.62472 8.57174 3.7068Z" fill="#035BFF"/>
<path d="M0.0108506 12.9187L1.26399 19.3932C1.31764 19.6692 1.55926 19.869 1.84082 19.869H2.85391C2.84889 18.6667 2.82626 21.4046 2.85469 12.2197H0.587686C0.218911 12.2197 -0.0592076 12.5562 0.0108506 12.9187Z" fill="#035BFF"/>
<path d="M4.02909 19.8686H7.17173L7.18269 17.3623H4.01813L4.02909 19.8686Z" fill="#035BFF"/>
<path d="M4.0174 16.1879H7.18313L7.1706 12.2197H4.02993L4.0174 16.1879Z" fill="#035BFF"/>
<path d="M10.6128 12.2197H8.34576C8.37494 21.6385 8.35215 18.5135 8.34655 19.869H9.35963C9.6412 19.869 9.88282 19.6692 9.93647 19.3932L11.1896 12.9187C11.2595 12.5567 10.9821 12.2197 10.6128 12.2197Z" fill="#035BFF"/>
<path d="M7.55124 9.47694C5.81611 7.74346 2.84058 8.98665 2.84058 11.4287L2.85467 12.2198H4.02988L4.01539 11.4287C4.01539 10.5549 4.72631 9.84391 5.60022 9.84391C6.47605 9.84391 7.18505 10.5526 7.18505 11.4287L7.17056 12.2198H8.34577C8.35881 11.4886 8.5057 10.4313 7.55124 9.47694Z" fill="#035BFF"/>
</svg>
