<svg width="20" height="20" viewBox="0 0 20 20" fill="none" xmlns="http://www.w3.org/2000/svg">
<path d="M9.80579 3.125H10.625V2.57812H9.80579C9.65477 2.57812 9.53235 2.70055 9.53235 2.85156C9.53235 3.00258 9.65477 3.125 9.80579 3.125Z" fill="#035BFF"/>
<path d="M9.12451 15.9996L9.13744 16.0238C9.14092 16.0303 9.144 16.0371 9.14697 16.0439C9.15775 16.0654 9.16799 16.0871 9.17764 16.1091C9.28373 16.3249 9.48131 16.4815 9.71568 16.5354C9.92639 16.5816 10.1462 16.5183 10.3001 16.3671C10.3092 16.3585 10.3182 16.3498 10.327 16.3408C10.3358 16.3318 10.3448 16.3223 10.3533 16.3131C10.5091 16.1473 10.5713 15.9143 10.5187 15.693C10.4636 15.4592 10.3061 15.2628 10.0899 15.1582C10.076 15.1521 10.0622 15.1456 10.0484 15.1391C10.0438 15.1371 10.0394 15.1349 10.0347 15.133C10.0278 15.1302 10.0208 15.127 10.0141 15.1235L9.84252 15.0359L8.16943 14.1885L9.12451 15.9996Z" fill="#035BFF"/>
<path d="M5.48392 9.8849C5.49955 9.91537 5.51482 9.94634 5.52853 9.97822L5.74775 10.3892C5.75521 10.4034 5.76138 10.4181 5.76627 10.4334L6.5199 11.8624C6.60162 11.8256 6.68678 11.7969 6.77412 11.7767L6.76994 10.8985C6.76908 10.7483 6.89013 10.6259 7.04033 10.625H7.04209H7.04342C7.19369 10.6244 7.31603 10.7456 7.31685 10.8959L7.32076 11.7598C7.42888 11.7781 7.53447 11.8092 7.63521 11.8525L8.37541 10.3912C8.37861 10.3834 8.38213 10.3752 8.38615 10.3674L8.50334 10.139L8.59681 9.95435C8.60334 9.94146 8.60943 9.92845 8.61533 9.91529C8.61638 9.9129 8.61744 9.91048 8.61853 9.9081C8.66166 9.81076 8.68646 9.70626 8.69174 9.59994C8.7117 9.15181 8.54701 8.71509 8.23611 8.39173C7.92924 8.07001 7.50349 7.88876 7.05888 7.89064H7.04478C6.59529 7.89228 6.16674 8.08091 5.86189 8.41126C5.55638 8.7397 5.39892 9.17908 5.42627 9.62681C5.43213 9.71529 5.45154 9.80236 5.48392 9.8849Z" fill="#035BFF"/>
<path d="M9.32031 13.4061L8.44195 13.4156C8.42305 13.5036 8.39559 13.5895 8.35992 13.672L9.81641 14.4097C9.82199 14.4121 9.82758 14.4144 9.83309 14.4172L10.0855 14.5461L10.2587 14.6338C10.2642 14.6366 10.2698 14.6391 10.2754 14.6417C10.2883 14.6474 10.3013 14.6531 10.3141 14.6592C10.4088 14.6999 10.51 14.7235 10.6129 14.7286C11.0611 14.7487 11.4979 14.584 11.8211 14.273C12.4717 13.6469 12.4914 12.6119 11.8653 11.9614C11.8446 11.9399 11.8234 11.919 11.8016 11.8987C11.4732 11.5931 11.0337 11.4356 10.5859 11.463C10.4626 11.4713 10.3424 11.5056 10.2333 11.5638L9.9527 11.7117L9.81305 11.7856C9.81047 11.787 9.80781 11.7874 9.80523 11.7887L8.35156 12.5545C8.39645 12.6537 8.42926 12.7578 8.44922 12.8648L9.31453 12.8515H9.31754C9.4707 12.8507 9.59555 12.9742 9.59633 13.1274C9.59711 13.2806 9.47359 13.4054 9.32043 13.4062L9.32031 13.4061Z" fill="#035BFF"/>
<path d="M10.0781 4.92188H13.5938V6.5625H10.0781V4.92188Z" fill="#035BFF"/>
<path d="M10.8984 1.28906H12.7734V4.375H10.8984V1.28906Z" fill="#035BFF"/>
<path d="M14.4915 3.37597C15.0379 3.7414 15.4698 3.63687 15.6918 3.41719C16.0132 3.09914 16.0161 2.58074 15.698 2.25926C15.2836 1.84031 14.6722 2.17633 14.4946 2.28933C14.4916 2.29125 14.4886 2.29324 14.4855 2.29488L13.5742 2.82597L14.4802 3.36867C14.4839 3.37121 14.4878 3.37344 14.4915 3.37597Z" fill="#035BFF"/>
<path d="M16.9145 9.35219C16.1328 8.29492 15.065 7.53906 13.8244 7.10938H9.8548C9.33249 7.26562 8.84308 7.51406 8.39331 7.79957C8.47741 7.86492 8.55667 7.93625 8.6305 8.01301C8.79276 8.1823 8.92675 8.3766 9.02733 8.58844C9.41007 8.34988 9.82073 8.15926 10.25 8.02094C10.2772 8.01219 10.3056 8.00777 10.3342 8.00781H13.4258C13.4544 8.0077 13.4828 8.01211 13.51 8.02082C16.2885 8.92074 17.8113 11.9027 16.9114 14.6812C16.4737 16.0327 15.5105 17.1512 14.239 17.7848C14.2011 17.8034 14.1594 17.8129 14.1172 17.8125H9.64304C9.60073 17.8129 9.5589 17.8034 9.52089 17.7847C9.38753 17.7161 9.25851 17.6392 9.13456 17.5547C9.03495 17.7965 8.8928 18.0186 8.71483 18.2103C8.64659 18.2833 8.57351 18.3516 8.49608 18.4147C8.6812 18.542 8.84229 18.6328 8.9712 18.7109H14.7099C17.8109 17.1266 19.0404 13.3282 17.456 10.2272C17.2997 9.92129 17.1187 9.62863 16.9147 9.35219H16.9145Z" fill="#035BFF"/>
<path d="M4.3825 15.0722L4.19559 15.1715C4.18887 15.175 4.18203 15.1783 4.17504 15.1814C4.1698 15.1836 4.16477 15.1862 4.15941 15.1885C4.14652 15.1948 4.13367 15.2012 4.12066 15.2071C3.90594 15.3152 3.75141 15.5144 3.70012 15.7493C3.65129 15.9715 3.7173 16.2034 3.8759 16.3665C3.88445 16.3756 3.89332 16.3846 3.90238 16.3935C3.91145 16.4024 3.9207 16.4112 3.92973 16.4196C4.08609 16.5682 4.30691 16.6279 4.51684 16.5781C4.75027 16.5203 4.94531 16.3604 5.04781 16.1429C5.05703 16.1209 5.06684 16.0991 5.07727 16.0774C5.08016 16.0705 5.08316 16.0637 5.08656 16.057L5.09828 16.0342L6.0243 14.2061L4.3825 15.0722Z" fill="#035BFF"/>
<path d="M3.92368 14.6952C3.93001 14.692 3.93642 14.6891 3.94271 14.6857L4.12103 14.5916L4.36466 14.4619C4.37013 14.459 4.37575 14.4563 4.3813 14.4538L5.8245 13.6921C5.78712 13.6086 5.75814 13.5216 5.73794 13.4323L4.8615 13.4374H4.85896C4.7095 13.4397 4.58642 13.3205 4.58407 13.171C4.58173 13.0215 4.70099 12.8984 4.85048 12.8961C4.85251 12.8961 4.8545 12.8961 4.85654 12.8961L5.72353 12.8882C5.74197 12.7814 5.77298 12.6772 5.81595 12.5777L3.91751 11.6161C3.80743 11.5597 3.68669 11.5274 3.56322 11.5212C3.11509 11.5011 2.67833 11.6658 2.35501 11.9768C1.7045 12.6029 1.6847 13.6378 2.31083 14.2884C2.3315 14.3098 2.35275 14.3307 2.37454 14.351C2.70294 14.6565 3.14224 14.8139 3.5899 14.7866C3.6931 14.7797 3.79427 14.7544 3.88857 14.7118C3.90025 14.7061 3.91197 14.7007 3.92368 14.6952Z" fill="#035BFF"/>
<path d="M8.74967 16.6232C8.74342 16.5287 8.72166 16.4358 8.6853 16.3484C8.67283 16.3236 8.66112 16.2984 8.65014 16.2726L8.64908 16.2705L8.64471 16.2622L8.42987 15.8598C8.42463 15.8498 8.41998 15.8395 8.41604 15.829L7.65619 14.3877C7.55811 14.4319 7.45514 14.4643 7.34948 14.4845L7.35354 15.3518C7.35448 15.5018 7.23362 15.6243 7.08354 15.6252C7.08283 15.6252 7.08217 15.6252 7.08147 15.6252H7.08006C6.92987 15.6259 6.80748 15.5047 6.80662 15.3545L6.80237 14.4808C6.71248 14.462 6.62475 14.4343 6.54041 14.398L5.80463 15.8507C5.8008 15.8612 5.79635 15.8715 5.79131 15.8816L5.58541 16.2834L5.57912 16.2959C5.57862 16.2968 5.57823 16.2978 5.57776 16.2988C5.56717 16.3243 5.55592 16.3495 5.54405 16.3743C5.50908 16.4623 5.48885 16.5555 5.48416 16.6502C5.46424 17.0983 5.62893 17.535 5.93983 17.8584C6.2467 18.1802 6.67248 18.3614 7.11713 18.3596H7.13123C7.58073 18.3579 8.00928 18.1693 8.31412 17.8389C8.61967 17.5104 8.77709 17.071 8.74967 16.6232Z" fill="#035BFF"/>
<path d="M9.11168 10.1447C9.10829 10.1525 9.10469 10.1603 9.10149 10.1681C9.09829 10.1759 9.09481 10.1837 9.09094 10.1915L8.98965 10.3892L8.15149 12.0439L9.69192 11.2314L9.98211 11.0771C9.98883 11.0736 9.99571 11.0703 10.0027 11.0673C10.0129 11.0629 10.0228 11.0581 10.0328 11.0533C10.039 11.0504 10.0452 11.0473 10.0515 11.0444C10.269 10.9369 10.4257 10.7363 10.4775 10.4994C10.5263 10.2772 10.4603 10.0453 10.3017 9.88219C10.2929 9.87289 10.2843 9.86403 10.2754 9.85528C10.2665 9.84653 10.2569 9.83743 10.2476 9.82903C10.0913 9.68039 9.87043 9.62078 9.66051 9.67055C9.42223 9.72961 9.22422 9.89469 9.12321 10.1184C9.11954 10.1272 9.11567 10.136 9.11168 10.1447Z" fill="#035BFF"/>
<path d="M14.0515 17.2656C14.8039 16.8766 15.4391 16.2943 15.8921 15.5786C16.3694 14.8227 16.6223 13.9467 16.6213 13.0526C16.6213 11.0036 15.3214 9.21875 13.3821 8.55469H10.3779C9.95521 8.71094 9.56095 8.88703 9.20251 9.12562C9.2106 9.16859 9.21748 9.21199 9.22298 9.25562C9.32248 9.2025 9.42849 9.16269 9.53837 9.1373C9.92322 9.0477 10.3274 9.15551 10.6165 9.42488C10.6308 9.43789 10.645 9.45133 10.659 9.46516C10.6727 9.47867 10.6863 9.4927 10.6999 9.50695C10.9806 9.80023 11.0978 10.2135 11.013 10.6105C10.9902 10.7194 10.9537 10.8249 10.9042 10.9245C11.3786 10.9726 11.8244 11.1741 12.174 11.4983C13.056 12.3193 13.1054 13.6999 12.2844 14.5819C12.257 14.6112 12.229 14.6398 12.2001 14.6675C11.8556 14.9977 11.4129 15.2065 10.939 15.2623C10.9898 15.3607 11.0279 15.4652 11.0523 15.5732C11.1436 15.9688 11.0331 16.384 10.7572 16.682C10.7442 16.6963 10.7308 16.7105 10.717 16.7244C10.7035 16.7381 10.6896 16.7518 10.6753 16.7652C10.4544 16.9774 10.1602 17.0963 9.85388 17.0972C9.76931 17.0971 9.68501 17.0882 9.60232 17.0705C9.49267 17.0471 9.38658 17.0094 9.28673 16.9584C9.28548 16.9701 9.28412 16.9802 9.28283 16.9917C9.45154 17.1112 9.59705 17.1876 9.71044 17.2657L14.0515 17.2656Z" fill="#035BFF"/>
<path d="M4.14313 11.1155C4.1502 11.1184 4.15707 11.1215 4.16387 11.125L4.59324 11.3442C4.59891 11.3471 4.60426 11.3504 4.60961 11.3536L6.00684 12.0613L5.04336 10.2347C5.02262 10.1953 5.0043 10.1553 4.98727 10.1149C4.87875 9.91115 4.68711 9.76455 4.46207 9.7131C4.25137 9.66685 4.03156 9.7301 3.8777 9.88127C3.86852 9.8899 3.85957 9.89861 3.85078 9.90764C3.84199 9.91666 3.83313 9.92584 3.82473 9.93498C3.66875 10.1008 3.60648 10.3339 3.65906 10.5554C3.71938 10.8099 3.90008 11.0189 4.14313 11.1155Z" fill="#035BFF"/>
<path d="M7.08988 13.9456C7.54301 13.9456 7.91035 13.5783 7.91035 13.1252C7.91035 12.672 7.54301 12.3047 7.08988 12.3047C6.63675 12.3047 6.26941 12.672 6.26941 13.1252C6.26941 13.5783 6.63675 13.9456 7.08988 13.9456Z" fill="#035BFF"/>
</svg>
