<svg width="18" height="14" viewBox="0 0 18 14" fill="none" xmlns="http://www.w3.org/2000/svg">
<path fill-rule="evenodd" clip-rule="evenodd" d="M17.9583 6.37533H11.1916C11.0458 6.82199 10.7408 7.23949 10.2875 7.54199C9.86996 7.82199 9.22163 7.96866 8.58329 8.01783L9.83163 9.26699C10.0758 9.51033 10.0758 9.90699 9.83163 10.1503C9.58746 10.3945 9.19163 10.3945 8.94746 10.1503L7.56829 8.77116V13.4587H15.6666C16.2741 13.4587 16.8575 13.217 17.2875 12.7878C17.7166 12.3578 17.9583 11.7745 17.9583 11.167V6.37533ZM2.64163 6.37533H0.041626V11.167C0.041626 11.7745 0.283293 12.3578 0.712459 12.7878C1.14246 13.217 1.72579 13.4587 2.33329 13.4587H6.31829V8.71783L4.88579 10.1503C4.64163 10.3945 4.24579 10.3945 4.00163 10.1503C3.75746 9.90699 3.75746 9.51033 4.00163 9.26699L5.24996 8.01783C4.61163 7.96866 3.96329 7.82199 3.54579 7.54199C3.09246 7.23949 2.78746 6.82199 2.64163 6.37533ZM3.78996 5.71033C3.79913 5.60449 3.83496 5.50116 3.90329 5.40866C4.17079 5.04283 4.74329 5.03449 5.17329 5.32283C5.44163 5.50199 5.64413 5.86866 5.81329 6.22616C5.90496 6.41949 5.98413 6.61366 6.04913 6.79116C5.84079 6.79449 5.60663 6.79033 5.36829 6.77366C4.95079 6.74283 4.51413 6.68616 4.23996 6.50283C3.97579 6.32616 3.80579 6.05949 3.78996 5.80033C3.79079 5.78366 3.79163 5.76699 3.79163 5.75033C3.79163 5.73699 3.79079 5.72366 3.78996 5.71033ZM10.0433 5.80033C10.0275 6.05949 9.85746 6.32616 9.59329 6.50283C9.31913 6.68616 8.88246 6.74283 8.46496 6.77366C8.22663 6.79033 7.99246 6.79449 7.78413 6.79116C7.84913 6.61366 7.92829 6.41949 8.01996 6.22616C8.18913 5.86866 8.39163 5.50199 8.65996 5.32283C9.08996 5.03449 9.66246 5.04283 9.92996 5.40866C9.99829 5.50116 10.0341 5.60449 10.0433 5.71033C10.0425 5.72366 10.0416 5.73699 10.0416 5.75033C10.0416 5.76699 10.0425 5.78366 10.0433 5.80033ZM7.56829 0.541992V4.63449C7.69413 4.49616 7.82663 4.37616 7.96496 4.28366C8.97829 3.60616 10.3075 3.80866 10.9383 4.66866C11.0425 4.81199 11.1233 4.96533 11.1816 5.12533H17.9583V2.83366C17.9583 2.22616 17.7166 1.64283 17.2875 1.21283C16.8575 0.783659 16.2741 0.541992 15.6666 0.541992H7.56829ZM6.31829 0.541992H2.33329C1.72579 0.541992 1.14246 0.783659 0.712459 1.21283C0.283293 1.64283 0.041626 2.22616 0.041626 2.83366V5.12533H2.65163C2.70996 4.96533 2.79079 4.81199 2.89496 4.66866C3.52579 3.80866 4.85496 3.60616 5.86829 4.28366C6.02663 4.38949 6.17746 4.53116 6.31829 4.69616V0.541992Z" fill="#035BFF"/>
</svg>
