<svg width="20" height="20" viewBox="0 0 20 20" fill="none" xmlns="http://www.w3.org/2000/svg">
<g clip-path="url(#clip0_4518_15038)">
<path d="M10.6666 7.66699V15.667H16.6666V7.66699H10.6666ZM11.431 8.76466L11.7643 8.43133C11.8272 8.37061 11.9114 8.33701 11.9988 8.33777C12.0862 8.33853 12.1698 8.37358 12.2316 8.43539C12.2934 8.49719 12.3284 8.58079 12.3292 8.66819C12.3299 8.75559 12.2963 8.83979 12.2356 8.90266L11.9023 9.23599C11.8394 9.29671 11.7552 9.33031 11.6678 9.32955C11.5804 9.32879 11.4968 9.29373 11.435 9.23193C11.3732 9.17013 11.3382 9.08652 11.3374 8.99913C11.3366 8.91173 11.3702 8.82753 11.431 8.76466ZM13.9023 8.90266L11.9023 10.9027C11.8715 10.9345 11.8348 10.9599 11.7941 10.9774C11.7534 10.9948 11.7097 11.004 11.6654 11.0044C11.6212 11.0048 11.5773 10.9964 11.5363 10.9796C11.4953 10.9628 11.4581 10.9381 11.4268 10.9068C11.3955 10.8755 11.3708 10.8383 11.354 10.7973C11.3373 10.7563 11.3288 10.7125 11.3292 10.6682C11.3296 10.6239 11.3388 10.5802 11.3563 10.5395C11.3737 10.4989 11.3991 10.4621 11.431 10.4313L13.431 8.43133C13.4938 8.37061 13.578 8.33701 13.6654 8.33777C13.7528 8.33853 13.8364 8.37358 13.8982 8.43539C13.96 8.49719 13.9951 8.58079 13.9959 8.66819C13.9966 8.75559 13.963 8.83979 13.9023 8.90266Z" fill="#035BFF"/>
<path d="M9.49634 17.308C9.62967 17.344 8.92967 17.333 17.6667 17.333C17.7243 17.3322 17.7816 17.3238 17.837 17.308L16.862 16.333H10.4713L9.49634 17.308Z" fill="#035BFF"/>
<path d="M17.3334 15.8618L18.3084 16.8368C18.3242 16.7813 18.3326 16.7241 18.3334 16.6664C18.3334 5.95876 18.346 6.63676 18.3084 6.49609L17.3334 7.47109V15.8618Z" fill="#035BFF"/>
<path d="M10 15.8618V7.47109L9.02502 6.49609C8.98636 6.64043 9.00002 5.97309 9.00002 16.6664C9.00081 16.7241 9.00921 16.7813 9.02502 16.8368L10 15.8618Z" fill="#035BFF"/>
<path d="M19 18H0.999959C0.815864 18 0.666626 18.1492 0.666626 18.3333V19C0.666626 19.1841 0.815864 19.3333 0.999959 19.3333H19C19.1841 19.3333 19.3333 19.1841 19.3333 19V18.3333C19.3333 18.1492 19.1841 18 19 18Z" fill="#035BFF"/>
<path d="M16.862 6.9999L17.837 6.0249C17.7816 6.00909 17.7243 6.00069 17.6667 5.9999C9.1 5.9999 9.63334 5.9879 9.49634 6.0249L10.4713 6.9999H16.862Z" fill="#035BFF"/>
<path d="M5.28831 0.782053C6.22931 0.31072 6.30498 1.83639 5.39698 2.57272C5.28733 2.41594 5.14439 2.28533 4.97837 2.19024C4.81234 2.09516 4.62736 2.03796 4.43665 2.02272C4.47638 1.76526 4.57356 1.52004 4.721 1.30527C4.86843 1.09049 5.06233 0.911663 5.28831 0.782053Z" fill="#035BFF"/>
<path d="M4.98333 3.33976C4.98463 3.47146 4.94689 3.6006 4.87487 3.71088C4.80286 3.82115 4.69979 3.90762 4.57868 3.95938C4.45757 4.01114 4.32384 4.02587 4.19437 4.0017C4.0649 3.97754 3.94549 3.91556 3.8512 3.8236C3.75692 3.73164 3.69198 3.61381 3.6646 3.48498C3.63721 3.35615 3.6486 3.22209 3.69732 3.09973C3.74604 2.97737 3.82992 2.87218 3.93837 2.79743C4.04681 2.72269 4.17497 2.68175 4.30666 2.67976C4.39449 2.67844 4.48171 2.69449 4.56332 2.72698C4.64492 2.75948 4.7193 2.80778 4.78218 2.86911C4.84506 2.93044 4.8952 3.00359 4.92972 3.08436C4.96424 3.16513 4.98246 3.25193 4.98333 3.33976Z" fill="#035BFF"/>
<path d="M2.59165 1.03645C2.76432 0.380116 3.55832 0.776116 3.93432 1.37945C3.82937 1.62069 3.76841 1.87875 3.75432 2.14145C3.68075 2.17583 3.61056 2.21701 3.54465 2.26445C3.30487 2.14581 3.0462 2.07 2.78032 2.04045C2.59795 1.73966 2.53091 1.38292 2.59165 1.03645Z" fill="#035BFF"/>
<path d="M1.30006 3.34902C1.29639 2.91769 2.21073 2.45069 3.10773 2.80002C3.02839 2.97347 2.98733 3.16196 2.98733 3.35269C2.98733 3.54342 3.02839 3.73191 3.10773 3.90536C2.25639 4.23802 1.30406 3.80169 1.30006 3.34902Z" fill="#035BFF"/>
<path d="M2.5973 5.4859C2.58925 5.1979 2.65953 4.9131 2.80063 4.6619C3.06353 4.63074 3.31894 4.5538 3.5553 4.43457C3.61706 4.48719 3.68727 4.52901 3.76297 4.55824C3.78095 4.82108 3.84481 5.07874 3.95163 5.31957C3.50997 6.0389 2.65363 6.3219 2.5973 5.4859Z" fill="#035BFF"/>
<path d="M6.0403 5.65892C5.82463 6.47759 4.61697 5.69592 4.44763 4.67259C4.63779 4.65352 4.82163 4.5938 4.98669 4.49747C5.15175 4.40114 5.29417 4.27045 5.4043 4.11426C5.63685 4.293 5.81812 4.52994 5.92979 4.80116C6.04146 5.07238 6.07958 5.36826 6.0403 5.65892Z" fill="#035BFF"/>
<path d="M7.18196 3.66269C6.91468 3.89082 6.57366 4.01413 6.22229 4.00969C6.06185 3.79505 5.86497 3.61025 5.64062 3.46369C5.64813 3.38297 5.64813 3.30174 5.64062 3.22102C5.86049 3.07607 6.05244 2.8927 6.20729 2.67969C6.91396 2.70002 7.65962 3.18302 7.18196 3.66269Z" fill="#035BFF"/>
<path d="M2.98263 8.66699H5.64929C5.7377 8.66699 5.82248 8.70211 5.88499 8.76462C5.94751 8.82714 5.98263 8.91192 5.98263 9.00033C5.98263 9.08873 5.94751 9.17352 5.88499 9.23603C5.82248 9.29854 5.7377 9.33366 5.64929 9.33366H2.98263C2.89422 9.33366 2.80944 9.29854 2.74692 9.23603C2.68441 9.17352 2.64929 9.08873 2.64929 9.00033C2.64929 8.91192 2.68441 8.82714 2.74692 8.76462C2.80944 8.70211 2.89422 8.66699 2.98263 8.66699Z" fill="#035BFF"/>
<path d="M6.17295 16.5807C5.91326 16.8368 5.6038 17.0368 5.2637 17.1686C4.92359 17.3003 4.56009 17.3609 4.19565 17.3465C3.83121 17.3322 3.4736 17.2432 3.14491 17.0851C2.81622 16.9271 2.52344 16.7033 2.28469 16.4276C2.04594 16.1518 1.86628 15.8301 1.75683 15.4822C1.64737 15.1343 1.61045 14.7676 1.64834 14.4049C1.68623 14.0421 1.79813 13.691 1.97712 13.3732C2.15611 13.0554 2.39838 12.7778 2.68895 12.5573C2.88541 12.4026 3.04399 12.205 3.15264 11.9798C3.26129 11.7545 3.31714 11.5074 3.31595 11.2573V10H5.31595V11.2573C5.31656 11.5116 5.37525 11.7624 5.48755 11.9905C5.59986 12.2187 5.76281 12.4181 5.96395 12.5737C6.26314 12.8082 6.50859 13.1042 6.68381 13.4416C6.85902 13.779 6.95993 14.15 6.97973 14.5296C6.99953 14.9093 6.93777 15.2888 6.79861 15.6426C6.65945 15.9964 6.44611 16.3162 6.17295 16.5807Z" fill="#035BFF"/>
<path d="M4.64994 6.26303V7.99969H3.98328V6.28636C4.54028 5.84969 4.10828 5.82969 4.64994 6.26303Z" fill="#035BFF"/>
</g>
<defs>
<clipPath id="clip0_4518_15038">
<rect width="20" height="20" fill="white"/>
</clipPath>
</defs>
</svg>
