<svg width="20" height="20" viewBox="0 0 20 20" fill="none" xmlns="http://www.w3.org/2000/svg">
<path d="M4.64291 14.2861C3.06495 14.2861 1.78577 15.5653 1.78577 17.1433C1.78577 18.7212 3.06495 20.0004 4.64291 20.0004C6.22087 20.0004 7.50005 18.7212 7.50005 17.1433C7.49828 15.5661 6.22013 14.2879 4.64291 14.2861ZM4.64291 18.929C3.65669 18.929 2.8572 18.1295 2.8572 17.1433C2.8572 16.1571 3.65669 15.3576 4.64291 15.3576C5.62913 15.3576 6.42862 16.1571 6.42862 17.1433C6.42744 18.129 5.62864 18.9278 4.64291 18.929Z" fill="#035BFF"/>
<path d="M15.3572 18.2141C15.9489 18.2141 16.4286 17.7345 16.4286 17.1427C16.4286 16.551 15.9489 16.0713 15.3572 16.0713C14.7655 16.0713 14.2858 16.551 14.2858 17.1427C14.2858 17.7345 14.7655 18.2141 15.3572 18.2141Z" fill="#035BFF"/>
<path d="M4.64284 18.2141C5.23457 18.2141 5.71427 17.7345 5.71427 17.1427C5.71427 16.551 5.23457 16.0713 4.64284 16.0713C4.05111 16.0713 3.57141 16.551 3.57141 17.1427C3.57141 17.7345 4.05111 18.2141 4.64284 18.2141Z" fill="#035BFF"/>
<path d="M15.3571 14.2861C13.7792 14.2861 12.5 15.5653 12.5 17.1433C12.5 18.7212 13.7792 20.0004 15.3571 20.0004C16.9351 20.0004 18.2143 18.7212 18.2143 17.1433C18.2125 15.5661 16.9344 14.2879 15.3571 14.2861ZM15.3571 18.929C14.3709 18.929 13.5714 18.1295 13.5714 17.1433C13.5714 16.1571 14.3709 15.3576 15.3571 15.3576C16.3434 15.3576 17.1429 16.1571 17.1429 17.1433C17.1417 18.129 16.3429 18.9278 15.3571 18.929Z" fill="#035BFF"/>
<path d="M9.2857 5.3571V3.63924C9.28567 3.51096 9.35443 3.39253 9.46585 3.32895C9.57726 3.26538 9.71421 3.26645 9.82463 3.33174C10.1236 3.50652 10.4675 3.58891 10.8132 3.56852C11.6559 3.51607 12.3491 2.88538 12.4807 2.05138C12.5988 1.26623 12.1843 0.497415 11.4634 0.164571C10.7426 -0.168274 9.88855 0.0148063 9.36748 0.613881C9.16649 0.843205 8.87636 0.974711 8.57141 0.974711C8.26647 0.974711 7.97634 0.843205 7.77534 0.613881C7.24283 0.00174365 6.36458 -0.174461 5.63715 0.184894C4.90973 0.54425 4.516 1.34883 4.67857 2.14372C4.84115 2.93861 5.51917 3.52399 6.32927 3.56888C6.67513 3.59012 7.01946 3.50768 7.3182 3.3321C7.42856 3.26684 7.56543 3.26574 7.67682 3.32922C7.78821 3.39271 7.85703 3.51103 7.85713 3.63924V5.3571H9.2857ZM10.7143 0.714238C11.306 0.714238 11.7857 1.19393 11.7857 1.78567C11.7857 2.3774 11.306 2.8571 10.7143 2.8571C10.1225 2.8571 9.64284 2.3774 9.64284 1.78567C9.64284 1.19393 10.1225 0.714238 10.7143 0.714238ZM6.42856 2.8571C5.83682 2.8571 5.35713 2.3774 5.35713 1.78567C5.35713 1.19393 5.83682 0.714238 6.42856 0.714238C7.02029 0.714238 7.49998 1.19393 7.49998 1.78567C7.49998 2.06983 7.3871 2.34235 7.18617 2.54328C6.98524 2.74421 6.71272 2.8571 6.42856 2.8571Z" fill="#035BFF"/>
<path d="M17.8571 12.8573H19.3696C18.906 12.2789 18.2355 11.9035 17.5 11.8105V12.5002C17.5 12.6974 17.6599 12.8573 17.8571 12.8573Z" fill="#035BFF"/>
<path d="M5.10714 7.81429L4.87964 9.64286H7.5V7.5H5.46428C5.28335 7.5006 5.13074 7.6349 5.10714 7.81429Z" fill="#035BFF"/>
<path d="M17.8572 13.5713C17.2654 13.5713 16.7857 13.0916 16.7857 12.4999V11.7856H15.4965C15.0444 11.7871 14.6444 11.493 14.5111 11.0609L13.345 7.32415C13.1118 6.57829 12.4208 6.0707 11.6393 6.07129H5.46432C4.5633 6.07307 3.80369 6.74354 3.69003 7.63736L3.27967 10.9284C3.21707 11.3909 2.85492 11.7555 2.39289 11.8213C1.00905 12.0437 -0.00646898 13.2411 3.10259e-05 14.6427V16.4284C3.10259e-05 17.0202 0.479726 17.4999 1.07146 17.4999H1.08967C0.953701 16.1452 1.59971 14.8311 2.7554 14.1115C3.91109 13.3918 5.3754 13.3918 6.53109 14.1115C7.68678 14.8311 8.33279 16.1452 8.19682 17.4999H11.804C11.668 16.1452 12.314 14.8311 13.4697 14.1115C14.6254 13.3918 16.0897 13.3918 17.2454 14.1115C18.4011 14.8311 19.0471 16.1452 18.9111 17.4999H18.9286C19.5203 17.4999 20 17.0202 20 16.4284V14.6427C19.9999 14.2753 19.9285 13.9114 19.7897 13.5713H17.8572ZM5.71432 12.4999H4.28575C4.0885 12.4999 3.9286 12.34 3.9286 12.1427C3.9286 11.9455 4.0885 11.7856 4.28575 11.7856H5.71432C5.91156 11.7856 6.07146 11.9455 6.07146 12.1427C6.07146 12.34 5.91156 12.4999 5.71432 12.4999ZM8.21432 9.99986C8.21432 10.1971 8.05442 10.357 7.85718 10.357H4.47503C4.37261 10.357 4.27513 10.313 4.20736 10.2362C4.13959 10.1594 4.10805 10.0572 4.12075 9.95558L4.39896 7.72343C4.46923 7.1882 4.92449 6.78742 5.46432 6.78558H7.85718C8.05442 6.78558 8.21432 6.94547 8.21432 7.14272V9.99986ZM10.7143 12.4999H9.28575C9.0885 12.4999 8.9286 12.34 8.9286 12.1427C8.9286 11.9455 9.0885 11.7856 9.28575 11.7856H10.7143C10.9116 11.7856 11.0715 11.9455 11.0715 12.1427C11.0715 12.34 10.9116 12.4999 10.7143 12.4999ZM13.3447 10.2116C13.2778 10.3025 13.1718 10.3564 13.059 10.357H9.28575C9.0885 10.357 8.9286 10.1971 8.9286 9.99986V7.14272C8.9286 6.94547 9.0885 6.78558 9.28575 6.78558H11.6393C12.1089 6.783 12.5247 7.08848 12.6625 7.53736L13.3982 9.8945C13.4317 10.0027 13.4118 10.1204 13.3447 10.2116Z" fill="#035BFF"/>
<path d="M11.6393 7.50001L9.64282 7.5V9.64287H12.5714L11.9803 7.75001C11.9345 7.60038 11.7957 7.49868 11.6393 7.50001Z" fill="#035BFF"/>
</svg>
