<svg width="20" height="20" viewBox="0 0 20 20" fill="none" xmlns="http://www.w3.org/2000/svg">
<path d="M18.6701 10.2591C18.5897 10.0945 18.5897 9.90564 18.6701 9.74103L19.4161 8.21506C19.8314 7.36542 19.5023 6.35273 18.6669 5.90949L17.1666 5.1134C17.0047 5.02754 16.8937 4.87473 16.862 4.6943L16.5686 3.02131C16.4052 2.08983 15.5436 1.46389 14.6074 1.59635L12.9256 1.83424C12.7441 1.85987 12.5646 1.80151 12.4329 1.67413L11.2122 0.493195C10.5325 -0.164379 9.46762 -0.164418 8.78793 0.493195L7.56716 1.67424C7.43544 1.80166 7.25595 1.85991 7.07447 1.83436L5.39272 1.59647C4.4562 1.46393 3.59488 2.08994 3.43148 3.02142L3.13805 4.69434C3.10637 4.87481 2.99539 5.02758 2.83356 5.11348L1.33317 5.90957C0.497788 6.35277 0.168727 7.36554 0.584037 8.21518L1.32993 9.74111C1.4104 9.90576 1.4104 10.0946 1.32993 10.2592L0.583998 11.7851C0.168688 12.6348 0.497749 13.6475 1.33313 14.0907L2.83352 14.8868C2.99539 14.9726 3.10637 15.1255 3.13805 15.3059L3.43148 16.9789C3.58023 17.8268 4.30734 18.4215 5.14299 18.4214C5.2253 18.4214 5.30881 18.4157 5.39276 18.4038L7.07451 18.1659C7.25587 18.1402 7.43548 18.1986 7.5672 18.326L8.78793 19.507C9.12785 19.8358 9.56387 20.0002 10 20.0001C10.4361 20.0001 10.8724 19.8357 11.2121 19.507L12.4329 18.326C12.5646 18.1986 12.7442 18.1404 12.9256 18.1659L14.6074 18.4038C15.544 18.5363 16.4052 17.9103 16.5686 16.9788L16.8621 15.3059C16.8937 15.1255 17.0047 14.9727 17.1666 14.8868L18.6669 14.0907C19.5023 13.6475 19.8314 12.6347 19.4161 11.7851L18.6701 10.2591ZM7.69298 4.80926C8.85907 4.80926 9.80777 5.75797 9.80777 6.92406C9.80777 8.09014 8.85907 9.03885 7.69298 9.03885C6.52689 9.03885 5.57819 8.09014 5.57819 6.92406C5.57819 5.75797 6.52689 4.80926 7.69298 4.80926ZM6.60142 14.2143C6.48881 14.3269 6.34119 14.3832 6.19361 14.3832C6.04604 14.3832 5.89838 14.3269 5.7858 14.2143C5.56057 13.9891 5.56057 13.6239 5.7858 13.3986L13.3986 5.78582C13.6238 5.56059 13.989 5.56059 14.2143 5.78582C14.4395 6.01105 14.4395 6.37625 14.2143 6.60148L6.60142 14.2143ZM12.307 15.1909C11.1409 15.1909 10.1922 14.2422 10.1922 13.0761C10.1922 11.91 11.1409 10.9613 12.307 10.9613C13.4731 10.9613 14.4218 11.91 14.4218 13.0761C14.4218 14.2422 13.4731 15.1909 12.307 15.1909Z" fill="#035BFF"/>
</svg>
