<svg width="20" height="20" viewBox="0 0 20 20" fill="none" xmlns="http://www.w3.org/2000/svg">
<path d="M2.10754 16.8647C2.77212 17.4748 3.60273 17.874 4.49426 18.0118C4.59153 17.5226 4.57354 17.0175 4.44173 16.5364C4.30992 16.0553 4.0679 15.6116 3.73485 15.2402L2.10754 16.8647Z" fill="#035BFF"/>
<path d="M10.511 16.1797C10.2489 16.1797 9.99261 16.2574 9.77467 16.4031C9.55672 16.5487 9.38685 16.7557 9.28654 16.9979C9.18624 17.2401 9.16 17.5065 9.21114 17.7636C9.26228 18.0207 9.38851 18.2569 9.57387 18.4422C9.75923 18.6276 9.99538 18.7538 10.2525 18.8049C10.5096 18.8561 10.776 18.8298 11.0182 18.7295C11.2604 18.6292 11.4674 18.4593 11.613 18.2414C11.7586 18.0234 11.8364 17.7672 11.8364 17.505C11.836 17.1536 11.6962 16.8168 11.4477 16.5683C11.1993 16.3198 10.8624 16.1801 10.511 16.1797Z" fill="#035BFF"/>
<path d="M9.77677 13.1687C9.55573 13.2096 9.33141 13.2303 9.10661 13.2304C8.21107 13.2304 7.34745 12.8977 6.68341 12.2969L5.48267 13.4955L8.5813 16.5887C9.36011 15.7473 9.79137 14.6421 9.78833 13.4956C9.78836 13.386 9.7845 13.277 9.77677 13.1687Z" fill="#035BFF"/>
<path d="M4.01172 14.9639C4.38272 15.379 4.65412 15.8732 4.80525 16.409C4.95637 16.9447 4.98323 17.5079 4.88379 18.0557C5.50503 18.1002 6.12883 18.0175 6.71703 17.8127C7.30523 17.6079 7.84546 17.2853 8.30469 16.8645L5.20609 13.7715L4.01172 14.9639Z" fill="#035BFF"/>
<path d="M13.4369 18.1826C13.4254 18.1905 13.4155 18.2006 13.4079 18.2123C13.4003 18.2241 13.3951 18.2372 13.3925 18.2509C13.39 18.2647 13.3902 18.2788 13.3931 18.2925C13.396 18.3061 13.4016 18.3191 13.4095 18.3306C13.5098 18.4753 13.6634 18.5745 13.8365 18.6063C14.0097 18.6381 14.1885 18.6 14.3336 18.5004L14.95 18.0766C15.0338 18.0187 15.1032 17.9423 15.1528 17.8532L14.4609 17.4785L13.4369 18.1826Z" fill="#035BFF"/>
<path d="M14.0752 17.2696L12.9573 16.6641L13.6004 17.5961L14.0752 17.2696Z" fill="#035BFF"/>
<path d="M17.1943 12.3019L12.7274 12.5904L12.5255 13.5318L16.9917 13.8597C17.1108 13.868 17.2294 13.8381 17.3303 13.7743L18.4912 13.0344L17.6988 12.4476C17.5536 12.34 17.3745 12.2883 17.1943 12.3019Z" fill="#035BFF"/>
<path d="M18.0781 3.36809C17.8855 3.0011 17.5944 2.69507 17.2374 2.48438L16.9508 3.10508L17.9807 3.57891L18.0781 3.36809Z" fill="#035BFF"/>
<path d="M16.4675 16.3688L12.2454 14.8379L12.054 15.7304L15.9777 17.8557C16.1473 17.9479 16.3459 17.9712 16.5322 17.9207L17.5004 17.6601L16.7311 16.5699C16.666 16.4774 16.574 16.4071 16.4675 16.3688Z" fill="#035BFF"/>
<path d="M17.0313 14.2515C17.0086 14.2515 16.9859 14.2507 16.9633 14.249L12.443 13.917L12.3282 14.4521L16.6009 16.0013C16.6425 16.0165 16.683 16.0346 16.722 16.0554L18.3338 15.3744L17.173 14.2404C17.1261 14.2477 17.0787 14.2514 17.0313 14.2515Z" fill="#035BFF"/>
<path d="M11.1122 15.4775L11.7632 12.4312L12.3355 12.5535L11.6845 15.5998L11.1122 15.4775Z" fill="#035BFF"/>
<path d="M12.9586 12.184L13.7348 10.503C13.6152 10.4644 13.498 10.4188 13.3837 10.3663C13.2695 10.3135 13.1585 10.2541 13.0511 10.1885L12.16 12.1182L12.5819 12.2083L12.9586 12.184Z" fill="#035BFF"/>
<path d="M10.8387 11.9968L10.7866 11.9213C10.5879 11.6338 10.5027 11.2829 10.5475 10.9363C10.58 10.6854 10.5183 10.4313 10.3744 10.2231L5.22164 2.75648C5.0601 2.52343 4.81284 2.36382 4.53394 2.31258C4.25504 2.26134 3.96719 2.32263 3.73336 2.48305C3.61775 2.56244 3.51894 2.66385 3.44257 2.78148C3.36621 2.89911 3.3138 3.03065 3.28835 3.16856C3.26289 3.30647 3.26488 3.44805 3.29422 3.58519C3.32355 3.72233 3.37965 3.85234 3.4593 3.96777L6.78742 8.79019C7.59441 9.05988 8.31865 9.53222 8.8908 10.162C9.46294 10.7918 9.86383 11.5579 10.0551 12.387C10.2732 12.1841 10.5453 12.0486 10.8387 11.9968ZM4.13953 3.62437C4.11818 3.63859 4.09424 3.64846 4.06908 3.65342C4.04391 3.65839 4.01802 3.65834 3.99287 3.6533C3.96772 3.64825 3.94381 3.6383 3.92251 3.62402C3.90121 3.60973 3.88293 3.59139 3.86871 3.57004L3.82426 3.50297C3.81004 3.48162 3.80017 3.45768 3.79521 3.43251C3.79025 3.40735 3.79029 3.38145 3.79534 3.35631C3.80038 3.33116 3.81033 3.30725 3.82462 3.28595C3.8389 3.26464 3.85724 3.24636 3.87859 3.23215C3.89994 3.21793 3.92389 3.20806 3.94905 3.2031C3.97421 3.19814 4.00011 3.19818 4.02526 3.20323C4.05041 3.20827 4.07431 3.21822 4.09562 3.23251C4.11692 3.24679 4.1352 3.26513 4.14941 3.28648L4.19402 3.35355C4.20823 3.37491 4.21809 3.39886 4.22304 3.42403C4.22799 3.4492 4.22794 3.4751 4.22288 3.50025C4.21782 3.5254 4.20785 3.54931 4.19355 3.5706C4.17925 3.5919 4.16089 3.61017 4.13953 3.62437ZM6.20594 6.72875C6.18459 6.74296 6.16065 6.75284 6.13548 6.7578C6.11032 6.76276 6.08442 6.76272 6.05927 6.75767C6.03413 6.75263 6.01022 6.74268 5.98892 6.72839C5.96761 6.71411 5.94933 6.69576 5.93512 6.67441L4.26461 4.16484C4.24997 4.1435 4.23972 4.11947 4.23446 4.09413C4.22919 4.06879 4.22901 4.04266 4.23393 4.01726C4.23884 3.99185 4.24876 3.96768 4.2631 3.94613C4.27744 3.92459 4.29592 3.90612 4.31747 3.89178C4.33901 3.87744 4.36319 3.86753 4.38859 3.86262C4.414 3.8577 4.44013 3.85789 4.46547 3.86316C4.4908 3.86843 4.51484 3.87868 4.53618 3.89332C4.55751 3.90796 4.57573 3.9267 4.58977 3.94844L6.26031 6.45797C6.28901 6.50108 6.29942 6.55382 6.28923 6.6046C6.27905 6.65538 6.24912 6.70004 6.20602 6.72875H6.20594Z" fill="#035BFF"/>
<path d="M10.7243 15.414L11.3791 12.3612C10.8076 12.3023 10.2749 12.5494 10.1487 12.9486C10.1686 13.1304 10.1787 13.3131 10.1788 13.496C10.1794 14.0234 10.096 14.5475 9.93176 15.0487C10.1497 15.3375 10.5095 15.3927 10.7243 15.414Z" fill="#035BFF"/>
<path d="M15.3153 5.71508L14.2854 5.24121L13.8907 6.09602L14.9206 6.56988L15.3153 5.71508Z" fill="#035BFF"/>
<path d="M3.73513 14.688L4.92974 13.4956L1.83107 10.4023C1.05227 11.2438 0.621009 12.3489 0.624039 13.4955C0.624039 13.6035 0.627802 13.7108 0.635328 13.8176C1.18419 13.7178 1.74858 13.7443 2.28568 13.8951C2.82277 14.0459 3.31846 14.3171 3.73513 14.688Z" fill="#035BFF"/>
<path d="M0.678955 14.2068C0.817395 15.0976 1.21852 15.9269 1.83099 16.5884L3.45845 14.9638C3.08544 14.631 2.64021 14.3894 2.15786 14.258C1.67551 14.1266 1.16924 14.1091 0.678955 14.2068Z" fill="#035BFF"/>
<path d="M6.40707 12.0207C6.03305 11.6089 5.75954 11.116 5.608 10.5807C5.45647 10.0454 5.43103 9.48231 5.53368 8.93555C5.42467 8.92774 5.31549 8.92383 5.20614 8.92383C4.05901 8.92186 2.95303 9.35109 2.10754 10.1264L5.20614 13.2194L6.40707 12.0207Z" fill="#035BFF"/>
<path d="M8.30468 10.1268C7.64137 9.51791 6.81262 9.11903 5.92292 8.98047C5.82713 9.4687 5.846 9.9725 5.97803 10.4522C6.11006 10.9319 6.35165 11.3744 6.68378 11.7448L8.30468 10.1268Z" fill="#035BFF"/>
<path d="M9.73251 12.7791C9.59337 11.8901 9.1926 11.0627 8.5813 10.4023L6.96021 12.0204C7.33233 12.3524 7.77629 12.5936 8.25728 12.7253C8.73827 12.8569 9.2432 12.8753 9.73251 12.7791Z" fill="#035BFF"/>
<path d="M12.7719 7.58731L12.8136 7.49691L12.7333 7.45996C12.7453 7.50277 12.7582 7.54522 12.7719 7.58731Z" fill="#035BFF"/>
<path d="M15.8956 9.02637C15.937 9.00926 15.9782 8.99115 16.0194 8.97203L15.938 8.93457L15.8956 9.02637Z" fill="#035BFF"/>
<path d="M12.6385 5.9502C12.5926 6.29366 12.5917 6.64166 12.636 6.98535L12.9774 7.14242L13.3719 6.28762L12.6385 5.9502Z" fill="#035BFF"/>
<path d="M14.1736 9.12008C14.5663 9.25331 14.9882 9.27542 15.3928 9.18398L15.5832 8.77168L14.5533 8.29785L14.1736 9.12008Z" fill="#035BFF"/>
<path d="M13.1686 7.66016L12.9786 8.07148C13.1711 8.43868 13.462 8.74496 13.8189 8.95594L14.1984 8.13398L13.1686 7.66016Z" fill="#035BFF"/>
<path d="M16.1016 8.58039L16.4425 8.73727C16.7325 8.54708 16.9969 8.3204 17.2292 8.06281L16.4963 7.72559L16.1016 8.58039Z" fill="#035BFF"/>
<path d="M15.1117 7.08789L14.717 7.9427L15.7469 8.41656L16.1417 7.56176L15.1117 7.08789Z" fill="#035BFF"/>
<path d="M17.5103 1.42937C17.1313 1.25594 16.719 1.16708 16.3023 1.16897C14.7495 1.16897 13.0945 2.33761 12.2326 4.20413C11.6123 5.54745 11.5103 7.00534 11.9526 8.20413C12.2648 9.05015 12.8161 9.67507 13.5471 10.0114C15.3647 10.8477 17.7321 9.6028 18.8247 7.23663C19.445 5.89327 19.547 4.43542 19.1048 3.23663C18.7926 2.39058 18.2412 1.76562 17.5103 1.42937ZM18.3716 7.02858C17.6333 8.62718 16.2123 9.62718 14.8761 9.62718C14.5149 9.6288 14.1577 9.55177 13.8292 9.40144C13.1933 9.10886 12.7146 8.56788 12.445 7.8371C12.0665 6.81147 12.1542 5.56308 12.6858 4.41198C13.6229 2.38249 15.6608 1.318 17.2281 2.03913C17.8641 2.33171 18.3427 2.87265 18.6124 3.60343C18.9908 4.62905 18.9031 5.87745 18.3716 7.02854V7.02858Z" fill="#035BFF"/>
<path d="M18.1719 4.09668L17.7773 4.95152L18.443 5.25777C18.4712 4.90067 18.4487 4.54137 18.3761 4.19059L18.1719 4.09668Z" fill="#035BFF"/>
<path d="M17.2188 6.16145L18.1367 6.58375C18.2529 6.28701 18.3388 5.97927 18.393 5.66523L17.6135 5.30664L17.2188 6.16145Z" fill="#035BFF"/>
<path d="M16.6602 7.37023L17.4872 7.75074C17.678 7.49791 17.8433 7.22681 17.9807 6.94141L17.0549 6.51562L16.6602 7.37023Z" fill="#035BFF"/>
<path d="M15.8738 4.50609L14.8439 4.03223L14.4492 4.88703L15.4791 5.3609L15.8738 4.50609Z" fill="#035BFF"/>
<path d="M17.8169 3.93379L16.787 3.45996L16.3923 4.31477L17.4222 4.78859L17.8169 3.93379Z" fill="#035BFF"/>
<path d="M13.3323 7.30598L14.3622 7.7798L14.7568 6.925L13.727 6.45117L13.3323 7.30598Z" fill="#035BFF"/>
<path d="M13.9305 5.07777L13.0059 4.65234C12.8776 4.94177 12.778 5.2431 12.7086 5.55199L13.5358 5.93258L13.9305 5.07777Z" fill="#035BFF"/>
<path d="M17.2586 5.14277L16.2287 4.66895L15.834 5.52375L16.8638 5.99758L17.2586 5.14277Z" fill="#035BFF"/>
<path d="M16.8824 2.32098C16.6546 2.24172 16.4151 2.20154 16.1739 2.20216C16.0021 2.20279 15.8308 2.22142 15.6629 2.25774L15.566 2.46755L16.5959 2.94137L16.8824 2.32098Z" fill="#035BFF"/>
<path d="M16.7001 6.35273L15.6702 5.87891L15.2755 6.73371L16.3054 7.20754L16.7001 6.35273Z" fill="#035BFF"/>
<path d="M14.4891 3.86883L13.7126 3.51172C13.508 3.75637 13.3287 4.02115 13.1776 4.30199L14.0944 4.72387L14.4891 3.86883Z" fill="#035BFF"/>
<path d="M15.0476 2.65934L14.8454 2.56641C14.532 2.74006 14.2443 2.95655 13.9907 3.20961L14.6528 3.5143L15.0476 2.65934Z" fill="#035BFF"/>
<path d="M16.0376 4.1509L16.4323 3.29609L15.4024 2.82227L15.0077 3.67707L16.0376 4.1509Z" fill="#035BFF"/>
</svg>
