<svg width="16" height="20" viewBox="0 0 16 20" fill="none" xmlns="http://www.w3.org/2000/svg">
<path d="M14.3925 9.28571C14.1715 7.06071 12.9278 5.13884 11.1403 3.98973L10.1429 0H4.4286L3.43038 3.99299C1.4548 5.26362 0.142883 7.47652 0.142883 10C0.142883 12.5234 1.45476 14.7363 3.43038 16.007L4.4286 20H10.1429L11.1403 16.0102C12.9278 14.861 14.1715 12.9392 14.3925 10.7143H15.8572V9.28571H14.3925ZM7.28574 15.7143C4.13485 15.7143 1.57145 13.1508 1.57145 10C1.57145 6.84915 4.13485 4.28571 7.28574 4.28571C10.4366 4.28571 13 6.84915 13 10C13 13.1508 10.4366 15.7143 7.28574 15.7143Z" fill="#035BFF"/>
</svg>
