<svg width="40" height="41" viewBox="0 0 40 41" fill="none" xmlns="http://www.w3.org/2000/svg">
<circle cx="20" cy="20.5" r="20" fill="#035BFF"/>
<path d="M29.5839 19.2251L23.5614 18.0165C23.184 17.9254 22.8412 17.7264 22.5749 17.4439C22.3085 17.1614 22.1301 16.8076 22.0614 16.4254L21.2674 10.9612C21.2417 10.6455 21.0999 10.3506 20.8693 10.1335C20.6388 9.91645 20.3359 9.79259 20.0193 9.78593C19.7027 9.77926 19.3948 9.89027 19.1554 10.0975C18.9159 10.3047 18.7617 10.5933 18.7228 10.9076L17.9299 16.4244C17.8618 16.8072 17.6837 17.1619 17.4173 17.4452C17.1509 17.7285 16.8079 17.9282 16.4299 18.0197L10.416 19.2251C10.1054 19.2644 9.81991 19.4157 9.61293 19.6505C9.40595 19.8853 9.29175 20.1876 9.29175 20.5006C9.29175 20.8137 9.40595 21.1159 9.61293 21.3508C9.81991 21.5856 10.1054 21.7369 10.416 21.7762L16.4353 22.9847C16.8122 23.0766 17.1542 23.2761 17.4196 23.559C17.685 23.8419 17.8623 24.196 17.9299 24.5779L18.7281 30.0969C18.7658 30.4069 18.9163 30.6921 19.1508 30.8983C19.3854 31.1044 19.6877 31.2169 19.9999 31.2144C20.3069 31.2228 20.6062 31.1172 20.8399 30.918C21.0736 30.7187 21.2251 30.4399 21.2653 30.1354L22.0656 24.5812C22.133 24.1988 22.3102 23.8444 22.5756 23.5611C22.841 23.2778 23.1832 23.0779 23.5603 22.9858L29.5839 21.7762C29.8944 21.7369 30.18 21.5856 30.3869 21.3508C30.5939 21.1159 30.7081 20.8137 30.7081 20.5006C30.7081 20.1876 30.5939 19.8853 30.3869 19.6505C30.18 19.4157 29.8944 19.2644 29.5839 19.2251Z" fill="white"/>
</svg>
