<svg width="16" height="13" viewBox="0 0 16 13" fill="none" xmlns="http://www.w3.org/2000/svg">
<path d="M14.2893 2.27675H10.7836V0.503249C10.7836 0.225312 10.5583 0 10.2803 0H5.71965C5.44171 0 5.2164 0.225312 5.2164 0.503249V2.27675H1.71065C0.767405 2.27675 0 3.04415 0 3.98737V10.9666C0 11.9099 0.767405 12.6773 1.71065 12.6773H14.2893C15.2326 12.6773 16 11.9099 16 10.9666V3.98737C16 3.04415 15.2326 2.27675 14.2893 2.27675ZM6.22289 1.00653H9.77704V2.27678H6.22289V1.00653ZM2.78293 11.6708H1.71065C1.32237 11.6708 1.0065 11.3549 1.0065 10.9667V3.98737C1.0065 3.59912 1.32237 3.28324 1.71065 3.28324H2.78293V11.6708ZM12.2105 11.6708H3.78946V3.28324H12.2105V11.6708H12.2105ZM14.9935 10.9667C14.9935 11.3549 14.6776 11.6708 14.2893 11.6708H13.217V3.28324H14.2893C14.6776 3.28324 14.9935 3.59912 14.9935 3.98737V10.9667Z" fill="black"/>
</svg>
