<svg width="17" height="16" viewBox="0 0 17 16" fill="none" xmlns="http://www.w3.org/2000/svg">
<g id="Group">
<g id="Group_2">
<path id="Vector" d="M8.49967 11.9588C9.42015 11.9588 10.1663 11.2126 10.1663 10.2922C10.1663 9.37168 9.42015 8.62549 8.49967 8.62549C7.5792 8.62549 6.83301 9.37168 6.83301 10.2922C6.83301 11.2126 7.5792 11.9588 8.49967 11.9588Z" fill="#BDDFFF"/>
<path id="Vector_2" d="M13.4998 4.04199H3.49984C1.65817 4.04199 0.166504 5.53366 0.166504 7.37533V11.9587C0.166504 13.8003 1.65817 15.292 3.49984 15.292H13.4998C15.3415 15.292 16.8332 13.8003 16.8332 11.9587V7.37533C16.8332 5.53366 15.3415 4.04199 13.4998 4.04199ZM8.49984 13.6253C6.65817 13.6253 5.1665 12.1337 5.1665 10.292C5.1665 8.45033 6.65817 6.95866 8.49984 6.95866C10.3415 6.95866 11.8332 8.45033 11.8332 10.292C11.8332 12.1337 10.3415 13.6253 8.49984 13.6253ZM12.7582 6.65866C12.2998 6.65866 11.9248 6.28366 11.9248 5.82533C11.9248 5.36699 12.2998 4.99199 12.7582 4.99199C13.2165 4.99199 13.5915 5.36699 13.5915 5.82533C13.5915 6.28366 13.2165 6.65866 12.7582 6.65866Z" fill="#BDDFFF"/>
</g>
<path id="Vector (Stroke)" fill-rule="evenodd" clip-rule="evenodd" d="M6 1.54183C6 1.08159 6.3731 0.708496 6.83333 0.708496H10.1667C10.6269 0.708496 11 1.08159 11 1.54183C11 2.00207 10.6269 2.37516 10.1667 2.37516H6.83333C6.3731 2.37516 6 2.00207 6 1.54183Z" fill="#BDDFFF"/>
</g>
</svg>
