<svg width="20" height="20" viewBox="0 0 20 20" fill="none" xmlns="http://www.w3.org/2000/svg">
<path fill-rule="evenodd" clip-rule="evenodd" d="M1.74568 2.97987C1.88283 2.68705 2.17699 2.5 2.50034 2.5H17.5003C17.8186 2.5 18.1091 2.68129 18.2489 2.96721C18.3888 3.25312 18.3535 3.59372 18.1581 3.84495L12.658 10.9166V15.4955C12.658 15.8111 12.4797 16.0997 12.1973 16.2409L8.95409 17.8625C8.69577 17.9916 8.38899 17.9778 8.14331 17.826C7.89763 17.6742 7.74808 17.4059 7.74808 17.1171V10.9323L1.86015 3.86682C1.65315 3.61842 1.60853 3.27269 1.74568 2.97987ZM4.27954 4.16667L9.2216 10.0971C9.3464 10.2469 9.41475 10.4357 9.41475 10.6306V15.7688L10.9913 14.9805V10.6306C10.9913 10.4453 11.0531 10.2653 11.1669 10.119L15.7965 4.16667H4.27954Z" fill="#5979A7"/>
</svg>
