<svg width="12" height="12" viewBox="0 0 12 12" fill="none" xmlns="http://www.w3.org/2000/svg">
<g id="Group 1316">
<path id="Union" fill-rule="evenodd" clip-rule="evenodd" d="M1.70735 0.292893C1.31683 -0.0976311 0.683662 -0.0976311 0.293137 0.292893C-0.0973869 0.683418 -0.0973869 1.31658 0.293137 1.70711L4.58603 6L0.293191 10.2928C-0.0973334 10.6834 -0.0973324 11.3165 0.293192 11.7071C0.683716 12.0976 1.31688 12.0976 1.7074 11.7071L6.00024 7.41421L10.2929 11.7069C10.6835 12.0974 11.3166 12.0974 11.7071 11.7069C12.0977 11.3164 12.0977 10.6832 11.7071 10.2927L7.41446 6L11.7072 1.70726C12.0977 1.31673 12.0977 0.683569 11.7072 0.293044C11.3167 -0.09748 10.6835 -0.09748 10.293 0.293044L6.00024 4.58579L1.70735 0.292893Z" fill="#5979A7"/>
</g>
</svg>
