<svg width="120" height="36" viewBox="0 0 120 36" fill="none" xmlns="http://www.w3.org/2000/svg">
<path d="M1 18H99" stroke="#BDDFFF" stroke-width="2" stroke-linecap="round"/>
<path d="M101.189 33C102.149 33 103.004 32.385 103.319 31.485L107.249 19.935C107.669 18.69 107.669 17.325 107.249 16.065L103.319 4.515C103.004 3.6 102.149 3 101.189 3C99.9445 3 98.9545 4.005 98.9545 5.235L98.9545 12C98.9545 13.275 98.1595 14.4 96.9595 14.835L92.4444 16.425C91.4694 16.77 90.4494 16.05 90.4494 15.015L90.4494 14.25C90.4494 13.425 89.7744 12.75 88.9494 12.75C88.1244 12.75 87.4494 13.425 87.4494 14.25L87.4494 21.75C87.4494 22.575 88.1244 23.25 88.9494 23.25C89.7744 23.25 90.4494 22.575 90.4494 21.75L90.4494 20.985C90.4494 19.95 91.4694 19.23 92.4444 19.575L96.9595 21.165C98.1595 21.585 98.9545 22.725 98.9545 24L98.9545 30.765C98.9545 32.01 99.9595 33 101.189 33Z" fill="#BDDFFF"/>
<path fill-rule="evenodd" clip-rule="evenodd" d="M113.55 18C113.55 16.3384 112.211 15 110.55 15C109.721 15 109.05 14.3284 109.05 13.5C109.05 12.6716 109.721 12 110.55 12C113.868 12 116.55 14.6816 116.55 18C116.55 21.3184 113.868 24 110.55 24C109.721 24 109.05 23.3284 109.05 22.5C109.05 21.6716 109.721 21 110.55 21C112.211 21 113.55 19.6616 113.55 18Z" fill="#BDDFFF"/>
</svg>
