<svg width="120" height="50" viewBox="0 0 120 50" fill="none" xmlns="http://www.w3.org/2000/svg">
<path d="M8 1H103.5C112.06 1 119 7.93959 119 16.5V16.5C119 25.0604 112.06 32 103.5 32H26.9077" stroke="#A5B9D7" stroke-width="2" stroke-linecap="round"/>
<path d="M18.8105 17C17.8505 17 16.9955 17.615 16.6805 18.515L12.7505 30.065C12.3305 31.31 12.3305 32.675 12.7505 33.935L16.6806 45.485C16.9956 46.4 17.8505 47 18.8105 47C20.0555 47 21.0455 45.995 21.0455 44.765L21.0455 38C21.0455 36.725 21.8405 35.6 23.0405 35.165L27.5555 33.575C28.5305 33.23 29.5506 33.95 29.5506 34.985L29.5506 35.75C29.5506 36.575 30.2256 37.25 31.0506 37.25C31.8756 37.25 32.5506 36.575 32.5506 35.75L32.5506 28.25C32.5506 27.425 31.8756 26.75 31.0506 26.75C30.2256 26.75 29.5506 27.425 29.5506 28.25L29.5506 29.015C29.5506 30.05 28.5305 30.77 27.5555 30.425L23.0405 28.835C21.8405 28.415 21.0455 27.275 21.0455 26L21.0455 19.235C21.0455 17.99 20.0405 17 18.8105 17Z" fill="#BDDFFF"/>
<path fill-rule="evenodd" clip-rule="evenodd" d="M6.4502 32C6.4502 33.6616 7.78862 35 9.4502 35C10.2786 35 10.9502 35.6716 10.9502 36.5C10.9502 37.3284 10.2786 38 9.4502 38C6.13177 38 3.4502 35.3184 3.4502 32C3.45019 28.6816 6.13177 26 9.45019 26C10.2786 26 10.9502 26.6716 10.9502 27.5C10.9502 28.3284 10.2786 29 9.45019 29C7.78862 29 6.45019 30.3384 6.4502 32Z" fill="#BDDFFF"/>
</svg>
