<svg width="176" height="177" viewBox="0 0 176 177" fill="none" xmlns="http://www.w3.org/2000/svg">
<g clip-path="url(#clip0_7480_18501)">
<path d="M35.1996 18.0996H17.5996V35.6996H35.1996V18.0996Z" fill="black"/>
<path d="M123.2 0.5V9.3H114.4V18.1H123.2V53.3H132V62.1H123.2V70.9H132H140.8V53.3H167.2V62.1H176V53.3V0.5H123.2ZM167.2 44.5H132V9.3H167.2V44.5Z" fill="black"/>
<path d="M158.401 18.0996H140.801V35.6996H158.401V18.0996Z" fill="black"/>
<path d="M35.1996 141.301H17.5996V158.901H35.1996V141.301Z" fill="black"/>
<path d="M131.999 123.699H123.199V132.499H131.999V123.699Z" fill="black"/>
<path d="M87.9992 167.699H79.1992V176.499H87.9992V167.699Z" fill="black"/>
<path d="M96.8 132.5H88V141.3H96.8V132.5Z" fill="black"/>
<path d="M96.8 150.1H88V158.9H96.8V150.1Z" fill="black"/>
<path d="M175.999 106.1H167.199V114.9H175.999V106.1Z" fill="black"/>
<path d="M8.8 106.1H0V114.9H8.8V106.1Z" fill="black"/>
<path d="M8.8 62.0996H0V70.8996H8.8V62.0996Z" fill="black"/>
<path d="M96.7992 9.30078V18.1008H79.1992V26.9008H105.599V18.1008V9.30078H96.7992Z" fill="black"/>
<path d="M167.2 70.9004V79.7004H149.6V88.5004H123.2V79.7004H114.4V88.5004H96.7996V97.3004H123.2V106.1H105.6H96.7996V97.3004H87.9996V106.1H79.1996V97.3004H70.3996V106.1H61.5996V114.9H79.1996V123.7H87.9996V114.9H105.6V123.7H96.7996V132.5H105.6V150.1H114.4V158.9H123.2V150.1H149.6V132.5H158.4V123.7H149.6V106.1H132V97.3004H149.6V106.1H158.4V97.3004H167.2V88.5004H176V79.7004V70.9004H167.2ZM140.8 114.9V141.3H114.4V114.9H140.8Z" fill="black"/>
<path d="M114.401 53.3008H105.601V62.1008H96.8008V70.9008V79.7008H105.601V70.9008H114.401V62.1008H123.201V53.3008H114.401Z" fill="black"/>
<path d="M114.401 167.699H96.8008V176.499H114.401V167.699Z" fill="black"/>
<path d="M79.2004 9.30078H70.4004V18.1008H79.2004V9.30078Z" fill="black"/>
<path d="M149.601 70.9004H140.801V79.7004H149.601V70.9004Z" fill="black"/>
<path d="M158.4 62.0996H149.6V70.8996H158.4V62.0996Z" fill="black"/>
<path d="M43.9992 106.1H35.1992V114.9H43.9992V106.1Z" fill="black"/>
<path d="M52.8 167.7V132.5H61.6V123.7V114.9H52.8V123.7H26.4V114.9H17.6H8.8V123.7H0V176.5H52.8H70.4V167.7H52.8ZM44 167.7H8.8V132.5H44V167.7Z" fill="black"/>
<path d="M61.6008 53.3008H52.8008V62.1008H61.6008V53.3008Z" fill="black"/>
<path d="M61.6 0.5H52.8H0V53.3H8.8V62.1H17.6V53.3H26.4V62.1H35.2V53.3H52.8V35.7H61.6V26.9H52.8V9.3H61.6H70.4V0.5H61.6ZM44 44.5H8.8V9.3H44V44.5Z" fill="black"/>
<path d="M114.4 26.9004H105.6V35.7004H114.4V26.9004Z" fill="black"/>
<path d="M96.8 0.5H88V9.3H96.8V0.5Z" fill="black"/>
<path d="M105.6 53.2992V44.4992H96.8V35.6992H88V44.4992H70.4V35.6992H61.6V44.4992V53.2992H70.4V70.8992H44V62.0992H35.2V70.8992H8.8V79.6992H26.4V88.4992H0V97.2992H26.4V106.099H35.2V97.2992H44V106.099H52.8V97.2992H70.4V88.4992H61.6V79.6992H70.4H79.2V88.4992H88H96.8V79.6992H88V70.8992H79.2V53.2992H105.6ZM52.8 88.4992H35.2V79.6992H52.8V88.4992Z" fill="black"/>
<path d="M79.1996 141.299V132.499V123.699H70.3996V132.499H61.5996V141.299H70.3996V150.099H61.5996V158.899H79.1996V150.099H87.9996V141.299H79.1996Z" fill="black"/>
<path d="M158.399 158.9V150.1H149.599V158.9H123.199V167.7H140.799V176.5H149.599V167.7H167.199V176.5H175.999V167.7V158.9H158.399Z" fill="black"/>
<path d="M167.2 123.699V132.499H158.4V141.299H176V132.499V123.699H167.2Z" fill="black"/>
</g>
<defs>
<clipPath id="clip0_7480_18501">
<rect width="176" height="176" fill="white" transform="translate(0 0.5)"/>
</clipPath>
</defs>
</svg>
