<svg width="52" height="54" viewBox="0 0 52 54" fill="none" xmlns="http://www.w3.org/2000/svg">
<g id="Group">
<path id="Vector" d="M27.4398 0.333168C25.7331 0.333168 24.2131 1.42651 23.6531 3.02651L16.6664 23.5598C15.9198 25.7732 15.9198 28.1998 16.6664 30.4398L23.6531 50.9732C24.2131 52.5998 25.7331 53.6665 27.4398 53.6665C29.6531 53.6665 31.4131 51.8798 31.4131 49.6932L31.4131 37.6665C31.4131 35.3998 32.8264 33.3998 34.9598 32.6265L42.9865 29.7998C44.7198 29.1865 46.5331 30.4665 46.5331 32.3065L46.5331 33.6665C46.5331 35.1332 47.7331 36.3332 49.1998 36.3332C50.6665 36.3332 51.8665 35.1332 51.8665 33.6665L51.8665 20.3332C51.8665 18.8665 50.6665 17.6665 49.1998 17.6665C47.7331 17.6665 46.5331 18.8665 46.5331 20.3332L46.5331 21.6932C46.5331 23.5332 44.7198 24.8132 42.9865 24.1998L34.9598 21.3732C32.8264 20.6265 31.4131 18.5998 31.4131 16.3332L31.4131 4.3065C31.4131 2.09316 29.6264 0.333168 27.4398 0.333168Z" fill="#BDDFFF"/>
<path id="Vector (Stroke)" fill-rule="evenodd" clip-rule="evenodd" d="M5.46663 26.9998C5.46663 29.9537 7.84606 32.3332 10.8 32.3332C12.2727 32.3332 13.4666 33.5271 13.4666 34.9998C13.4666 36.4726 12.2727 37.6665 10.8 37.6665C4.90054 37.6665 0.133301 32.8993 0.133301 26.9998C0.133301 21.1004 4.90054 16.3332 10.8 16.3332C12.2727 16.3332 13.4666 17.5271 13.4666 18.9998C13.4666 20.4726 12.2727 21.6665 10.8 21.6665C7.84606 21.6665 5.46663 24.0459 5.46663 26.9998Z" fill="#BDDFFF"/>
</g>
</svg>
