<svg width="328" height="1090" viewBox="0 0 328 1090" fill="none" xmlns="http://www.w3.org/2000/svg">
<path fill-rule="evenodd" clip-rule="evenodd" d="M21 9C25.9706 9 30 4.97056 30 0H38C38 4.97056 42.0294 9 47 9C51.9706 9 56 4.97056 56 0H64C64 4.97056 68.0294 9 73 9C77.9706 9 82 4.97056 82 0H90C90 4.97056 94.0294 9 99 9C103.971 9 108 4.97056 108 0H116C116 4.97056 120.029 9 125 9C129.971 9 134 4.97056 134 0H142C142 4.97056 146.029 9 151 9C155.971 9 160 4.97056 160 0H168C168 4.97056 172.029 9 177 9C181.971 9 186 4.97056 186 0H194C194 4.97056 198.029 9 203 9C207.971 9 212 4.97056 212 0H220C220 4.97056 224.029 9 229 9C233.971 9 238 4.97056 238 0H246C246 4.97056 250.029 9 255 9C259.971 9 264 4.97056 264 0H272C272 4.97056 276.029 9 281 9C285.971 9 290 4.97056 290 0H298C298 4.97056 302.029 9 307 9C311.971 9 316 4.97056 316 0C322.627 0 328 5.37258 328 12V312C321.373 312 316 317.373 316 324C316 330.627 321.373 336 328 336V618C321.373 618 316 623.373 316 630C316 636.627 321.373 642 328 642V1078C328 1084.63 322.627 1090 316 1090C316 1085.03 311.971 1081 307 1081C302.029 1081 298 1085.03 298 1090H290C290 1085.03 285.971 1081 281 1081C276.029 1081 272 1085.03 272 1090H264C264 1085.03 259.971 1081 255 1081C250.029 1081 246 1085.03 246 1090H238C238 1085.03 233.971 1081 229 1081C224.029 1081 220 1085.03 220 1090H212C212 1085.03 207.971 1081 203 1081C198.029 1081 194 1085.03 194 1090H186C186 1085.03 181.971 1081 177 1081C172.029 1081 168 1085.03 168 1090H160C160 1085.03 155.971 1081 151 1081C146.029 1081 142 1085.03 142 1090H134C134 1085.03 129.971 1081 125 1081C120.029 1081 116 1085.03 116 1090H108C108 1085.03 103.971 1081 99 1081C94.0294 1081 90 1085.03 90 1090H82C82 1085.03 77.9706 1081 73 1081C68.0294 1081 64 1085.03 64 1090H56C56 1085.03 51.9706 1081 47 1081C42.0294 1081 38 1085.03 38 1090H30C30 1085.03 25.9706 1081 21 1081C16.0294 1081 12 1085.03 12 1090C5.37259 1090 0 1084.63 0 1078V642C6.62742 642 12 636.627 12 630C12 623.373 6.62742 618 0 618V336C6.62742 336 12 330.627 12 324C12 317.373 6.62742 312 0 312V12C0 5.37256 5.37258 0 12 0C12 4.97056 16.0294 9 21 9Z" fill="white"/>
<line x1="17" y1="324" x2="311" y2="324" stroke="#F5F4FB" stroke-width="2" stroke-linecap="round" stroke-dasharray="12 12"/>
<line x1="18" y1="629" x2="312" y2="629" stroke="#F5F4FB" stroke-width="2" stroke-linecap="round" stroke-dasharray="12 12"/>
</svg>
