<svg width="20" height="20" viewBox="0 0 20 20" fill="none" xmlns="http://www.w3.org/2000/svg">
<g clip-path="url(#clip0_4766_22815)">
<path d="M14.5833 3.33398C13.4742 3.33398 12.4767 3.89648 11.9142 4.83898C11.7367 5.13482 11.8333 5.51898 12.13 5.69565C12.4283 5.87232 12.8108 5.77565 12.9867 5.47898C13.3217 4.91898 13.9183 4.58398 14.5833 4.58398C15.2483 4.58398 15.845 4.91898 16.18 5.47898C16.3542 5.77315 16.7367 5.87315 17.0367 5.69565C17.3325 5.51898 17.43 5.13482 17.2525 4.83898C16.69 3.89648 15.6925 3.33398 14.5833 3.33398Z" fill="#035BFF"/>
<path d="M18.0517 3.75482C18.2642 4.02398 18.6567 4.07232 18.9292 3.85732C19.2 3.64315 19.2458 3.24982 19.0317 2.97898C17.9533 1.61565 16.3325 0.833984 14.5833 0.833984C12.8342 0.833984 11.2133 1.61565 10.135 2.97982C9.92083 3.25065 9.96667 3.64315 10.2375 3.85815C10.51 4.07315 10.9025 4.02565 11.115 3.75565C11.9558 2.69315 13.2192 2.08398 14.5833 2.08398C15.9475 2.08398 17.2108 2.69315 18.0517 3.75482Z" fill="#035BFF"/>
<path d="M2.29167 17.5H2.5V18.3333C2.5 18.7933 2.8725 19.1667 3.33333 19.1667C3.79417 19.1667 4.16667 18.7933 4.16667 18.3333V17.5H15.8333V18.3333C15.8333 18.7933 16.2058 19.1667 16.6667 19.1667C17.1275 19.1667 17.5 18.7933 17.5 18.3333V17.5H17.7083C18.9725 17.5 20 16.4725 20 15.2083V12.2917C20 11.0275 18.9725 10 17.7083 10H15.4167V6.77083C15.4167 6.31083 15.0442 5.9375 14.5833 5.9375C14.1225 5.9375 13.75 6.31083 13.75 6.77083V10H2.29167C1.0275 10 0 11.0275 0 12.2917V15.2083C0 16.4725 1.0275 17.5 2.29167 17.5ZM17.5 13.75C17.5 14.44 16.94 15 16.25 15C15.56 15 15 14.44 15 13.75C15 13.06 15.56 12.5 16.25 12.5C16.94 12.5 17.5 13.06 17.5 13.75ZM7.91667 12.5C8.60667 12.5 9.16667 13.06 9.16667 13.75C9.16667 14.44 8.60667 15 7.91667 15C7.22667 15 6.66667 14.44 6.66667 13.75C6.66667 13.06 7.22667 12.5 7.91667 12.5ZM3.75 12.5C4.44 12.5 5 13.06 5 13.75C5 14.44 4.44 15 3.75 15C3.06 15 2.5 14.44 2.5 13.75C2.5 13.06 3.06 12.5 3.75 12.5Z" fill="#035BFF"/>
</g>
<defs>
<clipPath id="clip0_4766_22815">
<rect width="20" height="20" fill="white"/>
</clipPath>
</defs>
</svg>
