<svg width="20" height="20" viewBox="0 0 20 20" fill="none" xmlns="http://www.w3.org/2000/svg">
<g clip-path="url(#clip0_4766_22785)">
<path d="M6.88043 15.295C7.85505 15.295 8.64514 14.505 8.64514 13.5303C8.64514 12.5557 7.85505 11.7656 6.88043 11.7656C5.90581 11.7656 5.11573 12.5557 5.11573 13.5303C5.11573 14.505 5.90581 15.295 6.88043 15.295Z" fill="#035BFF"/>
<path d="M13.351 4.11822H14.5275C14.5275 3.14516 13.7358 2.35352 12.7628 2.35352V3.52999C13.0871 3.52999 13.351 3.79387 13.351 4.11822Z" fill="#035BFF"/>
<path d="M15.704 4.11765H16.8804C16.8804 1.84722 15.0332 0 12.7628 0V1.17647C14.3845 1.17647 15.704 2.49588 15.704 4.11765Z" fill="#035BFF"/>
<path d="M8.51824 15.9707C8.0498 16.2859 7.48628 16.4702 6.88043 16.4702C6.27459 16.4702 5.71102 16.2859 5.24259 15.9707L4.64976 18.8231H2.76278V19.9996H10.9981V18.8231H9.1111L8.51824 15.9707Z" fill="#035BFF"/>
<path d="M2.76278 6.27514C2.76278 8.23424 3.44278 10.0886 4.6902 11.5697C5.2291 10.9682 6.01118 10.5889 6.88043 10.5889C8.5022 10.5889 9.82161 11.9083 9.82161 13.53C9.82161 13.835 9.7749 14.1293 9.68835 14.4061C10.1215 14.4756 10.5593 14.5107 10.9976 14.5107C11.6222 14.5107 12.2478 14.4399 12.8618 14.2978C13.3225 14.1912 13.771 14.0453 14.203 13.8628L3.40851 3.06836C2.98525 4.06973 2.76278 5.15526 2.76278 6.27514Z" fill="#035BFF"/>
<path d="M11.6477 6.09214L12.6707 5.16249L11.8795 4.29182L10.8149 5.25931L5.59078 0.0351562L5.17486 0.451156C4.71098 0.914999 4.3098 1.42476 3.97439 1.96971L15.3015 13.2968C15.8499 12.9602 16.3603 12.5585 16.8213 12.0976L17.2372 11.6817L11.6477 6.09214Z" fill="#035BFF"/>
</g>
<defs>
<clipPath id="clip0_4766_22785">
<rect width="20" height="20" fill="white"/>
</clipPath>
</defs>
</svg>
