<svg width="20" height="20" viewBox="0 0 20 20" fill="none" xmlns="http://www.w3.org/2000/svg">
<g clip-path="url(#clip0_4766_22759)">
<path d="M5.44238 4.61392L3.78527 2.95681C3.5564 2.72794 3.18558 2.72794 2.95672 2.95681C2.72785 3.18567 2.72785 3.55649 2.95672 3.78536L4.61382 5.44247C4.84269 5.67134 5.21351 5.67134 5.44238 5.44247C5.67125 5.2136 5.67125 4.84278 5.44238 4.61392Z" fill="#035BFF"/>
<path d="M2.96875 9.41406H0.585938C0.26207 9.41406 0 9.67613 0 10C0 10.3239 0.26207 10.5859 0.585938 10.5859H2.96875C3.29262 10.5859 3.55469 10.3239 3.55469 10C3.55469 9.67613 3.29262 9.41406 2.96875 9.41406Z" fill="#035BFF"/>
<path d="M19.4141 9.41406H17.0312C16.7074 9.41406 16.4453 9.67613 16.4453 10C16.4453 10.3239 16.7074 10.5859 17.0312 10.5859H19.4141C19.7379 10.5859 20 10.3239 20 10C20 9.67613 19.7379 9.41406 19.4141 9.41406Z" fill="#035BFF"/>
<path d="M17.0433 2.95681C16.8144 2.72794 16.4436 2.72794 16.2147 2.95681L14.5576 4.61392C14.3287 4.84278 14.3287 5.2136 14.5576 5.44247C14.7865 5.67134 15.1573 5.67134 15.3862 5.44247L17.0433 3.78536C17.2721 3.55649 17.2721 3.18571 17.0433 2.95681Z" fill="#035BFF"/>
<path d="M10 0C9.67613 0 9.41406 0.26207 9.41406 0.585938V2.96875C9.41406 3.29262 9.67613 3.55469 10 3.55469C10.3239 3.55469 10.5859 3.29262 10.5859 2.96875V0.585938C10.5859 0.26207 10.3239 0 10 0Z" fill="#035BFF"/>
<path d="M13.2812 5.86231C12.0039 4.8545 10.3516 4.49126 8.73437 4.87798C6.85937 5.31157 5.34769 6.79981 4.89062 8.66314C4.43359 10.5381 4.96093 12.4365 6.30855 13.7608C6.78906 14.2413 7.07031 14.9951 7.07031 15.7686V15.8975C7.07031 16.2256 7.32808 16.4834 7.65625 16.4834H12.3437C12.6719 16.4834 12.9297 16.2256 12.9297 15.8975V15.7686C12.9297 15.0068 13.2227 14.2295 13.7383 13.7256C14.7227 12.7295 15.2734 11.4053 15.2734 9.99907C15.2734 8.38188 14.5469 6.87013 13.2812 5.86231ZM10 8.24126C9.11601 8.24126 8.4725 8.82763 8.30398 9.50642C8.2273 9.81513 7.91668 10.0122 7.59386 9.93442C7.28031 9.85661 7.08859 9.53845 7.16644 9.22489C7.45676 8.05302 8.55746 7.06939 10 7.06939C10.3239 7.06939 10.5859 7.33146 10.5859 7.65532C10.5859 7.97919 10.3239 8.24126 10 8.24126Z" fill="#035BFF"/>
<path d="M7.65625 17.6562V18.2422C7.65625 19.2115 8.44477 20 9.41406 20H10.5859C11.5552 20 12.3438 19.2115 12.3438 18.2422V17.6562H7.65625Z" fill="#035BFF"/>
</g>
<defs>
<clipPath id="clip0_4766_22759">
<rect width="20" height="20" fill="white"/>
</clipPath>
</defs>
</svg>
