<svg width="20" height="20" viewBox="0 0 20 20" fill="none" xmlns="http://www.w3.org/2000/svg">
<g clip-path="url(#clip0_4766_22798)">
<path fill-rule="evenodd" clip-rule="evenodd" d="M14.9904 15.9492C14.9331 17.4423 13.6943 18.646 12.1878 18.646H7.81219C6.30568 18.646 5.0669 17.4423 5.0096 15.9492H14.9904Z" fill="#035BFF"/>
<path fill-rule="evenodd" clip-rule="evenodd" d="M14.9927 8.15039V14.105H5.00729V8.15039H14.9927ZM9.42786 13.302C7.87992 12.2193 9.25582 10.0183 10 8.88475C10.7442 10.0183 12.1201 12.2193 10.5721 13.302C10.5452 13.3291 10.5028 13.352 10.4498 13.3706C11.0389 12.686 10.3721 11.491 10 10.8552C9.62796 11.491 8.96109 12.686 9.55021 13.3706C9.49725 13.352 9.4548 13.3291 9.42786 13.302Z" fill="#035BFF"/>
<path fill-rule="evenodd" clip-rule="evenodd" d="M7.81219 3.61133H12.1878C13.6943 3.61133 14.9331 4.81504 14.9904 6.30813H5.0096C5.0669 4.81504 6.30568 3.61133 7.81219 3.61133Z" fill="#035BFF"/>
<path d="M12.0034 3.61924C12.0034 3.86815 12.2052 4.06995 12.4541 4.06995C12.703 4.06995 12.9048 3.86815 12.9048 3.61924V1.27539H12.0034V3.61924ZM7.09517 1.27539V3.61924C7.09517 3.86815 7.29697 4.06995 7.54588 4.06995C7.79479 4.06995 7.99659 3.86815 7.99659 3.61924V1.27539H7.09517Z" fill="#035BFF"/>
<path d="M12.9783 0H7.02159C6.66919 0 6.38351 0.285675 6.38351 0.638074C6.38351 0.990473 6.66919 1.27615 7.02159 1.27615H12.9783C13.3307 1.27615 13.6164 0.990473 13.6164 0.638074C13.6164 0.285675 13.3307 0 12.9783 0Z" fill="#035BFF"/>
<path d="M9.64479 3.61072C9.64479 3.80888 9.80383 3.96952 10 3.96952C10.1962 3.96952 10.3552 3.80888 10.3552 3.61072V2.43889C10.3552 2.24073 10.1962 2.08008 10 2.08008C9.80383 2.08008 9.64479 2.24073 9.64479 2.43889V3.61072Z" fill="#035BFF"/>
<path d="M9.42371 2.07812C9.22412 2.07812 9.06236 2.23988 9.06236 2.43947C9.06236 2.63901 9.22412 2.80081 9.42371 2.80081H10.5763C10.7759 2.80081 10.9377 2.63901 10.9377 2.43947C10.9377 2.23988 10.7759 2.07812 10.5763 2.07812H9.42371Z" fill="#035BFF"/>
<path fill-rule="evenodd" clip-rule="evenodd" d="M12.1878 19.0054H7.81219C7.75392 19.0054 7.69611 19.0036 7.63872 19V19.4791C7.63872 19.7653 7.87291 19.9995 8.15914 19.9995H11.8409C12.1271 19.9995 12.3613 19.7653 12.3613 19.4791V19C12.3039 19.0036 12.2461 19.0054 12.1878 19.0054Z" fill="#035BFF"/>
<path fill-rule="evenodd" clip-rule="evenodd" d="M14.9927 14.4668H5.00729V15.5888H14.9927V14.4668Z" fill="#035BFF"/>
<path fill-rule="evenodd" clip-rule="evenodd" d="M5.00729 6.66797V7.78993H14.9927V6.66797H5.00729Z" fill="#035BFF"/>
</g>
<defs>
<clipPath id="clip0_4766_22798">
<rect width="20" height="20" fill="white"/>
</clipPath>
</defs>
</svg>
