<svg width="12" height="20" viewBox="0 0 12 20" fill="none" xmlns="http://www.w3.org/2000/svg">
<path d="M9.31305 0H2.6585C1.48413 0.00133168 0.532476 0.952981 0.531311 2.12735V17.8728C0.532476 19.0471 1.48413 19.9988 2.6585 19.9999H9.31305C10.4874 19.9988 11.4391 19.0471 11.4404 17.8728V2.12735C11.4391 0.952981 10.4874 0.00133168 9.31305 0ZM5.98586 18.1819C5.48365 18.1819 5.07665 17.7749 5.07665 17.2727C5.07665 16.7706 5.48365 16.3636 5.98586 16.3636C6.4879 16.3636 6.89489 16.7706 6.89489 17.2727C6.89489 17.7749 6.4879 18.1819 5.98586 18.1819ZM7.34949 2.72727H4.62222C4.3712 2.72727 4.16762 2.52369 4.16762 2.27267C4.16762 2.02165 4.3712 1.81824 4.62222 1.81824H7.34949C7.60051 1.81824 7.80393 2.02165 7.80393 2.27267C7.80393 2.52369 7.60051 2.72727 7.34949 2.72727Z" fill="#035BFF"/>
</svg>
