<svg width="20" height="20" viewBox="0 0 20 20" fill="none" xmlns="http://www.w3.org/2000/svg">
<g clip-path="url(#clip0_4518_6726)">
<path d="M9.58333 10.2033C12.1146 10.2033 14.1667 8.15126 14.1667 5.61995C14.1667 3.08865 12.1146 1.03662 9.58333 1.03662C7.05203 1.03662 5 3.08865 5 5.61995C5 8.15126 7.05203 10.2033 9.58333 10.2033Z" fill="#5979A7"/>
<path fill-rule="evenodd" clip-rule="evenodd" d="M10.7709 18.1297C9.90502 17.1997 9.37502 15.9531 9.37502 14.5831C9.37502 13.1806 9.93085 11.9064 10.8342 10.9697C10.4259 10.9381 10.0084 10.9214 9.58335 10.9214C6.81502 10.9214 4.36419 11.6139 2.84252 12.6514C1.68169 13.4431 1.04169 14.4489 1.04169 15.5047V16.7131C1.04169 17.0889 1.19085 17.4497 1.45669 17.7147C1.72252 17.9806 2.08252 18.1297 2.45835 18.1297H10.7709Z" fill="#5979A7"/>
<path fill-rule="evenodd" clip-rule="evenodd" d="M14.5834 10.2085C12.1684 10.2085 10.2084 12.1685 10.2084 14.5835C10.2084 16.9985 12.1684 18.9585 14.5834 18.9585C16.9984 18.9585 18.9584 16.9985 18.9584 14.5835C18.9584 12.1685 16.9984 10.2085 14.5834 10.2085ZM13.9584 14.5835V16.6668C13.9584 17.0118 14.2384 17.2918 14.5834 17.2918C14.9284 17.2918 15.2084 17.0118 15.2084 16.6668V14.5835C15.2084 14.2385 14.9284 13.9585 14.5834 13.9585C14.2384 13.9585 13.9584 14.2385 13.9584 14.5835ZM14.5834 11.8752C15.0434 11.8752 15.4167 12.2485 15.4167 12.7085C15.4167 13.1685 15.0434 13.5418 14.5834 13.5418C14.1234 13.5418 13.75 13.1685 13.75 12.7085C13.75 12.2485 14.1234 11.8752 14.5834 11.8752Z" fill="#5979A7"/>
</g>
<defs>
<clipPath id="clip0_4518_6726">
<rect width="20" height="20" fill="white"/>
</clipPath>
</defs>
</svg>
