<svg width="24" height="24" viewBox="0 0 24 24" fill="none" xmlns="http://www.w3.org/2000/svg">
<g clip-path="url(#clip0_4518_6697)">
<g clip-path="url(#clip1_4518_6697)">
<path d="M15.125 6.375H3.875C3.37817 6.37645 2.90209 6.57446 2.55078 6.92578C2.19946 7.27709 2.00145 7.75317 2 8.25V17.625C2.00102 18.0126 2.12162 18.3905 2.34533 18.707C2.56903 19.0236 2.88496 19.2634 3.25 19.3937V21.375C3.2506 21.4927 3.28433 21.6079 3.34733 21.7074C3.41033 21.8069 3.50006 21.8866 3.60625 21.9375C3.68932 21.9801 3.78164 22.0016 3.875 22C4.01632 22.0012 4.15353 21.9525 4.2625 21.8625L7.21875 19.5H15.125C15.6218 19.4985 16.0979 19.3005 16.4492 18.9492C16.8005 18.5979 16.9985 18.1218 17 17.625V8.25C16.9985 7.75317 16.8005 7.27709 16.4492 6.92578C16.0979 6.57446 15.6218 6.37645 15.125 6.375ZM9.5 17C9.37639 17 9.25555 16.9633 9.15277 16.8947C9.04999 16.826 8.96988 16.7284 8.92258 16.6142C8.87527 16.5 8.86289 16.3743 8.88701 16.2531C8.91112 16.1318 8.97065 16.0205 9.05806 15.9331C9.14547 15.8456 9.25683 15.7861 9.37807 15.762C9.49931 15.7379 9.62497 15.7503 9.73918 15.7976C9.85338 15.8449 9.95099 15.925 10.0197 16.0278C10.0883 16.1305 10.125 16.2514 10.125 16.375C10.1245 16.5406 10.0585 16.6993 9.94141 16.8164C9.82431 16.9335 9.66561 16.9995 9.5 17ZM10.6625 13.375C10.4891 13.4729 10.3443 13.6143 10.2424 13.7853C10.1404 13.9563 10.0849 14.151 10.0813 14.35V14.4125C10.0813 14.5783 10.0154 14.7372 9.89819 14.8544C9.78098 14.9717 9.62201 15.0375 9.45625 15.0375C9.29049 15.0375 9.13152 14.9717 9.01431 14.8544C8.8971 14.7372 8.83125 14.5783 8.83125 14.4125V14.35C8.83373 13.9315 8.94655 13.521 9.15834 13.1599C9.37012 12.7989 9.67337 12.5001 10.0375 12.2937C10.1925 12.2053 10.325 12.0824 10.4249 11.9345C10.5247 11.7867 10.5892 11.6178 10.6132 11.441C10.6373 11.2642 10.6204 11.0842 10.5638 10.915C10.5071 10.7458 10.4123 10.5919 10.2866 10.4653C10.161 10.3386 10.0078 10.2426 9.83907 10.1846C9.67032 10.1266 9.4905 10.1083 9.31352 10.131C9.13654 10.1537 8.96716 10.2168 8.8185 10.3155C8.66984 10.4142 8.54589 10.5457 8.45625 10.7C8.41197 10.7749 8.37633 10.8546 8.35 10.9375C8.30027 11.0958 8.1897 11.2279 8.0426 11.3046C7.8955 11.3814 7.72393 11.3966 7.56562 11.3469C7.40732 11.2971 7.27526 11.1866 7.19849 11.0395C7.12172 10.8924 7.10652 10.7208 7.15625 10.5625C7.21247 10.393 7.28576 10.2297 7.375 10.075C7.63635 9.62785 8.03404 9.27616 8.5098 9.07146C8.98556 8.86676 9.51437 8.81981 10.0187 8.9375C10.4539 9.03874 10.852 9.25985 11.168 9.57578C11.4839 9.89172 11.705 10.2898 11.8062 10.725C11.9255 11.231 11.8786 11.7619 11.6726 12.2392C11.4666 12.7164 11.1125 13.1147 10.6625 13.375Z" fill="#5979A7"/>
<path d="M22 3.875V13.25C21.999 13.6376 21.8784 14.0155 21.6547 14.332C21.431 14.6486 21.115 14.8884 20.75 15.0187V17C20.7494 17.1177 20.7157 17.2329 20.6527 17.3324C20.5897 17.4319 20.4999 17.5116 20.3938 17.5625C20.3107 17.6051 20.2184 17.6266 20.125 17.625C19.9837 17.6262 19.8465 17.5775 19.7375 17.4875L18.25 16.3V8.25C18.2497 7.42129 17.9204 6.62661 17.3344 6.04062C16.7484 5.45463 15.9537 5.1253 15.125 5.125H7V3.875C7.00145 3.37817 7.19946 2.90209 7.55078 2.55078C7.90209 2.19946 8.37817 2.00145 8.875 2H20.125C20.6218 2.00145 21.0979 2.19946 21.4492 2.55078C21.8005 2.90209 21.9985 3.37817 22 3.875Z" fill="#5979A7"/>
</g>
</g>
<defs>
<clipPath id="clip0_4518_6697">
<rect width="20" height="20" fill="white" transform="translate(2 2)"/>
</clipPath>
<clipPath id="clip1_4518_6697">
<rect width="20" height="20" fill="white" transform="translate(2 2)"/>
</clipPath>
</defs>
</svg>
