<svg width="24" height="24" viewBox="0 0 24 24" fill="none" xmlns="http://www.w3.org/2000/svg">
<g clip-path="url(#clip0_4518_6706)">
<g clip-path="url(#clip1_4518_6706)">
<path d="M3.11665 15.1041H9.84985C9.98011 15.1046 10.0994 15.0313 10.1578 14.9148C10.4291 14.3714 11.1922 12.846 11.1922 12.846C11.2462 12.7391 11.2409 12.6118 11.1781 12.5098C11.1153 12.4078 11.004 12.3457 10.8843 12.3457H4.15102C4.02044 12.3458 3.90112 12.4196 3.84276 12.5364L2.8084 14.6052C2.75501 14.7121 2.76071 14.8389 2.82352 14.9406C2.88628 15.0421 2.99717 15.1041 3.11665 15.1041Z" fill="#5979A7"/>
<path d="M4.41445 22H11.6552V13.4614L10.6798 15.4143C10.5632 15.6479 10.324 15.795 10.0629 15.7936H4.06964V21.6552C4.06964 21.8456 4.224 22 4.41445 22Z" fill="#5979A7"/>
<path d="M19.9303 21.6552V15.7936H13.9371C13.6755 15.7947 13.4362 15.6467 13.3202 15.4123L12.3448 13.4614V22H19.5855C19.776 21.9999 19.9303 21.8456 19.9303 21.6552Z" fill="#5979A7"/>
<path d="M19.849 12.3457H13.1158C12.9963 12.3458 12.8854 12.4077 12.8226 12.5093C12.7599 12.6109 12.7541 12.7378 12.8075 12.8446L13.8419 14.9134C13.9003 15.0302 14.0196 15.1041 14.1502 15.1041H20.8834C21.0028 15.1041 21.1138 15.0422 21.1765 14.9406C21.2393 14.8389 21.245 14.7121 21.1916 14.6052L20.1572 12.5364C20.0988 12.4196 19.9795 12.3458 19.849 12.3457Z" fill="#5979A7"/>
<path d="M9.21439 9.8718C9.16474 10.1027 9.25208 10.3416 9.4389 10.486C9.62572 10.6304 9.8789 10.6548 10.0898 10.5487L11.7214 9.65631C11.8949 9.56081 12.1052 9.56081 12.2786 9.65631L13.9101 10.548C14.1211 10.6541 14.3742 10.6297 14.5611 10.4853C14.7479 10.3409 14.8352 10.102 14.7856 9.8711L14.4784 8.00919C14.4432 7.80171 14.509 7.58989 14.6556 7.43889L15.9506 6.12623C16.1189 5.95671 16.1804 5.70838 16.1106 5.47992C16.0409 5.25146 15.8512 5.07984 15.6169 5.03324L13.8115 4.76018C13.6117 4.72819 13.4409 4.59894 13.3557 4.41536L12.5416 2.6993C12.4468 2.48495 12.2344 2.34668 12 2.34668C11.7655 2.34668 11.5532 2.48491 11.4583 2.6993L10.6442 4.41536C10.5591 4.59894 10.3882 4.72815 10.1884 4.76018L8.38306 5.03293C8.14878 5.07953 7.95907 5.25115 7.88931 5.47961C7.81955 5.70806 7.88103 5.9564 8.0493 6.12592L9.34504 7.43889C9.49163 7.58989 9.55744 7.80171 9.52225 8.00919L9.21439 9.8718Z" fill="#5979A7"/>
<path d="M4.12102 9.0303C4.19429 9.10569 4.22718 9.21146 4.20964 9.31512L4.05586 10.2461C4.03122 10.3615 4.07496 10.4808 4.16839 10.5529C4.26178 10.6251 4.3883 10.6373 4.49376 10.5843L5.31091 10.1388C5.39766 10.0912 5.50273 10.0912 5.58952 10.1388L6.40531 10.5847C6.51077 10.6377 6.63728 10.6255 6.73067 10.5533C6.82406 10.4812 6.86781 10.3619 6.8432 10.2464L6.68942 9.31551C6.67185 9.21189 6.70477 9.10608 6.77805 9.03069L7.42557 8.3756C7.50982 8.29088 7.54064 8.16667 7.50576 8.05238C7.47088 7.93809 7.37592 7.85228 7.25871 7.82908L6.35601 7.69116C6.2561 7.67519 6.17068 7.61059 6.1281 7.51876L5.72123 6.66157C5.67389 6.55415 5.56757 6.48486 5.45023 6.48486C5.33286 6.48486 5.22658 6.55415 5.17924 6.66157L4.771 7.51841C4.72842 7.61019 4.643 7.67484 4.54309 7.69081L3.64039 7.82873C3.52318 7.85193 3.42822 7.93774 3.39334 8.05203C3.35847 8.16632 3.38924 8.29053 3.47353 8.37524L4.12102 9.0303Z" fill="#5979A7"/>
<path d="M18.2801 6.66059L17.8732 7.51844C17.8307 7.61023 17.7452 7.67488 17.6453 7.69085L16.7426 7.82877C16.6254 7.85197 16.5305 7.93778 16.4956 8.05207C16.4607 8.16636 16.4915 8.29056 16.5758 8.37528L17.2233 9.03038C17.2966 9.10577 17.3295 9.21154 17.3119 9.3152L17.1581 10.2461C17.1335 10.3616 17.1772 10.4809 17.2707 10.553C17.3641 10.6252 17.4906 10.6374 17.596 10.5844L18.4132 10.1389C18.4999 10.0913 18.605 10.0913 18.6918 10.1389L19.5076 10.5847C19.613 10.6377 19.7396 10.6256 19.8329 10.5534C19.9263 10.4813 19.9701 10.3619 19.9455 10.2465L19.7917 9.31559C19.7741 9.21197 19.807 9.10616 19.8803 9.03077L20.5278 8.37567C20.6121 8.29096 20.6429 8.16675 20.608 8.05246C20.5731 7.93817 20.4782 7.85236 20.361 7.82916L19.4583 7.69124C19.3584 7.67527 19.273 7.61066 19.2304 7.51884L18.8235 6.66168C18.7767 6.55337 18.6701 6.48311 18.5522 6.48291C18.4342 6.48264 18.3273 6.55247 18.2801 6.66059Z" fill="#5979A7"/>
<path d="M9.58643 3.38085C9.70626 3.38151 9.81782 3.31991 9.88109 3.21817C9.94437 3.11642 9.9503 2.98912 9.89675 2.88194L9.55194 2.19236C9.46683 2.02194 9.25966 1.95277 9.08921 2.03788C8.91879 2.12299 8.84962 2.33016 8.93473 2.50061L9.27954 3.1902C9.3377 3.30656 9.45636 3.38026 9.58643 3.38085Z" fill="#5979A7"/>
<path d="M8.45101 3.96966C8.58561 3.83503 8.58561 3.61676 8.45101 3.48213L8.1062 3.13731C7.9709 3.00666 7.75584 3.0085 7.62284 3.14153C7.48985 3.27453 7.48797 3.48959 7.61862 3.62489L7.96344 3.9697C8.09811 4.10426 8.31637 4.10426 8.45101 3.96966Z" fill="#5979A7"/>
<path d="M14.4136 3.38096C14.5449 3.38167 14.6652 3.30777 14.7239 3.19028L15.0687 2.50069C15.1538 2.3293 15.0839 2.12139 14.9125 2.03624C14.7411 1.95113 14.5332 2.02105 14.4481 2.19244L14.1033 2.88202C14.0497 2.9892 14.0556 3.1165 14.1189 3.21824C14.1822 3.32003 14.2938 3.38163 14.4136 3.38096Z" fill="#5979A7"/>
<path d="M16.0365 3.96939L16.3813 3.62458C16.471 3.53802 16.5069 3.40979 16.4753 3.28926C16.4438 3.16872 16.3496 3.07455 16.2291 3.04299C16.1085 3.01143 15.9803 3.04736 15.8937 3.137L15.5489 3.48182C15.4593 3.56837 15.4234 3.6966 15.4549 3.81714C15.4865 3.93768 15.5806 4.03185 15.7012 4.06341C15.8218 4.09497 15.95 4.05903 16.0365 3.96939Z" fill="#5979A7"/>
</g>
</g>
<defs>
<clipPath id="clip0_4518_6706">
<rect width="20" height="20" fill="white" transform="translate(2 2)"/>
</clipPath>
<clipPath id="clip1_4518_6706">
<rect width="20" height="20" fill="white" transform="translate(2 2)"/>
</clipPath>
</defs>
</svg>
