<svg width="24" height="24" viewBox="0 0 24 24" fill="none" xmlns="http://www.w3.org/2000/svg">
<g clip-path="url(#clip0_4518_6685)">
<g clip-path="url(#clip1_4518_6685)">
<path d="M6.14551 7.18202C6.29469 7.33569 6.36165 7.55124 6.32586 7.76238L6.01325 9.65711C5.96274 9.89208 6.05161 10.1352 6.24172 10.2822C6.43184 10.4292 6.68946 10.454 6.90415 10.3459L8.56381 9.43852C8.74033 9.34133 8.95432 9.34133 9.13084 9.43852L10.7912 10.3459C11.0059 10.454 11.2635 10.4292 11.4536 10.2822C11.6437 10.1352 11.7326 9.89208 11.6821 9.65711L11.3695 7.76238C11.3337 7.55124 11.4007 7.33569 11.5498 7.18202L12.8677 5.84623C13.039 5.67369 13.1016 5.421 13.0306 5.1885C12.9596 4.95599 12.7665 4.78134 12.5281 4.73392L10.6909 4.45603C10.4875 4.42345 10.3137 4.29197 10.227 4.10517L9.39854 2.35883C9.30198 2.1407 9.08584 2 8.84729 2C8.60873 2 8.3926 2.1407 8.29607 2.35883L7.46763 4.10517C7.38095 4.29197 7.20712 4.42349 7.00376 4.45603L5.16656 4.73357C4.92812 4.78099 4.73507 4.95564 4.6641 5.18814C4.59312 5.42064 4.65566 5.67334 4.82691 5.84588L6.14551 7.18202Z" fill="#5979A7"/>
<path d="M16.0428 5.72457C16.1297 5.81426 16.1688 5.94 16.148 6.06316L15.9656 7.16879C15.9362 7.30582 15.9881 7.44754 16.0989 7.53324C16.2098 7.61895 16.36 7.63348 16.4852 7.57055L17.4537 7.04141C17.5567 6.98461 17.6818 6.98461 17.7849 7.04141L18.7533 7.57055C18.8785 7.63348 19.0287 7.61895 19.1396 7.53324C19.2505 7.44754 19.3023 7.30582 19.273 7.16879L19.0905 6.06316C19.0697 5.93996 19.1088 5.81426 19.1958 5.72457L19.9645 4.94738C20.0639 4.84648 20.1001 4.69926 20.0587 4.56379C20.0173 4.42832 19.9051 4.32641 19.7663 4.29824L18.6947 4.13648C18.5758 4.11742 18.4744 4.04027 18.4242 3.93086L17.9407 2.91227C17.8848 2.78461 17.7587 2.70215 17.6193 2.70215C17.4799 2.70215 17.3538 2.78461 17.2979 2.91227L16.8144 3.9298C16.7642 4.03922 16.6627 4.11637 16.5439 4.13543L15.4723 4.29719C15.3335 4.32535 15.2212 4.42727 15.1799 4.56273C15.1385 4.6982 15.1746 4.84543 15.274 4.94633L16.0428 5.72457Z" fill="#5979A7"/>
<path d="M10.2648 12.431C10.1041 12.4571 9.97277 12.5735 9.92765 12.73C9.86675 12.9032 9.90898 13.096 10.0368 13.2279L11.6835 14.8987C11.9475 15.1709 12.0677 15.5516 12.0081 15.9261L11.9319 16.3788C12.0878 16.4629 12.2352 16.5619 12.3723 16.6742C12.4303 16.7181 12.5016 16.7407 12.5744 16.7381H16.1491C16.6267 16.7344 17.0766 16.9618 17.3569 17.3486L17.7916 16.9822L17.6162 15.9261C17.5556 15.551 17.6758 15.1693 17.9404 14.8966L19.5871 13.2278C19.7148 13.0961 19.7573 12.9036 19.6969 12.7303C19.6518 12.5743 19.521 12.4581 19.3608 12.4317L17.065 12.0843C16.6972 12.0245 16.3818 11.7886 16.2204 11.4527L15.1832 9.26535C15.1221 9.11438 14.9754 9.01562 14.8125 9.01562C14.6496 9.01562 14.503 9.11441 14.4418 9.26535L13.4064 11.4482C13.2452 11.7857 12.9291 12.0229 12.56 12.0833L10.2648 12.431Z" fill="#5979A7"/>
<path d="M7.72695 21.9998L8.77957 21.5766C9.2368 21.3923 9.7252 21.2978 10.2182 21.298H16.5568C16.815 21.2886 17.0597 21.1803 17.2403 20.9956L21.6193 16.5373C21.8711 16.2756 21.8871 15.8667 21.6565 15.5861C21.5363 15.442 21.3637 15.3516 21.1767 15.3348C20.9898 15.3181 20.8039 15.3764 20.66 15.497L17.6074 18.0524V18.0679C17.6272 18.4519 17.4885 18.8272 17.2238 19.1062C16.9591 19.3852 16.5915 19.5433 16.207 19.5437H12.3473C12.1535 19.5437 11.9965 19.3865 11.9965 19.1928C11.9965 18.999 12.1536 18.8419 12.3473 18.8419H16.207C16.3993 18.8422 16.5834 18.7635 16.7161 18.6242C16.8487 18.4849 16.9184 18.2972 16.9088 18.1051C16.907 18.076 16.9035 18.0471 16.8983 18.0184C16.8927 18.0015 16.8886 17.9841 16.886 17.9665C16.783 17.648 16.4838 17.4343 16.1491 17.4402H12.5744C12.3385 17.4428 12.1091 17.3634 11.9253 17.2156C11.5508 16.9045 11.0787 16.7356 10.5919 16.7384C9.30242 16.7384 7.27155 17.0542 4.53294 19.7935C3.93294 20.3928 2.58067 21.4939 2.18066 21.817V21.9998L7.72695 21.9998Z" fill="#5979A7"/>
</g>
</g>
<defs>
<clipPath id="clip0_4518_6685">
<rect width="20" height="20" fill="white" transform="translate(2 2)"/>
</clipPath>
<clipPath id="clip1_4518_6685">
<rect width="20" height="20" fill="white" transform="translate(2 2)"/>
</clipPath>
</defs>
</svg>
