<svg width="20" height="20" viewBox="0 0 20 20" fill="none" xmlns="http://www.w3.org/2000/svg">
<g clip-path="url(#clip0_4518_6736)">
<path fill-rule="evenodd" clip-rule="evenodd" d="M19.8737 17.3943L18.3263 14.7143C18.2989 14.6668 18.2594 14.6274 18.2119 14.5999C18.1644 14.5725 18.1105 14.5581 18.0557 14.558H1.94429C1.88945 14.5581 1.83558 14.5725 1.78808 14.5999C1.74058 14.6274 1.70113 14.6668 1.67367 14.7143L0.126247 17.3943C0.0451064 17.535 0.00240879 17.6946 0.00244142 17.857C0.00247406 18.0195 0.0452358 18.179 0.126433 18.3197C0.207631 18.4603 0.324406 18.5772 0.465035 18.6584C0.605663 18.7397 0.765196 18.7825 0.927615 18.7826H19.0724C19.2348 18.7825 19.3943 18.7397 19.535 18.6584C19.6756 18.5772 19.7924 18.4603 19.8736 18.3197C19.9548 18.179 19.9975 18.0195 19.9976 17.857C19.9976 17.6946 19.9549 17.535 19.8737 17.3943ZM3.11719 13.1518H16.8828C16.9377 13.1518 16.9916 13.1373 17.0391 13.1099C17.0866 13.0825 17.126 13.043 17.1534 12.9955C17.1809 12.948 17.1953 12.8941 17.1953 12.8393C17.1953 12.7844 17.1809 12.7305 17.1534 12.683L15.2031 9.30489C15.1757 9.25736 15.1363 9.21789 15.0888 9.19046C15.0413 9.16303 14.9874 9.1486 14.9325 9.14864H5.06746C5.0126 9.1486 4.95869 9.16303 4.91118 9.19046C4.86367 9.21789 4.82423 9.25736 4.79683 9.30489L2.8464 12.683C2.81898 12.7305 2.80454 12.7844 2.80454 12.8393C2.80454 12.8941 2.81898 12.948 2.8464 12.9955C2.87383 13.043 2.91328 13.0825 2.96078 13.1099C3.00829 13.1373 3.06217 13.1518 3.11703 13.1518H3.11719ZM6.24023 7.74239H13.7598C13.8146 7.7424 13.8685 7.72796 13.916 7.70054C13.9635 7.67311 14.003 7.63366 14.0304 7.58616C14.0579 7.53865 14.0723 7.48476 14.0723 7.4299C14.0723 7.37504 14.0579 7.32115 14.0304 7.27364L10.8013 1.68068C10.7202 1.53995 10.6034 1.42308 10.4627 1.34182C10.322 1.26056 10.1625 1.21777 10 1.21777C9.83754 1.21777 9.67796 1.26056 9.53729 1.34182C9.39662 1.42308 9.27983 1.53995 9.19867 1.68068L5.96957 7.27364C5.94214 7.32115 5.9277 7.37504 5.9277 7.4299C5.9277 7.48476 5.94214 7.53865 5.96958 7.58616C5.99701 7.63366 6.03646 7.67311 6.08397 7.70054C6.13148 7.72796 6.18537 7.7424 6.24023 7.74239Z" fill="#5979A7"/>
</g>
<defs>
<clipPath id="clip0_4518_6736">
<rect width="20" height="20" fill="white"/>
</clipPath>
</defs>
</svg>
