<svg width="24" height="24" viewBox="0 0 24 24" fill="none" xmlns="http://www.w3.org/2000/svg">
<g clip-path="url(#clip0_4792_9408)">
<path d="M8.34169 10.3931H2.78621C2.22371 10.3925 1.6844 10.1689 1.28659 9.77122C0.88879 9.37354 0.664987 8.8343 0.664291 8.27181V2.78532C0.664987 2.22283 0.88879 1.68358 1.28659 1.2859C1.6844 0.88822 2.22371 0.664584 2.78621 0.664062H8.34169C8.90407 0.664758 9.44322 0.88847 9.84088 1.28613C10.2385 1.68379 10.4623 2.22294 10.4629 2.78532V8.27181C10.4623 8.83418 10.2385 9.37333 9.84088 9.77099C9.44322 10.1687 8.90407 10.3924 8.34169 10.3931ZM2.78621 2.30692C2.65932 2.30709 2.53767 2.35753 2.44788 2.44719C2.3581 2.53685 2.3075 2.65843 2.30715 2.78532V8.27181C2.3075 8.39869 2.3581 8.52027 2.44788 8.60993C2.53767 8.6996 2.65932 8.75003 2.78621 8.75021H8.34169C8.46852 8.75003 8.5901 8.69957 8.67978 8.60989C8.76946 8.52021 8.81992 8.39863 8.82009 8.27181V2.78532C8.81992 2.65849 8.76946 2.53691 8.67978 2.44723C8.5901 2.35755 8.46852 2.30709 8.34169 2.30692H2.78621Z" fill="#035BFF"/>
<path d="M8.36862 23.3364H2.81314C2.25058 23.3357 1.71127 23.1119 1.31349 22.7142C0.9157 22.3164 0.691919 21.7771 0.691223 21.2145V15.7287C0.691919 15.1662 0.915722 14.6269 1.31353 14.2293C1.71133 13.8316 2.25064 13.6079 2.81314 13.6074H8.36862C8.93077 13.6085 9.46958 13.8323 9.86696 14.23C10.2643 14.6276 10.4879 15.1665 10.4886 15.7287V21.2145C10.488 21.7768 10.2646 22.3159 9.86719 22.7137C9.4698 23.1114 8.93089 23.3354 8.36862 23.3364ZM2.81314 15.2503C2.68625 15.2505 2.5646 15.3009 2.47482 15.3906C2.38503 15.4802 2.33443 15.6018 2.33408 15.7287V21.2145C2.33425 21.3415 2.38478 21.4633 2.47458 21.5531C2.56439 21.6429 2.68614 21.6934 2.81314 21.6936H8.36862C8.49551 21.6932 8.61709 21.6426 8.70675 21.5528C8.79641 21.463 8.84685 21.3414 8.84702 21.2145V15.7287C8.84685 15.6019 8.79639 15.4803 8.70671 15.3906C8.61703 15.3009 8.49545 15.2505 8.36862 15.2503H2.81314Z" fill="#035BFF"/>
<path d="M21.2145 23.3364H15.659C15.0964 23.3357 14.5571 23.1119 14.1593 22.7142C13.7615 22.3164 13.5378 21.7771 13.5371 21.2145V15.7287C13.5378 15.1662 13.7616 14.6269 14.1594 14.2293C14.5572 13.8316 15.0965 13.6079 15.659 13.6074H21.2145C21.7768 13.6081 22.316 13.8318 22.7136 14.2295C23.1113 14.6272 23.335 15.1663 23.3357 15.7287V21.2145C23.3352 21.777 23.1116 22.3163 22.7139 22.7141C22.3162 23.1119 21.777 23.3357 21.2145 23.3364ZM15.659 15.2536C15.5321 15.2537 15.4104 15.3042 15.3207 15.3938C15.2309 15.4835 15.1803 15.6051 15.1799 15.732V21.2178C15.1801 21.3448 15.2306 21.4665 15.3204 21.5563C15.4102 21.6461 15.532 21.6967 15.659 21.6969H21.2145C21.3413 21.6965 21.4629 21.6459 21.5526 21.5561C21.6423 21.4663 21.6927 21.3447 21.6929 21.2178V15.7287C21.6927 15.6019 21.6422 15.4803 21.5525 15.3906C21.4629 15.3009 21.3413 15.2505 21.2145 15.2503L15.659 15.2536Z" fill="#035BFF"/>
<path d="M18.44 10.3936C17.4798 10.3864 16.5432 10.0952 15.7483 9.5565C14.9533 9.01784 14.3357 8.2559 13.9732 7.36672C13.6106 6.47755 13.5195 5.50095 13.7112 4.56004C13.9029 3.61913 14.3688 2.75603 15.0503 2.07956C15.7318 1.40309 16.5984 0.943524 17.5407 0.7588C18.483 0.574076 19.4589 0.672464 20.3453 1.04156C21.2318 1.41066 21.9891 2.03394 22.5219 2.83283C23.0547 3.63172 23.339 4.57046 23.339 5.53069C23.3326 6.82469 22.8132 8.06331 21.8948 8.97492C20.9764 9.88653 19.734 10.3967 18.44 10.3936ZM18.44 2.31069C17.8047 2.31783 17.1858 2.51272 16.661 2.87084C16.1363 3.22897 15.7292 3.73432 15.491 4.32329C15.2528 4.91226 15.1942 5.55853 15.3225 6.18075C15.4508 6.80297 15.7603 7.37333 16.212 7.82005C16.6637 8.26676 17.2375 8.56987 17.8611 8.69121C18.4847 8.81256 19.1303 8.74671 19.7166 8.50197C20.3029 8.25723 20.8036 7.84453 21.1559 7.31582C21.5081 6.7871 21.6961 6.166 21.6961 5.53069C21.6909 4.67174 21.3451 3.84993 20.7347 3.24564C20.1242 2.64134 19.299 2.30391 18.44 2.30741V2.31069Z" fill="#035BFF"/>
</g>
<defs>
<clipPath id="clip0_4792_9408">
<rect width="23" height="23" fill="white" transform="translate(0.5 0.5)"/>
</clipPath>
</defs>
</svg>
