<svg width="24" height="24" viewBox="0 0 24 24" fill="none" xmlns="http://www.w3.org/2000/svg">
<g clip-path="url(#clip0_4792_9421)">
<path d="M22.925 10.459C22.9243 10.4585 22.9237 10.4578 22.9232 10.4572L13.541 1.07539C13.1411 0.675301 12.6094 0.455078 12.0439 0.455078C11.4783 0.455078 10.9466 0.675301 10.5465 1.07539L1.16923 10.4525C1.16607 10.4557 1.16274 10.459 1.15975 10.4621C0.338524 11.2881 0.339928 12.6282 1.16379 13.4521C1.54019 13.8287 2.03714 14.0466 2.56865 14.0696C2.59041 14.0717 2.61217 14.0728 2.63411 14.0728H3.00787V20.977C3.00787 22.3435 4.11969 23.4551 5.48612 23.4551H9.15674C9.52893 23.4551 9.83057 23.1533 9.83057 22.7813V17.3682C9.83057 16.7447 10.3379 16.2376 10.9613 16.2376H13.1264C13.7498 16.2376 14.257 16.7447 14.257 17.3682V22.7813C14.257 23.1533 14.5586 23.4551 14.9308 23.4551H18.6014C19.968 23.4551 21.0797 22.3435 21.0797 20.977V14.0728H21.4264C21.9918 14.0728 22.5235 13.8525 22.9237 13.4523C23.7485 12.6272 23.7488 11.2846 22.925 10.459ZM21.9707 12.4994C21.8253 12.6449 21.6319 12.7251 21.4264 12.7251H20.4058C20.0336 12.7251 19.732 13.0267 19.732 13.3989V20.977C19.732 21.6003 19.2249 22.1075 18.6014 22.1075H15.6046V17.3682C15.6046 16.0018 14.493 14.8899 13.1264 14.8899H10.9613C9.59473 14.8899 8.48291 16.0018 8.48291 17.3682V22.1075H5.48612C4.86283 22.1075 4.35553 21.6003 4.35553 20.977V13.3989C4.35553 13.0267 4.05389 12.7251 3.6817 12.7251H2.67868C2.66815 12.7244 2.6578 12.7239 2.64709 12.7237C2.44635 12.7202 2.25806 12.6405 2.11698 12.4993C1.81691 12.1992 1.81691 11.7108 2.11698 11.4106C2.11715 11.4106 2.11715 11.4104 2.11733 11.4102L2.11786 11.4097L11.4997 2.02822C11.645 1.88275 11.8382 1.80274 12.0439 1.80274C12.2493 1.80274 12.4425 1.88275 12.588 2.02822L21.9677 11.4078C21.9692 11.4092 21.9707 11.4106 21.9721 11.412C22.2706 11.7126 22.2701 12.1999 21.9707 12.4994Z" fill="#A5B9D7"/>
</g>
<defs>
<clipPath id="clip0_4792_9421">
<rect width="23" height="23" fill="white" transform="translate(0.5 0.5)"/>
</clipPath>
</defs>
</svg>
