<svg width="24" height="24" viewBox="0 0 24 24" fill="none" xmlns="http://www.w3.org/2000/svg">
<g clip-path="url(#clip0_4792_9414)">
<path d="M9.64411 15.9985L12.8205 6.46913C12.9382 6.11609 12.7474 5.73447 12.3944 5.61678C12.0414 5.49913 11.6597 5.68991 11.542 6.04295L8.36559 15.5724C8.24794 15.9254 8.43872 16.307 8.79176 16.4247C8.86242 16.4483 8.9343 16.4594 9.00492 16.4594C9.28703 16.4595 9.54995 16.2809 9.64411 15.9985Z" fill="#035BFF"/>
<path d="M14.4048 13.043C15.5195 13.043 16.4263 12.1361 16.4263 11.0215C16.4263 9.90684 15.5195 9 14.4048 9C13.2902 9 12.3833 9.90684 12.3833 11.0215C12.3833 12.1361 13.2902 13.043 14.4048 13.043ZM14.4048 10.3477C14.7764 10.3477 15.0786 10.6499 15.0786 11.0215C15.0786 11.393 14.7764 11.6953 14.4048 11.6953C14.0333 11.6953 13.731 11.393 13.731 11.0215C13.731 10.6499 14.0333 10.3477 14.4048 10.3477Z" fill="#035BFF"/>
<path d="M6.78128 9C5.66663 9 4.7598 9.90684 4.7598 11.0215C4.7598 12.1361 5.66663 13.043 6.78128 13.043C7.89593 13.043 8.80276 12.1361 8.80276 11.0215C8.80276 9.90684 7.89597 9 6.78128 9ZM6.78128 11.6953C6.40973 11.6953 6.10745 11.393 6.10745 11.0215C6.10745 10.6499 6.40973 10.3477 6.78128 10.3477C7.15283 10.3477 7.45511 10.6499 7.45511 11.0215C7.45511 11.393 7.15287 11.6953 6.78128 11.6953Z" fill="#035BFF"/>
<path d="M23.3652 8.85546L21.0155 5.72247L21.1072 5.08085C21.1371 4.87089 21.0666 4.65904 20.9166 4.50909L19.4872 3.07967L20.9165 1.65026C21.1797 1.38715 21.1797 0.960483 20.9165 0.697331C20.6534 0.434223 20.2268 0.434223 19.9636 0.697331L18.5342 2.12674L17.1048 0.697331C16.9549 0.547336 16.743 0.476989 16.5331 0.506727L9.86247 1.45965C9.71814 1.48027 9.5844 1.54716 9.48131 1.65026L1.22251 9.90905C0.259163 10.8724 0.259163 12.4399 1.22251 13.4032L8.21069 20.3914C8.35364 20.5343 8.51014 20.6556 8.67577 20.7561V21.0293C8.67577 22.3916 9.78413 23.5 11.1465 23.5H21.0293C22.3916 23.5 23.5 22.3916 23.5 21.0293V9.25975C23.5 9.11398 23.4527 8.97207 23.3652 8.85546ZM2.17544 12.4502C1.73754 12.0123 1.73754 11.2999 2.17544 10.862L10.2754 2.76203L16.3901 1.88852L17.5813 3.07972L16.6283 4.03264L16.1518 3.55616C15.8887 3.29305 15.4621 3.29305 15.1989 3.55616C14.9358 3.81927 14.9358 4.24593 15.1989 4.50909L17.1048 6.41499C17.2364 6.54656 17.4089 6.61237 17.5813 6.61237C17.7537 6.61237 17.9262 6.54656 18.0577 6.41499C18.3209 6.15188 18.3209 5.72521 18.0577 5.46206L17.5812 4.98557L18.5341 4.03264L19.7253 5.22384L18.8518 11.3385L10.7519 19.4385C10.5398 19.6506 10.2577 19.7674 9.95775 19.7674C9.65776 19.7674 9.37574 19.6505 9.16362 19.4385L2.17544 12.4502ZM22.1523 21.0293C22.1523 21.6485 21.6485 22.1523 21.0293 22.1523H11.1465C10.5551 22.1523 10.0694 21.6929 10.0268 21.1122C10.6363 21.0953 11.2407 20.8555 11.7048 20.3914L19.9636 12.1326C20.0667 12.0295 20.1335 11.8958 20.1542 11.7514L20.7459 7.60919L22.1523 9.48436V21.0293Z" fill="#035BFF"/>
</g>
<defs>
<clipPath id="clip0_4792_9414">
<rect width="23" height="23" fill="white" transform="translate(0.5 0.5)"/>
</clipPath>
</defs>
</svg>
