<svg width="18" height="20" viewBox="0 0 18 20" fill="none" xmlns="http://www.w3.org/2000/svg">
<path fill-rule="evenodd" clip-rule="evenodd" d="M4.45703 4.9694H3.18388C2.30413 4.9694 1.57388 5.64934 1.51111 6.52718L0.689826 18.0272C0.656763 18.4915 0.817757 18.9486 1.13496 19.2893C1.45265 19.63 1.89685 19.8236 2.3626 19.8236H15.6374C16.1032 19.8236 16.5474 19.63 16.8651 19.2893C17.1823 18.9486 17.3433 18.4915 17.3102 18.0272L16.4889 6.52718C16.4261 5.64934 15.6959 4.9694 14.8161 4.9694H13.5521V4.72982C13.5521 2.21563 11.5142 0.177734 9.00001 0.177734C6.57782 0.177734 4.33915 2.10686 4.44792 4.72982C4.45128 4.80936 4.45416 4.88938 4.45703 4.9694ZM13.5521 6.4069V10.0007C13.5521 10.3974 13.2301 10.7194 12.8333 10.7194C12.4366 10.7194 12.1146 10.3974 12.1146 10.0007V6.4069H5.88542V10.0007C5.88542 10.3974 5.56342 10.7194 5.16667 10.7194C4.76992 10.7194 4.44792 10.3974 4.44792 10.0007C4.44792 10.0007 4.51022 8.32117 4.48961 6.4069H3.18388C3.05834 6.4069 2.95389 6.50417 2.94526 6.62923L2.12348 18.1292C2.11869 18.1958 2.1417 18.261 2.18722 18.3099C2.23274 18.3583 2.29599 18.3861 2.3626 18.3861H15.6374C15.704 18.3861 15.7673 18.3583 15.8128 18.3099C15.8583 18.261 15.8813 18.1958 15.8765 18.1292L15.0548 6.62923C15.0461 6.50417 14.9417 6.4069 14.8161 6.4069H13.5521ZM12.1146 4.9694V4.72982C12.1146 3.00961 10.7202 1.61523 9.00001 1.61523C7.2798 1.61523 5.88542 3.00961 5.88542 4.72982V4.9694H12.1146Z" fill="#035BFF"/>
</svg>
